<?xml version="1.0" encoding="UTF-8"?>
<svg version="1.1" xmlns="http://www.w3.org/2000/svg" width="512" height="512">
<path d="M0 0 C0.91297852 0.16628906 1.82595703 0.33257812 2.76660156 0.50390625 C44.3986228 8.16363077 83.16052206 26.40624883 116 53 C116.54446777 53.44005371 117.08893555 53.88010742 117.64990234 54.33349609 C131.72173929 65.81174863 144.93680647 78.57719064 156 93 C156.75925781 93.93070312 157.51851563 94.86140625 158.30078125 95.8203125 C184.1596216 128.07168914 200.62794761 167.52514646 208 208 C208.16371094 208.83563477 208.32742188 209.67126953 208.49609375 210.53222656 C213.78656862 238.24163521 213.41678597 270.35093304 208 298 C207.83371094 298.91297852 207.66742188 299.82595703 207.49609375 300.76660156 C199.83636923 342.3986228 181.59375117 381.16052206 155 414 C154.55994629 414.54446777 154.11989258 415.08893555 153.66650391 415.64990234 C142.18825137 429.72173929 129.42280936 442.93680647 115 454 C114.06929688 454.75925781 113.13859375 455.51851563 112.1796875 456.30078125 C79.92249248 482.16428672 40.47796777 498.61565092 0 506 C-0.83031738 506.16371094 -1.66063477 506.32742188 -2.51611328 506.49609375 C-30.30285357 511.8424592 -63.29566316 511.73946104 -91 506 C-91.96566895 505.80664062 -92.93133789 505.61328125 -93.92626953 505.4140625 C-110.42520291 502.02161166 -126.24284011 496.90787239 -142 491 C-142.70656738 490.73751465 -143.41313477 490.4750293 -144.14111328 490.20458984 C-175.55291316 478.32153359 -203.17227952 457.22051143 -227 434 C-227.88429688 433.15566406 -228.76859375 432.31132812 -229.6796875 431.44140625 C-235.27748187 426.00825289 -240.17538865 420.12260324 -245 414 C-245.79277344 413.01257813 -246.58554688 412.02515625 -247.40234375 411.0078125 C-271.6536143 380.28187414 -287.27531249 345.00726772 -296.2734375 307.01953125 C-296.95961366 303.97863575 -296.95961366 303.97863575 -298 301 C-303.65890995 271.47633358 -303.76930464 237.44843883 -298 208 C-297.83371094 207.08702148 -297.66742188 206.17404297 -297.49609375 205.23339844 C-289.83636923 163.6013772 -271.59375117 124.83947794 -245 92 C-244.55994629 91.45553223 -244.11989258 90.91106445 -243.66650391 90.35009766 C-232.18825137 76.27826071 -219.42280936 63.06319353 -205 52 C-204.06929688 51.24074219 -203.13859375 50.48148438 -202.1796875 49.69921875 C-169.92831086 23.8403784 -130.47485354 7.37205239 -90 0 C-89.16436523 -0.16371094 -88.32873047 -0.32742188 -87.46777344 -0.49609375 C-59.75836479 -5.78656862 -27.64906696 -5.41678597 0 0 Z M-76 21 C-75.05640625 22.54494141 -75.05640625 22.54494141 -74.09375 24.12109375 C-63.30641202 41.97775226 -55.63579237 60.22322423 -49 80 C-48.69739258 80.88816406 -48.39478516 81.77632812 -48.08300781 82.69140625 C-40.2625712 106.05462622 -36.32873502 130.66649669 -31.43951416 154.76226807 C-21.13094735 209.44210745 -21.13094735 209.44210745 13.2421875 251.2578125 C16.45049348 253.26578229 19.69097517 255.16355543 23 257 C23.69738281 257.39832031 24.39476562 257.79664063 25.11328125 258.20703125 C31.13445739 261.44325226 40.13525444 266 47 266 C55.10595653 235.89043503 60.94263417 206.04616025 64 175 C64.10602539 173.95279785 64.21205078 172.9055957 64.32128906 171.82666016 C65.41332197 159.21348434 65.24302568 146.52487203 65.25 133.875 C65.25100708 132.60977509 65.25201416 131.34455017 65.25305176 130.04098511 C65.24186301 109.21032937 64.515848 88.68000715 62 68 C61.8448291 66.69385742 61.6896582 65.38771484 61.52978516 64.04199219 C61.07374248 60.3350765 60.58104788 56.63614841 60.0625 52.9375 C59.9171582 51.85927979 59.77181641 50.78105957 59.62207031 49.67016602 C59.39342285 48.20728149 59.39342285 48.20728149 59.16015625 46.71484375 C59.03261963 45.87042725 58.90508301 45.02601074 58.77368164 44.15600586 C57.54145509 40.72218047 55.17556995 39.57919732 52.01147461 38.02026367 C51.31546143 37.73900635 50.61944824 37.45774902 49.90234375 37.16796875 C49.11118164 36.84739502 48.32001953 36.52682129 47.50488281 36.1965332 C46.65764648 35.86355225 45.81041016 35.53057129 44.9375 35.1875 C44.04772461 34.8371167 43.15794922 34.4867334 42.24121094 34.12573242 C29.33553377 29.11890489 16.42184531 25.13187329 2.875 22.25 C1.94655273 22.05124268 1.01810547 21.85248535 0.06152344 21.64770508 C-14.27297177 18.75175969 -28.37443414 17.68242978 -42.96850586 17.79418945 C-45.46022647 17.81266854 -47.95157664 17.81469653 -50.44335938 17.81445312 C-64.17363711 16.75996413 -64.17363711 16.75996413 -76 21 Z M-201.88671875 78.0390625 C-203.83413513 79.84609212 -205.83640391 81.54770999 -207.875 83.25 C-216.17159524 90.51160751 -223.38365713 99.02547109 -230.25 107.625 C-230.72800049 108.21676025 -231.20600098 108.80852051 -231.69848633 109.41821289 C-234.4202802 112.793904 -234.4202802 112.793904 -235 117 C-233.62250545 119.0498075 -232.22327682 120.94979507 -230.6875 122.875 C-230.23963135 123.44653809 -229.7917627 124.01807617 -229.33032227 124.60693359 C-225.23316699 129.79566932 -220.96857514 134.83908151 -216.66796875 139.859375 C-214.13791244 142.81916681 -211.69106065 145.84128796 -209.25 148.875 C-206.22890363 152.58955088 -203.09752347 156.01990894 -199.66015625 159.34765625 C-197.95615774 161.04363594 -196.38285917 162.80489696 -194.8125 164.625 C-186.01524461 174.76388475 -176.72752363 184.37472279 -167.25 193.875 C-166.75467773 194.37291046 -166.25935547 194.87082092 -165.74902344 195.38381958 C-160.57071414 200.583441 -155.35486383 205.69028988 -149.77880859 210.46630859 C-147.00706352 212.85611131 -144.35632593 215.37171204 -141.6875 217.875 C-136.87110199 222.35545146 -131.93147022 226.60958253 -126.80078125 230.73046875 C-124.27295875 232.77881585 -121.79034139 234.86735872 -119.31787109 236.98144531 C-81.83333191 269.02124011 -40.22018763 295.89389173 3.125 319.25 C3.72854309 319.57668671 4.33208618 319.90337341 4.95391846 320.23995972 C6.6772439 321.17070649 8.4049569 322.09331531 10.1328125 323.015625 C11.12168457 323.54446289 12.11055664 324.07330078 13.12939453 324.61816406 C16.03406969 326.01640028 18.92274375 327.04937717 22 328 C31.76977782 307.3205363 31.76977782 307.3205363 40 286 C39.4423999 285.79955078 38.8847998 285.59910156 38.31030273 285.39257812 C22.00585068 279.48378441 7.24531225 273.46321569 -6 262 C-6.82757813 261.36320313 -7.65515625 260.72640625 -8.5078125 260.0703125 C-40.71652176 233.31386123 -46.80267213 182.51804194 -54.29223633 144.23266602 C-58.08077967 124.88572334 -62.07147929 105.82197019 -68 87 C-68.25700684 86.175 -68.51401367 85.35 -68.77880859 84.5 C-75.29257609 63.94756637 -84.70969613 40.46749698 -99 24 C-133.69742186 24 -177.68436623 55.50443511 -201.88671875 78.0390625 Z M81 55 C81.08564209 55.85529297 81.17128418 56.71058594 81.25952148 57.59179688 C81.58428787 60.84954803 81.90637291 64.10754352 82.22680664 67.36572266 C82.36445105 68.7600302 82.50308006 70.15424099 82.64282227 71.54833984 C84.46790004 89.77276266 85.18650053 107.81520105 85.18530273 126.13183594 C85.18747523 129.83280187 85.2056518 133.53346203 85.22460938 137.234375 C85.32869413 181.3409798 78.83637968 224.33087431 68 267 C76.39685593 265.92022969 84.58658267 264.63553294 92.75 262.375 C93.68175049 262.11775146 94.61350098 261.86050293 95.57348633 261.59545898 C121.35694351 254.17012182 146.1444956 239.09839729 159.8125 215.375 C166.02250823 204.08308269 170.81149381 190.88130974 172 178 C172.19335938 176.09541016 172.19335938 176.09541016 172.390625 174.15234375 C173.20681309 162.35459145 169.74375239 154.12016615 164 144 C163.61489258 143.29875 163.22978516 142.5975 162.83300781 141.875 C146.72547387 112.59346795 124.78359648 86.65631749 98.375 66.1875 C97.68229004 65.64778564 96.98958008 65.10807129 96.27587891 64.55200195 C91.42703315 60.86176547 86.39665556 57.824234 81 55 Z M-249 135 C-261.80205184 157.4808978 -271.03503966 181.8439746 -276.25 207.1875 C-276.47695557 208.28928589 -276.47695557 208.28928589 -276.70849609 209.41333008 C-279.36238777 223.26004737 -280.33249902 236.99216406 -280.26074219 251.06616211 C-280.24999124 253.56453614 -280.26073194 256.06219391 -280.2734375 258.56054688 C-281.01198352 277.18609202 -281.01198352 277.18609202 -275 294 C-273.27462243 295.65716463 -273.27462243 295.65716463 -271.296875 297.015625 C-270.20910767 297.80211426 -270.20910767 297.80211426 -269.09936523 298.60449219 C-268.32407471 299.14750977 -267.54878418 299.69052734 -266.75 300.25 C-265.9444165 300.82137695 -265.13883301 301.39275391 -264.30883789 301.98144531 C-257.0850805 307.04840022 -249.68814157 311.67728618 -242 316 C-241.04504639 316.54817383 -241.04504639 316.54817383 -240.07080078 317.10742188 C-223.96136244 326.30825921 -206.87290324 332.90273129 -189 337.8125 C-188.04230713 338.07820801 -187.08461426 338.34391602 -186.09790039 338.61767578 C-167.87672446 343.37909336 -149.24555219 345.61223088 -130.52630615 347.26660156 C-125.94801647 347.67234802 -121.3720326 348.10177779 -116.79577637 348.52975464 C-113.48072309 348.83960022 -110.16542698 349.14673758 -106.85009766 349.45361328 C-75.68259578 352.35272741 -46.13814008 357.22661637 -17 369 C-16.00484375 369.39574219 -15.0096875 369.79148437 -13.984375 370.19921875 C-11.65380039 371.1268916 -9.32572771 372.06025901 -7 373 C-2.29884603 367.44059721 2.04326498 361.69167968 6.0625 355.625 C6.46847412 355.03058105 6.87444824 354.43616211 7.29272461 353.82373047 C9.41120985 350.65401374 9.41120985 350.65401374 9.90820312 346.97753906 C8.58997295 344.10719916 6.89528912 343.58155459 4.05859375 342.2578125 C3.0123584 341.75652832 1.96612305 341.25524414 0.88818359 340.73876953 C-0.25054199 340.20622559 -1.38926758 339.67368164 -2.5625 339.125 C-4.960331 337.96448275 -7.35536978 336.79992332 -9.74609375 335.625 C-10.35578003 335.325867 -10.96546631 335.02673401 -11.59362793 334.71853638 C-35.78555063 322.75140918 -59.03408877 307.65330336 -81 292 C-81.71317383 291.49259277 -82.42634766 290.98518555 -83.16113281 290.46240234 C-88.46729982 286.67770455 -93.74199096 282.85126615 -99 279 C-99.68594238 278.49855469 -100.37188477 277.99710938 -101.07861328 277.48046875 C-111.70091676 269.69163582 -121.90780996 261.46153077 -132 253 C-132.61037109 252.49017578 -133.22074219 251.98035156 -133.84960938 251.45507812 C-140.2607423 246.09705028 -146.57404337 240.64805403 -152.7578125 235.02734375 C-154.71208424 233.26032801 -156.69059737 231.53086471 -158.6875 229.8125 C-169.6965032 220.17147945 -180.14414972 209.95700612 -190.5 199.625 C-191.01828369 199.1093045 -191.53656738 198.59360901 -192.07055664 198.06228638 C-197.40625051 192.74762331 -202.67600393 187.41984241 -207.54345703 181.66479492 C-209.07631845 179.91276978 -210.69648346 178.29958852 -212.375 176.6875 C-216.12193585 173.0073247 -219.33918157 168.96171568 -222.625 164.87109375 C-224.93050549 162.08401063 -227.33795842 159.44963165 -229.8125 156.8125 C-234.67181282 151.56413702 -238.89818434 145.93913811 -243.06567383 140.13012695 C-244.33250725 138.38678015 -245.66101453 136.68856238 -247 135 C-247.66 135 -248.32 135 -249 135 Z M185 210 C184.50371094 211.02738281 184.00742187 212.05476562 183.49609375 213.11328125 C176.87647502 226.68440328 169.63241412 238.20423874 159 249 C158.24203125 249.78246094 157.4840625 250.56492188 156.703125 251.37109375 C138.96697891 268.52622816 114.2540722 277.84211614 90.75 283.625 C89.8616748 283.85614502 88.97334961 284.08729004 88.05810547 284.32543945 C83.53507597 285.4363518 79.55421255 286.11064958 74.890625 285.85546875 C69.65504916 285.7076237 65.26295 285.64110299 61 289 C55.88334025 296.83853004 53.06316212 305.87947777 50.17980957 314.72550964 C47.7377419 322.10947885 44.43798234 329.03562285 41 336 C43.42062016 338.79008059 45.81350701 339.96320431 49.21484375 341.34765625 C50.27832031 341.78279541 51.34179688 342.21793457 52.4375 342.66625977 C53.5925 343.12701904 54.7475 343.58777832 55.9375 344.0625 C57.14535156 344.54710693 58.35320312 345.03171387 59.59765625 345.53100586 C90.92482609 358.02591831 122.95508541 368.15318018 156 375 C179.83780826 339.70939 190.49307937 295.58302311 190.3125 253.375 C190.31167419 252.55448151 190.31084839 251.73396301 190.30999756 250.88858032 C190.27914874 237.52211165 189.93995078 224.09491838 187 211 C186.01 210.505 186.01 210.505 185 210 Z M-269 324 C-267.11256716 331.67890572 -264.63368469 338.83417665 -261.4375 346.0625 C-260.99768799 347.06055664 -260.55787598 348.05861328 -260.10473633 349.08691406 C-250.44324254 370.64411133 -237.78364841 390.41118359 -222 408 C-221.14148438 408.9796875 -220.28296875 409.959375 -219.3984375 410.96875 C-198.8504379 434.00190589 -174.00667981 452.39234853 -146.24316406 465.85449219 C-144.11146149 466.9430804 -142.11464237 468.14651189 -140.0859375 469.4140625 C-136.13003274 471.66778217 -132.63070361 473.27027073 -128 473 C-119.25743466 470.29635618 -111.62451544 464.91735254 -104 460 C-102.30608942 458.9712392 -100.60841844 457.94863288 -98.90625 456.93359375 C-82.73119209 447.17768157 -67.56724612 435.86165121 -53.46679688 423.30371094 C-52.15957557 422.14183314 -50.83851366 420.99556999 -49.515625 419.8515625 C-43.84575134 414.88566644 -38.48032932 409.61254413 -33.125 404.3125 C-32.38660889 403.58716064 -31.64821777 402.86182129 -30.88745117 402.11450195 C-27.06579982 398.29898417 -23.78669446 394.63233241 -21 390 C-28.21651148 386.08900623 -35.46171436 383.30203144 -43.3125 380.9375 C-44.45332031 380.59243408 -45.59414062 380.24736816 -46.76953125 379.8918457 C-69.52571559 373.1789618 -92.83922771 371.02773243 -116.37890625 368.84375 C-118.65551786 368.63078099 -120.93212918 368.41780894 -123.20874023 368.20483398 C-127.71121597 367.78413763 -132.21460488 367.37643533 -136.71899414 366.97680664 C-155.73170171 365.24741271 -174.75724901 362.81892809 -193.25 357.9375 C-194.90443115 357.50195801 -194.90443115 357.50195801 -196.59228516 357.05761719 C-221.06479582 350.32776304 -245.20899929 340.02783807 -266.015625 325.36328125 C-267.73611413 323.90562444 -267.73611413 323.90562444 -269 324 Z M30 356 C28.20422371 358.2303381 28.20422371 358.2303381 26.33984375 361.109375 C25.2734668 362.70652344 25.2734668 362.70652344 24.18554688 364.3359375 C23.81679443 364.89635742 23.44804199 365.45677734 23.06811523 366.03417969 C21.94739355 367.73498555 20.81354233 369.42643014 19.67773438 371.1171875 C15.38779013 377.13261049 15.38779013 377.13261049 13 384 C13.72703125 384.46148437 14.4540625 384.92296875 15.203125 385.3984375 C35.23466324 398.3932559 50.36643939 413.54616645 56.5703125 437.171875 C57.19204167 441.26398335 57.1440887 445.30479548 57.125 449.4375 C57.13080078 450.68756836 57.13080078 450.68756836 57.13671875 451.96289062 C57.12966873 456.42202587 56.89916791 460.61120425 56 465 C60.79995347 463.57478305 65.04012612 461.52776499 69.375 459.0625 C70.06835449 458.6691748 70.76170898 458.27584961 71.47607422 457.87060547 C97.7613363 442.69713702 126.40175698 420.83290187 143 395 C143 394.34 143 393.68 143 393 C141.69240723 392.68530762 141.69240723 392.68530762 140.35839844 392.36425781 C105.25160166 383.83218139 71.03288274 372.81654764 37.85913086 358.43652344 C34.06886625 356.64931521 34.06886625 356.64931521 30 356 Z M-2.34765625 401.31005859 C-2.91355469 401.91672363 -3.47945313 402.52338867 -4.0625 403.1484375 C-4.69019287 403.8194751 -5.31788574 404.4905127 -5.96459961 405.18188477 C-6.63628174 405.90561279 -7.30796387 406.62934082 -8 407.375 C-8.68263916 408.10581787 -9.36527832 408.83663574 -10.06860352 409.58959961 C-13.74528831 413.53553327 -17.36968702 417.51814258 -20.9375 421.5625 C-24.03284073 425.0260597 -27.24765033 428.12167356 -30.80078125 431.109375 C-33.44910745 433.38608882 -35.96127283 435.78924221 -38.5 438.1875 C-44.9558511 444.18584984 -51.92767303 449.41048935 -59.05224609 454.58300781 C-60.84190082 455.88498274 -62.61945741 457.20169666 -64.39453125 458.5234375 C-72.2860504 464.34033381 -80.52086661 469.52579414 -88.89331055 474.62280273 C-90.18748901 475.41086304 -90.18748901 475.41086304 -91.5078125 476.21484375 C-92.27754395 476.68011475 -93.04727539 477.14538574 -93.84033203 477.62475586 C-95.97966821 478.98705302 -97.99234441 480.45163625 -100 482 C-97.1895434 482.63551489 -94.37709551 483.2582821 -91.5625 483.875 C-90.79873047 484.04902344 -90.03496094 484.22304688 -89.24804688 484.40234375 C-74.52171002 487.59600716 -59.832081 488.38119663 -44.8125 488.3125 C-43.53182648 488.30926727 -43.53182648 488.30926727 -42.22528076 488.30596924 C-20.86769768 488.21971123 -1.12823712 485.15699436 19.53027344 479.65332031 C21.50300135 479.13147177 23.49180725 478.67053136 25.484375 478.23046875 C29.0446801 476.48901517 30.20808911 473.84734541 31.75 470.375 C32.04656494 469.73763916 32.34312988 469.10027832 32.64868164 468.44360352 C37.3179864 458.16903859 39.04976192 447.3541309 35.5 436.375 C28.70189842 419.99775529 14.72753246 408.93153581 0 400 C-1.19373967 399.88382769 -1.19373967 399.88382769 -2.34765625 401.31005859 Z " fill="#000000" transform="translate(301,3)"/>
</svg>
