<svg width="50" height="49" viewBox="0 0 50 49" fill="none" xmlns="http://www.w3.org/2000/svg">
<g clip-path="url(#clip0_88_738)">
<path d="M0 31.8006C0.503823 31.521 0.698769 31.5665 0.835485 32.0763C1.414 34.2387 2.86723 35.5546 4.78505 36.4297C6.37627 37.1566 7.97255 37.8679 9.55365 38.6169C10.9676 39.2865 12.2652 40.1434 13.3551 41.3033C14.2982 42.3046 14.864 43.4722 14.8602 44.8909C14.8602 45.0573 14.8805 45.2524 14.8058 45.3824C14.7147 45.5424 14.5324 45.649 14.3906 45.779C14.2627 45.6165 14.0551 45.4695 14.0248 45.2901C13.9475 44.835 14.0146 44.3487 13.9096 43.9027C13.6083 42.6127 12.7728 41.6661 11.7462 40.9665C10.5714 40.1668 9.32072 39.4751 8.05863 38.8275C6.77882 38.1709 5.43698 37.6468 4.13818 37.0279C2.13682 36.0747 0.694972 34.5924 0.0696238 32.3636C0.0620284 32.3376 0.0240518 32.322 0 32.3012C0 32.1335 0 31.9657 0 31.7993L0 31.8006Z" fill="#9D00DE"/>
<path d="M35.4358 4.9681C35.9688 5.39071 36.4688 5.78731 36.9675 6.1852C38.8854 7.71438 40.8475 9.18894 42.7109 10.7857C45.7452 13.3851 47.5352 16.7581 48.1998 20.7449C48.7884 24.2752 48.3149 27.6743 46.8364 30.9225C46.7123 31.1942 46.5642 31.4673 46.2174 31.3008C45.8693 31.1344 45.9781 30.8405 46.1022 30.5701C47.2339 28.119 47.7466 25.5352 47.6162 22.8293C47.4757 19.9101 46.6313 17.2171 45.0819 14.7621C45.0388 14.6945 44.9882 14.6321 44.8401 14.5801V15.0976C44.8401 18.5642 44.8401 22.0296 44.8401 25.4962C44.8401 25.5964 44.8401 25.6978 44.8401 25.7979C44.8376 26.11 44.8325 26.4637 44.4223 26.4494C44.0236 26.4351 44.0261 26.0814 44.0261 25.7706C44.0261 21.7513 44.0312 17.7333 44.0147 13.714C44.0147 13.4644 43.8919 13.1692 43.7337 12.9742C42.521 11.4814 40.9589 10.3969 39.4841 9.21364C37.9701 7.99785 36.4371 6.80675 34.8965 5.59226C34.5054 5.96155 34.1484 6.32304 33.7648 6.65592C31.1115 8.95488 27.9721 10.1161 24.6213 10.8078C21.5262 11.4476 18.44 12.1355 15.3462 12.7856C14.9892 12.861 14.8791 13.0054 14.8803 13.3799C14.8943 17.5331 14.874 21.685 14.893 25.8382C14.9082 29.2554 16.1032 32.1721 18.5362 34.523C20.9465 36.8519 23.3719 39.1652 25.7936 41.481C26.5442 42.1988 27.419 42.6435 28.4595 42.6903C29.7279 42.7462 31.0141 42.8776 32.1774 42.1858C32.5952 41.9375 32.9876 41.6228 33.3433 41.2847C35.5801 39.1574 37.803 37.0144 40.031 34.8767C40.174 34.7402 40.2994 34.5555 40.469 34.484C40.6323 34.4151 40.8437 34.4658 41.0336 34.4632C41.0209 34.67 41.0855 34.9469 40.9804 35.0705C40.6386 35.4723 40.2677 35.865 39.8474 36.1744C39.1993 36.6491 39.0297 37.2329 39.0537 38.0404C39.1082 39.8986 39.098 41.7515 39.6006 43.5642C40.0196 45.0725 40.6222 46.4873 41.4576 47.7993C41.5374 47.9254 41.6159 48.0529 41.6982 48.1777C41.845 48.4039 41.9463 48.6523 41.6868 48.8421C41.4222 49.0359 41.1817 48.9215 41.0374 48.6432C40.4601 47.5418 39.8133 46.4691 39.3347 45.3235C38.4461 43.1988 38.222 40.9349 38.2613 38.6385C38.2651 38.3889 38.2613 38.1379 38.2613 37.7673C38.0676 37.9351 37.9359 38.0391 37.8157 38.1548C36.4865 39.4161 35.1548 40.6748 33.8332 41.944C32.899 42.8412 31.8369 43.4302 30.5356 43.5004C29.0988 43.5772 27.6607 43.6604 26.3493 42.8789C25.9999 42.6695 25.6505 42.4381 25.3568 42.1559C22.6542 39.5605 19.8996 37.017 17.2893 34.3267C15.3411 32.319 14.2677 29.773 14.1942 26.9305C14.0828 22.5965 14.1284 18.2587 14.1082 13.9234C14.1082 13.7075 14.1082 13.4904 14.1082 13.216C13.0866 13.5866 12.2144 14.1236 11.4156 14.7829C6.69512 18.6761 6.0837 25.6211 10.0143 30.3321C12.0599 32.7845 14.1044 35.2408 16.0753 37.7569C17.1817 39.1691 18.0489 40.7555 18.3387 42.5902C18.9236 46.2883 16.0817 48.4468 13.4182 48.5067C13.1537 48.5132 12.9043 48.4651 12.8891 48.1296C12.8739 47.7772 13.1132 47.6784 13.4069 47.6797C14.6158 47.6862 15.6437 47.1972 16.4817 46.3533C17.6919 45.1336 17.8172 43.6201 17.3779 42.0233C16.9691 40.5357 16.2171 39.2133 15.274 38.0326C13.3208 35.588 11.3359 33.1681 9.31044 30.7846C5.20264 25.9513 5.90647 18.1611 10.813 14.1939C12.5954 12.7531 14.6348 12.0379 16.8222 11.5971C19.9363 10.9704 23.0516 10.3345 26.1404 9.59074C29.6836 8.73643 32.8154 7.06292 35.0738 4.04098C35.8232 3.03713 36.2726 1.79663 36.8561 0.664052C37.0118 0.361077 37.0486 -0.169452 37.5511 0.0581032C38.0144 0.267454 37.7131 0.664052 37.5942 0.967026C37.0422 2.37917 36.4498 3.76921 35.4358 4.97071V4.9681Z" fill="#9D00DE"/>
<path d="M46.4313 34.2582C46.0553 34.6795 45.7072 35.0696 45.2642 35.5663C45.4325 35.6846 45.5946 35.7717 45.7237 35.894C47.0275 37.1319 48.3276 38.3763 49.6277 39.6194C49.7226 39.7104 49.8682 39.7884 49.8998 39.9003C49.9543 40.0953 49.9365 40.3112 49.9492 40.5179C49.7593 40.514 49.5416 40.5686 49.3859 40.4919C49.1884 40.3944 49.0416 40.1915 48.8732 40.0329C46.7604 38.0447 44.754 35.9291 42.3995 34.2257C42.1539 34.0488 41.8678 33.898 41.5792 33.8226C39.6867 33.3297 37.7891 32.8603 35.8928 32.3831C35.194 32.2076 35.1586 32.1582 35.1928 31.4339C35.3637 27.806 38.0954 24.7099 41.5905 24.1846C42.3678 24.0676 42.426 24.104 42.6741 24.8751C43.2868 26.7787 43.8919 28.685 44.5185 30.5835C44.6148 30.8734 44.7831 31.1543 44.9717 31.3949C46.3743 33.1672 48.02 34.6938 49.6593 36.2269C49.7669 36.3283 49.9226 36.4206 49.9593 36.5467C50.0074 36.7119 50.0264 36.9732 49.9353 37.0682C49.8441 37.1644 49.5745 37.167 49.4302 37.102C49.2466 37.0187 49.1061 36.8289 48.9517 36.6807C48.12 35.8823 47.2896 35.0839 46.4313 34.2569V34.2582ZM36.8182 31.733C36.8637 31.6731 36.8941 31.651 36.9017 31.6224C36.9359 31.4937 36.965 31.3637 36.9929 31.2336C37.2486 30.036 37.7701 28.9724 38.5069 28.0127C38.6929 27.7709 38.9056 27.6343 39.1676 27.8437C39.4183 28.0426 39.3221 28.2845 39.16 28.5056C39.0322 28.6785 38.9031 28.8514 38.7841 29.0309C38.2056 29.9138 37.8233 30.8747 37.6941 31.9722C39.0524 32.3181 40.3956 32.6406 41.7273 33.0138C42.1374 33.1282 42.2678 32.8538 42.4868 32.6471C42.6995 32.4455 42.7742 32.2583 42.6615 31.9488C42.3893 31.1985 42.1425 30.4352 41.9387 29.6628C41.8982 29.5094 42.0906 29.2897 42.1754 29.1011C42.3425 29.1986 42.5286 29.2727 42.6678 29.4015C42.7526 29.4808 42.7653 29.6433 42.8071 29.7695C42.9995 30.3624 43.1894 30.9554 43.3843 31.56C43.8021 31.3351 43.8476 31.0672 43.7134 30.668C43.1311 28.9308 42.5805 27.1831 42.0159 25.4394C41.9665 25.286 41.9007 25.1377 41.8475 24.996C37.96 25.5096 35.8991 29.1791 36.0536 31.5561C36.3093 31.6159 36.5738 31.6757 36.8194 31.733H36.8182ZM44.6869 34.9798C45.0895 34.5286 45.4718 34.1021 45.8768 33.6483C45.354 33.0463 44.8401 32.4559 44.3046 31.8396C43.7894 32.4156 43.321 32.9409 42.821 33.5001C43.4501 33.9981 44.0489 34.474 44.6869 34.9785V34.9798Z" fill="#9D00DE"/>
<path d="M29.4886 37.6165C27.6202 37.5319 26.1277 36.7323 25.0732 35.1082C24.8947 34.8325 24.9099 34.5997 25.0846 34.328C25.7138 33.3501 26.5379 32.5985 27.6164 32.228C28.0151 32.0901 28.519 32.1187 28.9342 32.2319C29.3342 32.3411 29.657 32.3515 30.0532 32.2215C30.4051 32.1057 30.8469 32.0537 31.1887 32.1655C32.3761 32.5543 33.299 33.3371 33.9268 34.445C34.0192 34.6075 33.9775 34.9443 33.8699 35.116C32.8496 36.7414 31.3571 37.5228 29.4874 37.6165H29.4886ZM25.7998 34.722C27.6518 37.4539 31.4077 37.4383 33.1331 34.7116C32.728 34.051 32.166 33.566 31.5014 33.1863C31.0153 32.908 30.5621 32.8807 30.0178 33.0758C29.6583 33.2045 29.2089 33.0758 28.8 33.055C28.4861 33.0394 28.1417 32.9158 27.867 33.012C26.9986 33.315 26.3176 33.9002 25.8011 34.722H25.7998Z" fill="#9D00DE"/>
<path d="M9.49557 2.31847C9.84875 2.38219 10.0133 2.54082 9.92597 2.849C9.88166 3.00374 9.77406 3.14417 9.68165 3.2794C7.80054 6.02828 7.01063 9.08533 7.24355 12.4258C7.2752 12.8745 7.36255 13.3205 7.42204 13.7678C7.46128 14.0564 7.4347 14.3399 7.09924 14.3919C6.76884 14.4426 6.66251 14.1956 6.61314 13.8991C5.93463 9.76409 6.80049 5.99707 9.17276 2.59154C9.25884 2.46801 9.40822 2.39129 9.49683 2.31717L9.49557 2.31847Z" fill="#9D00DE"/>
<path d="M19.0856 21.0262C18.5147 20.6101 17.9324 20.5463 17.3121 20.8051C17.1463 20.874 16.988 21.0066 16.821 21.0157C16.6374 21.0249 16.4488 20.9247 16.2627 20.8714C16.3349 20.6751 16.3488 20.3929 16.4868 20.2954C17.4311 19.6192 18.7033 19.6478 19.6363 20.389C20.7439 21.2693 21.9642 21.7322 23.3643 21.5385C23.8719 21.4683 24.3644 21.2641 24.8555 21.0977C25.1454 21.0001 25.4632 20.757 25.6505 21.1835C25.8366 21.6087 25.453 21.7205 25.1847 21.8558C23.6909 22.606 22.1655 22.6138 20.6427 21.9858C19.9034 21.6815 19.2806 21.779 18.716 22.3356C18.4957 22.5527 18.2527 22.7062 18.0033 22.4214C17.7653 22.1496 17.9565 21.9091 18.1577 21.7335C18.4375 21.4891 18.7476 21.281 19.0844 21.0288L19.0856 21.0262Z" fill="#9D00DE"/>
<path d="M39.8997 21.0235C40.2415 21.2992 40.5972 21.5333 40.8782 21.8388C40.9858 21.9572 40.9238 22.2393 40.939 22.4474C40.7352 22.437 40.4516 22.5124 40.3402 22.4032C39.6807 21.7517 39.0009 21.6945 38.154 22.0365C36.6653 22.6372 35.164 22.5709 33.7095 21.8388C33.4361 21.701 33.2069 21.5268 33.3677 21.1861C33.5209 20.8623 33.7905 20.9598 34.0412 21.0768C35.8906 21.9416 37.6122 21.701 39.2148 20.4436C40.22 19.6556 41.2719 19.6322 42.3656 20.2316C42.61 20.3656 42.8403 20.5242 42.6732 20.8506C42.5125 21.1653 42.253 21.0989 41.9998 20.9663C41.3415 20.6217 40.6795 20.5021 40.0086 20.926C39.9579 20.9585 39.9161 21.0066 39.8984 21.0222L39.8997 21.0235Z" fill="#9D00DE"/>
<path d="M42.1018 15.1804C41.3169 15.0269 40.6485 14.8774 39.9751 14.7708C38.6624 14.5614 37.3534 14.5497 36.0559 14.9112C35.1103 15.1739 34.3178 15.6251 33.8052 16.5327C33.7178 16.6874 33.4191 16.716 33.2178 16.8032C33.1849 16.5834 33.0583 16.3181 33.1342 16.1491C33.5887 15.1465 34.4242 14.5692 35.409 14.235C37.3395 13.5784 39.2902 13.7266 41.2397 14.1583C41.541 14.2246 41.8562 14.2662 42.1334 14.3937C42.2689 14.4561 42.4144 14.6979 42.4005 14.8423C42.3879 14.9827 42.1765 15.1036 42.103 15.1791L42.1018 15.1804Z" fill="#9D00DE"/>
<path d="M20.6501 13.6953C21.8654 13.8097 23.0389 13.9385 24.13 14.4989C24.8617 14.8747 25.4782 15.3857 25.8162 16.1659C25.8871 16.3285 25.8479 16.6574 25.7314 16.7654C25.5099 16.9708 25.2681 16.82 25.1364 16.569C24.4617 15.2921 23.2768 14.9228 22.0097 14.7239C20.4564 14.4807 18.9323 14.707 17.417 15.0697C17.112 15.1426 16.6765 15.3766 16.5499 14.8734C16.4107 14.3195 16.9208 14.3325 17.2449 14.2727C18.3766 14.0633 19.5146 13.8852 20.6501 13.6953V13.6953Z" fill="#9D00DE"/>
<path d="M23.7594 7.68526C23.6265 7.55393 23.3986 7.4291 23.3999 7.30687C23.4024 7.13913 23.543 6.89857 23.6898 6.82445C23.9303 6.70222 24.224 6.69702 24.4924 6.6294C26.1292 6.2133 27.5976 5.45001 28.8977 4.34604C28.9356 4.31354 28.9736 4.28363 29.0103 4.24982C29.2306 4.04957 29.4762 3.87143 29.7268 4.164C29.9813 4.46177 29.7635 4.67763 29.5395 4.87397C28.4255 5.84791 27.1874 6.6073 25.7975 7.08451C25.1519 7.30687 24.4886 7.47201 23.7607 7.68526H23.7594Z" fill="#9D00DE"/>
<path d="M29.4712 30.4446C28.7711 30.429 28.1255 30.2197 27.6255 29.6956C27.5091 29.5734 27.5394 29.3029 27.5015 29.1014C27.704 29.0897 27.9736 28.987 28.099 29.0819C29.0167 29.7893 29.8991 29.8114 30.8219 29.0936C30.951 28.9935 31.2194 29.0806 31.4232 29.0806C31.3827 29.2964 31.4131 29.5864 31.2877 29.7177C30.7991 30.2262 30.1662 30.4277 29.4699 30.4446H29.4712Z" fill="#9D00DE"/>
<path d="M8.16016 14.4273C8.31713 13.7967 8.43106 13.2596 8.58549 12.7356C8.73107 12.2428 8.89184 11.75 9.10451 11.2858C9.16907 11.1453 9.42731 11.0985 9.59567 11.0088C9.68049 11.183 9.8691 11.3859 9.83239 11.5276C9.57922 12.5068 9.29313 13.4781 8.97665 14.4377C8.92855 14.586 8.67917 14.7381 8.5146 14.7472C8.39688 14.755 8.26396 14.5288 8.16016 14.4273V14.4273Z" fill="#9D00DE"/>
<path d="M30.8331 3.27339C30.471 3.27989 30.2736 2.99382 30.4369 2.69084C30.6786 2.24224 30.9584 1.81183 31.2647 1.40613C31.342 1.30341 31.5964 1.2631 31.7306 1.31121C31.8357 1.34892 31.9774 1.62198 31.9369 1.6948C31.6534 2.21233 31.3306 2.70645 31.0103 3.20057C30.9749 3.25518 30.8685 3.26038 30.8343 3.27339H30.8331Z" fill="#9D00DE"/>
<path d="M40.3565 26.2188C40.5527 26.4866 40.7869 26.7428 40.759 26.7792C40.5577 27.0314 40.316 27.2577 40.0514 27.4371C40.0134 27.4632 39.6501 27.1017 39.6666 27.077C39.8425 26.8065 40.064 26.5659 40.3565 26.2188Z" fill="#9D00DE"/>
</g>
<defs>
<clipPath id="clip0_88_738">
<rect width="50" height="48.9362" fill="white"/>
</clipPath>
</defs>
</svg>
