<svg width="50" height="50" viewBox="0 0 50 50" fill="none" xmlns="http://www.w3.org/2000/svg">
<g clip-path="url(#clip0_88_704)">
<path d="M0 21.2723C0.262115 20.2009 0.747222 19.2677 1.69918 18.5951C1.61572 18.4921 1.55443 18.4048 1.4814 18.3279C0.448594 17.2487 0.169527 15.9988 0.683324 14.5989C2.65375 9.22373 6.27119 5.34094 11.4 2.83713C11.6778 2.70157 11.9582 2.57514 12.2411 2.45132C12.8906 2.16718 13.2883 2.24539 13.4943 2.69115C13.703 3.13951 13.4774 3.47839 12.8488 3.79251C11.8617 4.28519 10.8549 4.75311 9.92123 5.33442C6.20208 7.64794 3.60962 10.8947 2.08909 14.9964C1.51661 16.541 2.42423 17.8509 4.06995 17.8509C18.0116 17.8535 31.9532 17.8522 45.8948 17.8509C47.5445 17.8509 48.4651 16.5436 47.8861 14.9991C45.8466 9.56001 42.0466 5.83362 36.7195 3.61786C33.7189 2.37051 30.5696 1.78008 27.3382 1.54677C23.6386 1.27958 20.0003 1.63801 16.4102 2.54517C15.8482 2.68724 15.4648 2.51389 15.3435 2.08377C15.2183 1.63931 15.483 1.27958 16.0659 1.12969C20.1241 0.0947947 24.2306 -0.23757 28.4023 0.167784C32.0732 0.524913 35.6137 1.34605 38.9234 3.01439C43.7927 5.46867 47.2341 9.22634 49.1993 14.3226C49.7966 15.871 49.5905 17.2513 48.3843 18.4387C48.3517 18.4713 48.3334 18.5182 48.293 18.5834C49.1093 19.2273 49.6988 20.0249 49.8878 21.0624C50.356 23.6353 49.2815 25.7207 47.015 26.3724C46.9094 26.4024 46.7829 26.5966 46.7816 26.7152C46.7646 27.9665 46.7803 29.219 46.7633 30.4716C46.7594 30.7531 46.899 30.8118 47.1206 30.8861C48.7181 31.4165 49.6962 32.5192 49.9283 34.181C50.1708 35.9185 49.8305 37.5021 48.2995 38.5982C47.937 38.8576 47.4845 38.9905 47.092 39.2147C46.9589 39.2903 46.7946 39.4676 46.7959 39.5992C46.8012 44.1207 44.4082 46.9595 40.4282 48.676C38.7538 49.3981 36.9908 49.7683 35.1651 49.7696C28.3488 49.7761 21.5325 49.8022 14.7162 49.7565C11.653 49.7357 8.85322 48.7907 6.46419 46.8356C4.23817 45.0148 3.17146 42.6179 3.19884 39.7439C3.20145 39.4194 3.13625 39.2708 2.80241 39.1613C1.37969 38.6973 0.490324 37.7093 0.104324 36.2665C0.0808513 36.1765 0.0365135 36.0918 0.00130405 36.0045C0.00130405 35.3867 0.00130405 34.7689 0.00130405 34.1511C0.0286892 34.0781 0.0665067 34.0064 0.0834594 33.9308C0.435554 32.3693 1.39012 31.3527 2.90413 30.8717C3.18319 30.7831 3.19623 30.6319 3.19623 30.4077C3.19623 29.2229 3.19363 28.0382 3.21319 26.8534C3.2184 26.5484 3.14016 26.4102 2.82197 26.3138C1.8009 26.0049 1.01064 25.3701 0.508581 24.4252C0.2895 24.0185 0.165615 23.561 0 23.1257C0 22.5079 0 21.8901 0 21.2723ZM4.67112 39.3816C4.65677 39.5771 4.6346 39.7374 4.63721 39.8964C4.67112 42.2607 5.56048 44.2406 7.40441 45.7265C9.57175 47.473 12.1029 48.2889 14.8649 48.3007C21.5834 48.3293 28.3019 48.3111 35.0203 48.3098C36.8017 48.3098 38.5048 47.9318 40.1309 47.2149C42.1913 46.3065 43.8579 44.9718 44.746 42.829C45.1998 41.7342 45.4019 40.5976 45.295 39.3829H15.2783C14.9692 41.4227 14.0212 42.4628 12.4185 42.5188C11.7482 42.5423 11.1314 42.3455 10.5941 41.9401C9.75301 41.308 9.40222 40.4295 9.40483 39.3803H4.67112V39.3816ZM24.9922 19.3172C18.0637 19.3172 11.1353 19.3172 4.20687 19.3172C2.96933 19.3172 2.04997 19.8802 1.65615 20.9099C1.2884 21.8705 1.33926 23.5193 2.23645 24.33C2.85848 24.8918 3.58354 25.056 4.39335 25.056C18.1198 25.0508 31.8476 25.0521 45.574 25.0521C45.7527 25.0521 45.9327 25.0547 46.11 25.0391C47.0346 24.9583 47.787 24.5464 48.1926 23.7109C49.0376 21.9696 48.4364 19.2794 45.6314 19.3002C38.7525 19.3524 31.8724 19.3172 24.9922 19.3172V19.3172ZM15.2326 34.7558C15.5574 34.5955 15.8116 34.4965 16.0385 34.3518C16.3254 34.168 16.5902 33.9503 16.8614 33.7431C18.644 32.3785 20.741 32.3719 22.5353 33.7262C22.7688 33.9021 22.9957 34.0885 23.233 34.2592C24.2789 35.0061 25.652 35.0113 26.6992 34.271C27.0174 34.0455 27.3173 33.7939 27.6355 33.5684C29.2434 32.4293 31.2816 32.4371 32.8752 33.5854C33.1647 33.7939 33.4424 34.0207 33.7293 34.2345C34.4192 34.7467 35.1899 34.894 36.0362 34.7741C36.7886 34.6672 37.3416 34.2149 37.8958 33.7666C38.9116 32.9454 40.0592 32.6183 41.3554 32.7747C42.1248 32.8672 42.7638 33.2217 43.3767 33.6727C44.1213 34.2201 45.2037 33.8487 45.2663 32.9832C45.3445 31.8897 45.2858 30.787 45.2858 29.6465H44.6664C40.0957 29.6465 35.525 29.6465 30.9543 29.6465C30.2658 29.6465 29.8993 29.3885 29.8954 28.9101C29.8928 28.4279 30.2423 28.1868 30.9465 28.1841C31.0599 28.1841 31.1747 28.1841 31.2881 28.1841C35.761 28.1841 40.2352 28.1841 44.7081 28.1841H45.2767V26.5627H4.70502V28.1854C5.89171 28.1854 7.04319 28.1841 8.19467 28.1854C9.91211 28.1881 10.8706 29.1487 10.8771 30.8796C10.881 32.0344 10.8771 33.1879 10.8771 34.3427C10.8771 36.0332 10.881 37.725 10.8758 39.4154C10.8732 40.0476 11.0675 40.5689 11.6491 40.8818C12.648 41.4201 13.7591 40.7045 13.7617 39.5106C13.7695 36.6327 13.763 33.7548 13.7643 30.8769C13.7643 29.1591 14.7358 28.1867 16.4519 28.1854C19.9168 28.1841 23.3817 28.1854 26.8465 28.1854C26.9769 28.1854 27.1073 28.1802 27.2364 28.192C27.6316 28.2259 27.8715 28.4474 27.9106 28.8345C27.9524 29.2503 27.7346 29.5188 27.3329 29.614C27.1621 29.6544 26.9782 29.6478 26.7996 29.6478C23.3347 29.6492 19.8699 29.6479 16.405 29.6505C15.6643 29.6505 15.247 29.9659 15.2379 30.5967C15.2157 31.9444 15.2313 33.2934 15.2313 34.761L15.2326 34.7558ZM15.2496 37.8905H15.8325C25.772 37.8905 35.7102 37.8905 45.6497 37.8905C45.8283 37.8905 46.0083 37.8905 46.1856 37.8774C47.2341 37.8019 48.1939 37.0759 48.3895 36.0449C48.5134 35.3919 48.5095 34.6789 48.3895 34.0259C48.2343 33.1839 47.6331 32.6417 46.8051 32.3146C46.7699 32.7004 46.7738 33.0132 46.7073 33.3104C46.2874 35.2055 44.0966 36.0527 42.5382 34.8458C41.3763 33.9464 39.7619 34.0481 38.7786 34.9409C38.6469 35.0608 38.4969 35.1612 38.3548 35.2694C36.5683 36.6275 34.4713 36.6314 32.6835 35.2798C32.4501 35.1038 32.2231 34.9175 31.9845 34.748C30.9334 33.9999 29.5185 34.0077 28.4753 34.7676C28.1988 34.9683 27.9367 35.1873 27.6603 35.388C25.9989 36.5975 23.9098 36.5871 22.2641 35.3619C21.9902 35.1586 21.7242 34.9435 21.4465 34.7454C20.3928 33.9986 18.9727 33.9973 17.9399 34.7741C17.1105 35.3971 16.3111 36.0644 15.2496 36.2247V37.8918V37.8905ZM9.3944 34.2214C8.59762 34.1354 8.00036 34.4313 7.42137 34.864C6.58677 35.487 5.65959 35.5874 4.71154 35.1377C3.76741 34.6894 3.25883 33.9256 3.19363 32.875C3.1845 32.7186 3.16624 32.5622 3.14407 32.3211C2.89891 32.454 2.69287 32.5362 2.51943 32.6626C1.67832 33.2765 1.43707 34.1367 1.45663 35.1403C1.49053 36.8347 2.50117 37.8827 4.1834 37.8879C5.7587 37.8931 7.33399 37.8892 8.91059 37.8879C9.06708 37.8879 9.22226 37.8748 9.3957 37.8657V34.2201L9.3944 34.2214ZM4.64504 29.6505C4.64504 30.6801 4.64895 31.6499 4.64373 32.6196C4.63982 33.1514 4.82369 33.5724 5.31923 33.8122C5.81477 34.0533 6.26206 33.9386 6.67414 33.6049C7.35225 33.0562 8.12555 32.7643 9.00057 32.7369C9.12446 32.733 9.24704 32.7017 9.39309 32.6795C9.39309 31.9275 9.42048 31.1989 9.38396 30.4755C9.35919 29.9946 8.99797 29.6622 8.51547 29.6557C7.25184 29.6374 5.98951 29.6492 4.64504 29.6492V29.6505Z" fill="#9D00DE"/>
<path d="M19.7512 6.3165C19.3417 6.96168 19.0105 7.56776 18.5841 8.09563C18.4837 8.21945 17.9881 8.18035 17.8095 8.04219C17.6334 7.90534 17.503 7.50389 17.5748 7.29535C17.7469 6.79876 18.0012 6.30868 18.3233 5.89551C18.4641 5.71434 18.8775 5.6231 19.1214 5.68175C19.3417 5.73519 19.5008 6.04801 19.7512 6.3165V6.3165Z" fill="#9D00DE"/>
<path d="M25.6913 6.88997C25.6913 7.14935 25.7135 7.41263 25.6861 7.6694C25.6431 8.06302 25.3966 8.2833 25.0028 8.29633C24.6076 8.30936 24.3181 8.10343 24.2842 7.71502C24.2373 7.18454 24.2373 6.64233 24.2842 6.11185C24.3181 5.72213 24.6129 5.51881 25.0054 5.53184C25.3979 5.54487 25.647 5.76254 25.6887 6.15877C25.7148 6.3999 25.6939 6.64624 25.6926 6.88997H25.6913Z" fill="#9D00DE"/>
<path d="M32.608 7.48146C32.3759 7.74865 32.2311 8.05755 32.0095 8.13054C31.7852 8.20353 31.3731 8.13315 31.2375 7.96762C30.8945 7.54923 30.6011 7.06307 30.4094 6.55735C30.3298 6.34751 30.4811 5.93042 30.6676 5.77532C30.8332 5.63846 31.3314 5.61891 31.4409 5.74925C31.8673 6.26018 32.1972 6.85062 32.608 7.48015V7.48146Z" fill="#9D00DE"/>
</g>
<defs>
<clipPath id="clip0_88_704">
<rect width="50" height="49.7817" fill="white"/>
</clipPath>
</defs>
</svg>
