<svg width="50" height="51" viewBox="0 0 50 51" fill="none" xmlns="http://www.w3.org/2000/svg">
<g clip-path="url(#clip0_88_721)">
<path d="M42.2002 50.4032C41.0943 49.9862 40.673 49.1588 40.7672 48.0118C40.7881 47.7513 40.758 47.4856 40.7777 47.2252C40.8156 46.7161 41.1349 46.4083 41.5864 46.4241C42.0183 46.4385 42.3088 46.7411 42.331 47.2344C42.3494 47.6277 42.3376 48.021 42.3402 48.4156C42.3415 48.6932 42.4632 48.8326 42.7577 48.8313C44.014 48.8247 45.2703 48.8221 46.5266 48.8326C46.9231 48.8366 46.9781 48.6077 46.9755 48.292C46.9715 47.3238 46.9781 46.357 46.9729 45.3888C46.9715 45.01 47.0919 44.714 47.4571 44.5575C47.94 44.3509 48.5066 44.6601 48.5223 45.2178C48.5563 46.4135 48.5655 47.6132 48.4988 48.8063C48.4516 49.6521 47.8392 50.1125 47.0985 50.4032H42.2002V50.4032Z" fill="#9D00DE"/>
<path d="M2.7234 50.4032C1.64376 49.956 1.23938 49.1417 1.32445 47.9868C1.38726 47.1383 1.3323 46.282 1.33884 45.4296C1.34277 44.839 1.63198 44.4983 2.11095 44.4969C2.58469 44.4969 2.89615 44.8469 2.90269 45.4243C2.91185 46.3754 2.91839 47.3264 2.90007 48.2775C2.89222 48.6682 3.00346 48.8418 3.42485 48.8339C4.61573 48.8129 5.80661 48.8142 6.99749 48.8339C7.40841 48.8405 7.55498 48.68 7.53011 48.2801C7.50787 47.921 7.5131 47.5579 7.53011 47.1988C7.55367 46.7319 7.88084 46.4201 8.31138 46.4227C8.74063 46.4254 9.06648 46.7371 9.08349 47.208C9.10182 47.6987 9.11621 48.1946 9.07826 48.6826C9.00628 49.5955 8.43309 50.1072 7.62303 50.4032H2.7234V50.4032Z" fill="#9D00DE"/>
<path d="M3.90386 24.456C3.0951 24.2692 2.35178 24.0956 1.60847 23.9245C0.454227 23.6601 -0.0417554 22.959 0.00273908 21.6515C0.0380729 20.6136 0.642674 19.9506 1.70923 19.7691C2.46433 19.6402 3.21812 19.4968 3.97452 19.3745C4.97827 19.2114 5.54623 19.4968 6.02912 20.3821C6.05791 20.4347 6.09194 20.486 6.15868 20.5952C6.25683 20.3913 6.33666 20.24 6.4034 20.0822C6.92032 18.8615 7.42677 17.6355 7.95024 16.4174C8.96837 14.0483 10.756 12.7395 13.3027 12.3725C17.561 11.7568 21.8377 11.4859 26.1367 11.5451C29.8611 11.5964 33.5738 11.8371 37.2446 12.4895C39.383 12.8697 40.918 14.1299 41.8223 16.1096C42.4871 17.5671 43.0838 19.0575 43.7094 20.5321C43.7539 20.5202 43.801 20.5229 43.8128 20.5044C44.4998 19.3784 44.9408 19.1798 46.2364 19.4113C46.9261 19.535 47.617 19.6534 48.3067 19.7783C49.2725 19.9533 49.864 20.6255 49.9151 21.6015C49.9805 22.8327 49.5094 23.6062 48.503 23.8877C48.0947 24.0022 47.6786 24.0837 47.265 24.1784C46.8711 24.2679 46.4772 24.356 46.0205 24.4586C46.3071 24.9059 46.557 25.3242 46.8358 25.7214C48.062 27.4709 48.6025 29.4125 48.575 31.5501C48.5397 34.2901 48.5697 37.0301 48.5658 39.7702C48.5606 43.214 46.489 45.3897 43.0537 45.5607C42.809 45.5725 42.5643 45.5738 42.3196 45.5738C30.7458 45.5738 19.1733 45.5738 7.59951 45.5765C6.25552 45.5765 4.96125 45.3805 3.79655 44.6649C2.2026 43.6836 1.41348 42.1879 1.38207 40.3582C1.32449 37.0946 1.33234 33.8284 1.38207 30.5635C1.40693 28.9074 1.98274 27.3894 2.90273 26.0082C3.23644 25.5083 3.55444 24.9992 3.90517 24.456H3.90386ZM46.9339 39.1348H46.2652C32.6486 39.1348 19.0333 39.1348 5.41667 39.1335C5.18896 39.1335 4.95602 39.1388 4.73486 39.0941C4.32394 39.0099 4.12109 38.7126 4.1368 38.3114C4.15119 37.9338 4.36058 37.6576 4.75449 37.5931C4.97827 37.5576 5.2099 37.5616 5.43761 37.5616C19.0542 37.5616 32.6695 37.5616 46.2861 37.5616H46.9981V36.9657C46.9981 35.2596 46.9509 33.5508 47.0098 31.846C47.0792 29.815 46.5649 27.9945 45.3727 26.3528C43.5667 23.8653 42.1076 21.1858 41.0476 18.2906C40.8617 17.7841 40.6484 17.2856 40.4194 16.7962C39.6879 15.2269 38.4708 14.218 36.7669 14.001C34.1627 13.6695 31.548 13.3656 28.9294 13.2183C23.8989 12.9355 18.8828 13.1854 13.885 13.8694C12.2348 14.0957 10.7115 14.6008 9.9093 16.1162C8.988 17.8578 8.31012 19.7296 7.52754 21.5463C7.5223 21.5568 7.53801 21.5765 7.56549 21.6449H8.11251C18.8553 21.6449 29.5981 21.6449 40.3409 21.6449C40.5202 21.6449 40.7021 21.6318 40.8788 21.6554C41.2635 21.708 41.503 21.9396 41.5488 22.3276C41.5972 22.7367 41.4127 23.034 41.0214 23.1616C40.8552 23.2155 40.6681 23.2168 40.4914 23.2168C38.9563 23.2208 37.4226 23.2195 35.8875 23.2195C26.3042 23.2195 16.7209 23.2221 7.13756 23.209C6.72533 23.209 6.49631 23.3339 6.28169 23.6799C5.60773 24.7638 4.90106 25.8293 4.197 26.8948C3.44059 28.0418 2.96162 29.2994 2.94592 30.6714C2.90927 33.8705 2.90535 37.0722 2.9433 40.2714C2.96424 42.0801 4.04388 43.3823 5.79225 43.798C6.3576 43.9322 6.95434 43.9914 7.5367 43.9914C19.1615 44.0019 30.7851 43.9993 42.4099 43.9993C42.6062 43.9993 42.8025 44.0006 42.9975 43.9888C45.9341 43.798 47.2977 41.8946 46.9392 39.1361L46.9339 39.1348ZM48.3381 21.8225C48.3957 21.5107 48.2583 21.3542 47.9311 21.3042C47.1773 21.1885 46.4288 21.0372 45.6737 20.928C45.5559 20.9109 45.3557 21.0056 45.3007 21.1069C45.1005 21.4792 44.9291 21.8685 44.7812 22.2658C44.6438 22.6367 45.0194 23.0577 45.3963 22.9748C46.2364 22.7893 47.074 22.592 47.9154 22.4131C48.2439 22.3434 48.4062 22.1803 48.3381 21.8225V21.8225ZM4.42339 20.8925C3.58323 21.0346 2.83075 21.1687 2.07697 21.2871C1.75111 21.3384 1.5535 21.4423 1.55612 21.8409C1.55874 22.2211 1.72363 22.3566 2.05603 22.425C2.86609 22.5946 3.67091 22.792 4.48228 22.9564C4.62624 22.9853 4.87357 22.9564 4.93116 22.8656C5.04632 22.6828 5.15101 22.4157 5.1039 22.2224C5.01098 21.8475 4.81861 21.4963 4.64718 21.145C4.59221 21.0319 4.47574 20.9504 4.42339 20.8925V20.8925Z" fill="#9D00DE"/>
<path d="M33.2556 9.00015C33.1391 8.88965 32.8656 8.7147 32.7138 8.46477C32.5293 8.16353 32.4403 7.80179 32.3225 7.46241C32.0045 6.55214 31.3855 5.94572 30.4904 5.61687C30.1698 5.49848 29.8479 5.38272 29.5299 5.25644C29.1818 5.117 28.9645 4.87365 28.9724 4.47639C28.9802 4.10149 29.1805 3.83052 29.5233 3.74764C31.2285 3.33855 32.2741 2.28621 32.6916 0.578781C32.7819 0.209146 33.0606 -0.00395346 33.448 -7.17669e-06C33.8354 0.0039391 34.0775 0.230193 34.2031 0.59062C34.2083 0.606405 34.2201 0.619559 34.2227 0.635344C34.6009 2.30067 35.6191 3.32145 37.2706 3.72265C37.6501 3.81473 37.8948 4.06992 37.9001 4.49481C37.9053 4.91969 37.6553 5.14989 37.2902 5.28801C37.2287 5.31169 37.1698 5.34194 37.107 5.35641C35.5719 5.71815 34.6572 6.69683 34.2685 8.21352C34.1612 8.63577 33.9505 8.97515 33.2543 9.00146L33.2556 9.00015ZM33.4545 3.27804C33.079 3.64504 32.562 4.15017 32.2401 4.46587C32.6131 4.83813 33.1274 5.35115 33.4297 5.65238C33.7581 5.32879 34.2842 4.81183 34.6284 4.47113C34.296 4.13306 33.7961 3.62399 33.4558 3.27804H33.4545Z" fill="#9D00DE"/>
<path d="M45.0847 9.38425C44.8374 9.67759 44.6843 9.92357 44.4697 10.0919C44.2982 10.2261 44.0561 10.2787 43.8376 10.3445C43.038 10.5892 42.5329 11.1153 42.2973 11.9178C42.2371 12.1217 42.1991 12.3663 42.0617 12.5031C41.8602 12.7057 41.5828 12.9451 41.3315 12.9517C41.1051 12.9583 40.7177 12.7149 40.6641 12.511C40.3225 11.2087 39.5321 10.4261 38.2431 10.0748C38.0428 10.0209 37.8073 9.6276 37.8151 9.40003C37.8243 9.14879 38.0926 8.90412 38.2562 8.66208C38.2784 8.62788 38.3425 8.61867 38.3896 8.60683C39.5661 8.32796 40.2911 7.60447 40.5777 6.41796C40.6693 6.03912 40.9284 5.78918 41.3511 5.78918C41.7712 5.78918 42.0015 6.03649 42.1324 6.41138C42.2083 6.62711 42.3038 6.83626 42.3771 7.05331C42.5983 7.70313 43.0328 8.13328 43.6753 8.35953C43.937 8.45161 44.2236 8.51475 44.4422 8.67129C44.6725 8.83571 44.8348 9.09748 45.0847 9.38162V9.38425ZM41.3171 10.1301C41.5828 9.85649 41.8484 9.58419 42.0578 9.36978C41.8353 9.15273 41.5631 8.8857 41.3865 8.71338C41.1365 8.91464 40.8381 9.15405 40.5738 9.36715C40.8421 9.64207 41.1012 9.90779 41.3184 10.1301H41.3171Z" fill="#9D00DE"/>
<path d="M49.9998 4.4514C49.7407 4.77105 49.5889 5.01309 49.3821 5.19199C49.2421 5.31301 49.0301 5.35905 48.8429 5.41298C47.9714 5.66554 47.4217 6.21934 47.1626 7.10068C47.0265 7.56371 46.893 8.09119 46.2453 8.08725C45.5975 8.0833 45.4771 7.55581 45.337 7.09147C45.074 6.21408 44.5178 5.66028 43.6476 5.40904C43.4918 5.36431 43.3413 5.29722 43.1908 5.2354C42.8532 5.09728 42.6726 4.84998 42.6778 4.47771C42.6844 4.1015 42.8951 3.87393 43.2262 3.74239C43.4526 3.65163 43.6816 3.56612 43.9132 3.48457C44.5728 3.25305 45.0164 2.80975 45.2428 2.14283C45.3318 1.87974 45.3881 1.58114 45.553 1.37331C45.7192 1.16415 46.0058 0.916852 46.2309 0.924745C46.4821 0.932637 46.7268 1.20756 46.9689 1.37331C47.0017 1.39567 47.0082 1.46144 47.02 1.50879C47.2961 2.71767 48.0551 3.41748 49.2342 3.74765C49.5051 3.82395 49.7014 4.16464 50.0011 4.44877L49.9998 4.4514ZM46.2426 5.27881C46.5096 5.01704 46.7857 4.74606 46.9886 4.54743C46.7255 4.27645 46.4573 4.00284 46.2557 3.79501C46.0346 4.02389 45.7676 4.29882 45.5451 4.52901C45.7545 4.75264 46.0084 5.02493 46.2439 5.27749L46.2426 5.27881Z" fill="#9D00DE"/>
<path d="M24.9627 35.264C21.7918 35.089 19.431 34.9509 17.0702 34.8338C16.535 34.8075 16.2039 34.5826 15.9814 34.088C15.3912 32.7752 14.7656 31.4782 14.1597 30.1733C13.758 29.3077 14.1048 28.7855 15.0562 28.85C17.4798 29.0131 19.9034 29.188 22.3271 29.3643C25.07 29.5642 27.8038 29.3774 30.5389 29.1841C31.9706 29.0828 33.3997 28.9526 34.8313 28.8513C35.8364 28.7802 36.1793 29.3025 35.7487 30.2272C35.1336 31.5466 34.5081 32.8607 33.8983 34.1827C33.7334 34.5405 33.4952 34.7825 33.0947 34.8062C30.1162 34.9772 27.1377 35.1416 24.964 35.264H24.9627ZM16.0285 30.4692C16.4721 31.419 16.8438 32.2372 17.2416 33.0409C17.2966 33.1514 17.4798 33.254 17.6107 33.2619C19.8079 33.404 22.0065 33.6407 24.2037 33.6315C26.9231 33.6197 29.6425 33.4026 32.3619 33.2658C32.4679 33.2606 32.621 33.179 32.6642 33.0896C33.0712 32.2556 33.4599 31.4124 33.9022 30.4666C27.9164 31.1783 22.0261 31.1651 16.0298 30.4692H16.0285Z" fill="#9D00DE"/>
<path d="M42.6718 28.0195C42.7372 28.0142 42.8027 28.0116 42.8668 28.001C44.432 27.7669 45.0379 28.5285 45.191 29.8361C45.263 30.4504 45.1857 31.1265 45.0012 31.7184C44.6989 32.6905 43.9072 33.1286 42.9244 33.2627C40.8724 33.5442 38.823 33.8415 36.7724 34.1309C36.5944 34.1559 36.4164 34.1822 36.2371 34.1888C35.588 34.2112 35.1522 33.6337 35.4689 33.072C36.2384 31.7053 37.0655 30.3701 37.8782 29.0271C38.3467 28.2523 39.1725 28.3588 39.8935 28.2628C40.8148 28.1392 41.744 28.0813 42.6692 27.9945C42.6692 28.0024 42.6705 28.0102 42.6718 28.0181V28.0195ZM37.568 32.3525C37.746 32.3709 37.7944 32.3867 37.8402 32.3801C39.5336 32.1433 41.231 31.9184 42.9191 31.6474C43.1495 31.6106 43.4688 31.3764 43.5277 31.1699C43.6441 30.7595 43.6337 30.303 43.6206 29.8676C43.6167 29.7598 43.3955 29.5598 43.2856 29.5677C42.0018 29.6545 40.7193 29.7703 39.4368 29.8913C39.3059 29.9031 39.1332 29.9702 39.0651 30.0715C38.5705 30.7976 38.098 31.5395 37.5693 32.3525H37.568Z" fill="#9D00DE"/>
<path d="M7.26435 27.9844C8.43168 28.108 9.59769 28.2501 10.7676 28.3461C11.3539 28.3935 11.8106 28.625 12.109 29.1157C12.8994 30.414 13.6938 31.711 14.4332 33.0396C14.7852 33.6723 14.318 34.2629 13.5656 34.1682C12.0122 33.9735 10.464 33.742 8.91457 33.525C8.28511 33.4368 7.65564 33.3434 7.02487 33.2619C5.72799 33.0948 4.95849 32.4332 4.76219 31.1348C4.6719 30.5363 4.71116 29.8865 4.84464 29.2932C5.06319 28.3185 5.68611 27.9239 6.67545 27.9726C6.87045 27.9818 7.06544 28.0028 7.26043 28.0186C7.26043 28.0068 7.26304 27.9949 7.26435 27.9831V27.9844ZM12.3707 32.4213C11.9075 31.6794 11.5057 31.0849 11.155 30.4613C10.8998 30.0088 10.536 29.851 10.0453 29.8234C9.05329 29.7681 8.06133 29.6813 7.07067 29.6024C6.29856 29.5419 6.23444 29.6011 6.24491 30.4074C6.24491 30.5061 6.24752 30.6047 6.25799 30.7021C6.32997 31.3769 6.56553 31.6084 7.24211 31.6978C7.84016 31.7768 8.4356 31.8688 9.03235 31.953C10.0937 32.103 11.1563 32.2503 12.3721 32.4213H12.3707Z" fill="#9D00DE"/>
</g>
<defs>
<clipPath id="clip0_88_721">
<rect width="50" height="50.4032" fill="white"/>
</clipPath>
</defs>
</svg>
