<svg width="50" height="50" viewBox="0 0 50 50" fill="none" xmlns="http://www.w3.org/2000/svg">
<g clip-path="url(#clip0_88_788)">
<path d="M14.1342 13.9498C9.86144 13.6038 5.73414 12.7264 1.74306 11.2802C1.70206 11.3425 1.67165 11.3677 1.67165 11.3929C1.71132 16.3131 1.99432 21.2081 3.24401 25.9945C3.61561 27.4207 4.10756 28.8058 4.94994 30.0359C5.68786 31.1148 6.63472 31.6808 8.01665 31.6676C13.313 31.6172 18.6093 31.6477 23.9069 31.6477C24.0723 31.6477 24.2376 31.6384 24.4015 31.653C24.8869 31.6967 25.2175 32.04 25.2188 32.4854C25.2188 32.9321 24.8869 33.2767 24.4055 33.3191C24.2574 33.3324 24.1093 33.3244 23.9598 33.3244C18.6463 33.3244 13.3328 33.2846 8.02062 33.3443C5.88755 33.3682 4.45932 32.374 3.39874 30.6589C2.21649 28.7475 1.61743 26.6201 1.16516 24.445C0.26326 20.1345 0.0397693 15.7617 9.6469e-05 11.3757C-0.0118054 10.021 1.0792 9.31323 2.37782 9.73606C4.23848 10.3431 6.11368 10.9065 8.04178 11.5056C8.18064 11.0085 8.28114 10.6321 8.3909 10.2583C9.187 7.55563 10.4155 5.09155 12.4098 3.06753C16.5265 -1.10775 22.0754 -1.00834 26.0625 3.29817C28.099 5.49715 29.3183 8.12426 30.0615 10.9979C30.0906 11.1093 30.1237 11.2179 30.1792 11.4207C31.2993 11.1278 32.4128 10.8601 33.5117 10.5406C34.3171 10.306 35.1053 10.0091 35.8987 9.73208C37.1762 9.28672 38.2685 10.0409 38.246 11.4035C38.2183 13.1227 38.1442 14.8418 38.0768 16.561C38.053 17.1601 37.7052 17.5193 37.2132 17.5074C36.7028 17.4941 36.3893 17.1005 36.4118 16.4695C36.4647 14.932 36.5282 13.3957 36.5851 11.8595C36.5917 11.6819 36.5851 11.5056 36.5851 11.2471C32.5265 12.7224 28.4072 13.6317 24.1172 13.9498C24.1172 14.1658 24.1172 14.3448 24.1172 14.5224C24.1172 16.5398 24.1199 18.5585 24.1172 20.5759C24.1132 22.7497 22.7273 24.152 20.5678 24.1653C19.5773 24.1719 18.5881 24.1786 17.5976 24.164C15.5254 24.1335 14.1408 22.7218 14.1355 20.6395C14.1316 18.6049 14.1355 16.5703 14.1355 14.5356C14.1355 14.3554 14.1355 14.1764 14.1355 13.9524L14.1342 13.9498ZM23.8765 12.2372C23.7932 11.6395 23.7258 11.0655 23.6332 10.4969C23.2656 8.23958 22.767 6.01276 21.643 3.99935C21.2409 3.27961 20.6895 2.61157 20.0891 2.04558C19.4847 1.47695 18.7971 1.50346 18.1557 2.04028C17.6836 2.43528 17.2538 2.91908 16.9219 3.43734C15.8666 5.08625 15.3257 6.94326 14.929 8.84003C14.6936 9.96271 14.5362 11.1013 14.3445 12.228C15.9089 12.5673 22.3081 12.5686 23.8779 12.2359L23.8765 12.2372ZM15.8137 14.1645C15.8137 16.4258 15.7925 18.7189 15.8256 21.012C15.8375 21.8218 16.5595 22.466 17.4125 22.4872C18.5485 22.5164 19.6871 22.5164 20.823 22.4872C21.754 22.4634 22.4377 21.7556 22.443 20.8264C22.4562 18.646 22.447 16.4656 22.4443 14.2851C22.4443 14.2242 22.4219 14.1632 22.4219 14.1632C21.3031 14.1632 20.2187 14.1632 19.1356 14.1632C18.0526 14.1632 16.9655 14.1632 15.815 14.1632L15.8137 14.1645ZM28.4997 11.7163C27.7856 8.0845 25.0469 3.72763 23.0222 2.988C24.5391 5.85636 25.1328 8.95269 25.5481 12.1418C26.5571 11.996 27.5119 11.8595 28.4997 11.7163V11.7163ZM15.1604 2.98403C12.1135 5.09685 10.6179 8.17596 9.71862 11.715C10.7594 11.8608 11.7142 11.9947 12.7047 12.1339C13.1146 8.93679 13.7137 5.85238 15.1604 2.98403V2.98403Z" fill="#9D00DE"/>
<path d="M38.9761 34.0786C37.2635 35.5472 35.7969 37.1577 34.6359 39.0186C33.2738 41.203 31.9831 43.4338 30.6567 45.6421C30.4107 46.053 30.1422 46.4493 29.887 46.8549C28.5183 49.03 26.5479 50.0255 23.9877 50.0003C20.1606 49.9619 16.3321 49.9778 12.505 49.9976C11.0768 50.0056 9.67239 49.8876 8.29574 49.5019C7.94662 49.4038 7.59882 49.2978 7.26028 49.1705C5.78445 48.6152 5.07298 47.2327 5.47368 45.7031C5.8109 44.4187 6.58187 43.3901 7.44277 42.4212C9.16986 40.4753 11.2487 39.0756 13.7679 38.3652C14.4702 38.1677 15.0904 38.2432 15.7437 38.6396C17.2816 39.5753 18.9439 40.0353 20.7557 39.5873C22.168 39.2387 23.2471 38.3851 24.0802 37.2319C25.9753 34.6074 27.8082 31.9379 29.7191 29.3254C33.3875 24.311 37.4288 19.6294 42.1221 15.5376C43.4935 14.3421 44.9878 14.4454 46.1132 15.8637C47.8059 17.9964 48.6972 20.4618 48.9683 23.142C49.1006 24.4529 49.1469 25.7903 49.0411 27.0999C48.9564 28.139 48.5914 29.157 48.3336 30.1803C47.8178 32.2282 47.2386 34.2628 46.7903 36.3252C46.5814 37.2836 46.5642 38.2949 46.5536 39.2837C46.5245 42.1773 46.5443 45.0721 46.543 47.967C46.543 49.3839 45.9373 49.9884 44.5263 49.9897C43.9325 49.9897 43.3388 49.9897 42.745 49.9897C41.3379 49.9897 40.7494 49.3853 40.7389 47.959C40.719 45.3306 40.7521 42.6982 40.6436 40.0724C40.5577 37.9914 39.9348 36.0191 38.9774 34.0786H38.9761ZM17.8423 48.3222C17.8423 48.3222 17.8423 48.3156 17.8423 48.3116C20.0032 48.3116 22.164 48.309 24.3249 48.3116C25.9568 48.3143 27.2699 47.6913 28.2155 46.3393C28.4429 46.0146 28.6796 45.6951 28.8807 45.3545C29.7442 43.8898 30.5919 42.4145 31.4554 40.9512C33.0027 38.3267 34.6676 35.7924 36.9104 33.6889C39.8542 30.9279 43.1827 28.762 46.8763 27.1595C47.2756 26.9859 47.4806 26.7884 47.4568 26.3337C47.4145 25.5093 47.4594 24.6795 47.3894 23.8577C47.1764 21.3579 46.4584 19.0316 44.9085 17.0169C44.2816 16.2017 43.9338 16.1765 43.1695 16.8419C38.6243 20.7972 34.7152 25.3317 31.1592 30.1803C29.1676 32.8962 27.266 35.6797 25.2744 38.397C24.1993 39.863 22.771 40.8849 20.9593 41.264C18.8527 41.7054 16.8995 41.211 15.0679 40.1705C14.6672 39.9425 14.3022 39.8683 13.9121 40.0525C12.9176 40.5217 11.8782 40.93 10.9631 41.5278C9.39865 42.5511 8.10928 43.8805 7.27747 45.5877C6.72205 46.7277 7.0077 47.34 8.20846 47.735C9.42509 48.1353 10.6708 48.3289 11.9523 48.3249C13.9147 48.3182 15.8785 48.3236 17.841 48.3236L17.8423 48.3222ZM44.8939 48.2984C44.8939 48.0651 44.8939 47.8848 44.8939 47.7059C44.8939 45.491 44.9508 43.2748 44.8807 41.0612C44.7842 38.0073 45.1465 35.0342 46.0828 32.1235C46.4094 31.1081 46.6448 30.065 46.945 28.9449C44.5263 30.0756 42.3456 31.4011 40.3078 32.9837C40.3778 33.1428 40.4268 33.2634 40.485 33.3813C41.6527 35.7553 42.3165 38.2631 42.3654 40.9114C42.4064 43.1754 42.384 45.4406 42.3893 47.7046C42.3893 47.8981 42.3893 48.0903 42.3893 48.297H44.8926L44.8939 48.2984Z" fill="#9D00DE"/>
<path d="M8.7096 29.9971C8.51124 29.9971 8.31023 29.9746 8.11583 30.0011C7.17559 30.1323 6.55008 29.6737 6.15467 28.8916C5.78439 28.1586 5.46833 27.3938 5.17475 26.6251C4.98036 26.1147 5.22765 25.6482 5.68785 25.509C6.1388 25.3738 6.53289 25.6044 6.73522 26.0949C6.98516 26.7033 7.24964 27.3064 7.51281 27.9108C7.65298 28.2315 7.88176 28.3654 8.25072 28.3429C8.79292 28.3084 9.33908 28.323 9.8826 28.3389C10.4579 28.3561 10.7977 28.6729 10.8017 29.1607C10.8057 29.6498 10.4631 29.9666 9.89714 29.9958C9.86408 29.9971 9.83102 29.9971 9.79796 29.9971C9.43561 29.9971 9.07195 29.9971 8.7096 29.9971V29.9971Z" fill="#9D00DE"/>
<path d="M19.1102 18.3378C19.4064 18.3378 19.7039 18.3219 20.0002 18.3404C20.4418 18.3683 20.7434 18.6758 20.7711 19.0946C20.8002 19.5214 20.5556 19.9164 20.1231 19.9496C19.454 20.0013 18.7743 20.0013 18.1051 19.943C17.6727 19.9058 17.436 19.5055 17.4836 19.0734C17.5312 18.636 17.7904 18.3842 18.2215 18.3431C18.5151 18.3153 18.8139 18.3378 19.1115 18.3365L19.1102 18.3378Z" fill="#9D00DE"/>
<path d="M10.0955 46.5992C9.85874 46.4136 9.54532 46.2811 9.44217 46.0531C9.3377 45.8251 9.33373 45.4222 9.47127 45.2326C10.512 43.813 11.8331 42.7182 13.4544 42.013C13.863 41.8354 14.318 42.0461 14.4938 42.4292C14.6697 42.8123 14.5494 43.3067 14.1487 43.4962C12.7972 44.1364 11.6969 45.0762 10.7448 46.2175C10.6099 46.3778 10.3639 46.4454 10.0955 46.5979V46.5992Z" fill="#9D00DE"/>
</g>
<defs>
<clipPath id="clip0_88_788">
<rect width="49.0991" height="50" fill="white"/>
</clipPath>
</defs>
</svg>
