<svg width="50" height="41" viewBox="0 0 50 41" fill="none" xmlns="http://www.w3.org/2000/svg">
<g clip-path="url(#clip0_88_732)">
<path d="M0 36.3863C0.650063 34.8979 1.30404 33.4122 1.95019 31.9226C2.42925 30.8184 2.92006 29.7182 3.36649 28.601C3.79203 27.5347 4.31809 26.5625 5.45243 25.9993C4.43948 24.9736 4.38335 23.727 4.38727 22.4321C4.40685 16.288 4.39641 10.1439 4.39641 3.9998C4.39771 1.51707 5.90539 0 8.3738 0C19.4614 0 30.5477 0 41.6353 0C44.1142 0 45.631 1.51054 45.631 3.97889C45.631 10.221 45.6206 16.4631 45.6414 22.7052C45.6454 23.9165 45.4966 25.0441 44.5645 26.0046C45.8281 26.586 46.2928 27.7189 46.7719 28.8545C47.7626 31.2078 48.7599 33.5599 49.7911 35.8962C50.0561 36.4947 50.0522 37.054 49.8799 37.6485C49.4309 39.1891 48.0511 40.2528 46.4468 40.2959C46.251 40.3011 46.0565 40.2985 45.8607 40.2985C32.0711 40.2985 18.2814 40.2985 4.4917 40.2985C1.81835 40.2985 0.892857 39.653 0 37.169C0 36.9076 0 36.6476 0 36.3863ZM25.0052 25.6269C30.5738 25.6269 36.1424 25.6269 41.711 25.6269C43.2775 25.6269 44.1638 24.741 44.1638 23.1756C44.1638 16.7532 44.1638 10.332 44.1638 3.90963C44.1638 2.34813 43.2749 1.46873 41.7019 1.46873C30.5817 1.46873 19.4601 1.46873 8.33986 1.46873C6.73559 1.46873 5.86362 2.3416 5.86362 3.94361C5.86362 10.3334 5.86362 16.7218 5.86362 23.1115C5.86362 24.7737 6.72384 25.6269 8.3986 25.6269C13.9346 25.6269 19.4706 25.6269 25.0065 25.6269H25.0052ZM1.8549 35.8793H48.1412C48.1138 35.7839 48.0994 35.7068 48.0694 35.6362C47.046 33.2423 46.0317 30.8446 44.9914 28.4585C44.5763 27.5046 43.8035 27.0904 42.771 27.0917C30.9328 27.0957 19.0959 27.0957 7.25773 27.0917C6.15732 27.0917 5.40283 27.5726 4.97337 28.5879C4.28806 30.2056 3.59231 31.8194 2.90048 33.4344C2.55717 34.2381 2.21256 35.0404 1.85359 35.8793H1.8549ZM19.8582 37.4042H1.65518C1.98282 38.3345 2.74906 38.8298 3.84164 38.8298C9.0343 38.8324 14.2283 38.8298 19.4209 38.8298C19.5632 38.8298 19.7055 38.8141 19.8582 38.8063V37.4042ZM48.3474 37.4042H30.177V38.8324H30.6391C35.8161 38.8324 40.9931 38.8324 46.1701 38.8324C46.3006 38.8324 46.4312 38.8324 46.5604 38.8206C47.4272 38.7383 48.1582 38.1608 48.3474 37.4042V37.4042ZM28.6354 38.8167V37.395H21.3933V38.8167H28.6354Z" fill="#9D00DE"/>
<path d="M6.9235 31.4953C7.52396 31.4953 8.05915 31.4901 8.59435 31.4966C9.12693 31.5031 9.45718 31.7775 9.46893 32.2101C9.48068 32.6596 9.13737 32.9575 8.58129 32.9601C7.70279 32.9653 6.82299 32.9693 5.94449 32.9601C5.21872 32.9523 4.91066 32.4871 5.1887 31.8168C5.54375 30.9596 5.93144 30.1167 6.27213 29.2556C6.47577 28.7434 6.8008 28.5526 7.35427 28.5526C14.159 28.567 20.9638 28.5618 27.7699 28.5618C32.7185 28.5618 37.6683 28.5709 42.6169 28.55C43.2369 28.5474 43.5737 28.7695 43.7904 29.3393C44.1011 30.1599 44.4796 30.9543 44.8203 31.7645C45.1271 32.4949 44.8269 32.9601 44.0397 32.9601C33.3111 32.9627 22.5824 32.9627 11.8538 32.9601C11.2794 32.9601 10.9492 32.6909 10.9427 32.2375C10.9361 31.7579 11.2821 31.494 11.9321 31.494C22.1073 31.494 32.2825 31.494 42.4577 31.494H43.1038C42.9093 31.0353 42.7448 30.6146 42.5503 30.2095C42.5086 30.122 42.3637 30.0645 42.2553 30.0344C42.1496 30.0044 42.0295 30.0279 41.9146 30.0279C30.6482 30.0279 19.383 30.0305 8.11659 30.0161C7.66755 30.0161 7.43259 30.1311 7.31119 30.561C7.22504 30.8668 7.0684 31.1529 6.9235 31.4953V31.4953Z" fill="#9D00DE"/>
</g>
<defs>
<clipPath id="clip0_88_732">
<rect width="50" height="40.2985" fill="white"/>
</clipPath>
</defs>
</svg>
