<?xml version="1.0" encoding="UTF-8"?>
<svg version="1.1" xmlns="http://www.w3.org/2000/svg" width="512" height="512">
<path d="M0 0 C5.81506957 3.41424209 11.63504812 8.38390162 15.515625 13.890625 C17.98851123 17.22782098 19.98475094 19.23413945 24.20800781 19.96777344 C28.93260962 20.39232264 33.62665192 20.44629183 38.3671875 20.4296875 C46.03506178 20.45476363 54.0643679 21.16691305 59.875 26.5625 C62.86493098 31.1421478 63.96713461 35.97712576 64.96289062 41.30029297 C66.74220819 50.25801847 70.01561704 54.5558373 76.7109375 60.58203125 C89.03187839 71.76490825 96.64931242 88.2651636 101.72753906 103.78613281 C102.9779581 107.47274242 104.09581361 110.36741351 106.875 113.125 C111.46134636 117.68752118 113.02525903 124.18346219 115.05126953 130.17626953 C115.92818881 132.71658044 116.86515102 135.22978058 117.80859375 137.74609375 C122.19736892 149.71835807 126.30866955 161.65065894 120.875 174.0625 C117.36993127 180.02012391 112.77436082 184.37169109 106.375 187 C105.55 187.185625 104.725 187.37125 103.875 187.5625 C103.80023438 188.11035156 103.72546875 188.65820312 103.6484375 189.22265625 C101.33567531 203.16725178 94.63728926 218.47065951 85.875 229.5625 C87.43347656 230.28953125 87.43347656 230.28953125 89.0234375 231.03125 C105.72778161 238.9832159 118.20065846 248.83024196 124.9453125 266.76171875 C127.90652528 275.68268331 130.29211557 286.13870016 126.1875 295.0625 C123.6181765 299.45403876 120.04377041 301.78331972 115.875 304.5625 C116.44943848 305.11075439 117.02387695 305.65900879 117.61572266 306.22387695 C120.25744538 308.7604737 122.87860491 311.31740799 125.5 313.875 C126.40363281 314.73673828 127.30726563 315.59847656 128.23828125 316.48632812 C138.12685769 326.19445609 143.37913602 335.55034365 143.875 349.5625 C143.27237355 360.7919294 138.2233679 371.03721063 129.875 378.5625 C120.44246679 385.30755168 109.96743945 387.66833723 98.5625 386.28125 C88.83153602 384.52427039 82.09754438 379.21712525 75.0390625 372.55078125 C72.84002545 370.42762424 72.84002545 370.42762424 69.875 368.5625 C70.10383629 369.82037827 70.10383629 369.82037827 70.33729553 371.10366821 C71.77511766 379.01729923 73.20325962 386.93260329 74.62062931 394.84992409 C75.34960534 398.91997477 76.08227118 402.98928783 76.82348633 407.05712891 C77.53902374 410.98482799 78.24471543 414.9141815 78.94369316 418.84486008 C79.21171577 420.34214357 79.48324514 421.83880381 79.75837898 423.33479691 C80.14395313 425.43469507 80.51685511 427.53648884 80.88696289 429.63916016 C81.10236221 430.83384918 81.31776154 432.02853821 81.53968811 433.25942993 C81.94672641 437.26905815 81.91822178 440.8817538 79.75 444.375 C76.7732551 446.26027177 74.37172962 446.50221156 70.875 446.5625 C68.0625 445.25 68.0625 445.25 65.875 442.5625 C64.12894198 437.24247947 63.84290427 432.12607935 63.875 426.5625 C62.68422852 426.77455078 61.49345703 426.98660156 60.26660156 427.20507812 C55.84663663 427.99124638 51.42588528 428.77291193 47.00488281 429.55322266 C45.09190484 429.89151293 43.17914204 430.23102235 41.26660156 430.57177734 C38.51683379 431.06148157 35.7663209 431.54678989 33.015625 432.03125 C31.73416595 432.26092468 31.73416595 432.26092468 30.42681885 432.49523926 C29.62629089 432.63538452 28.82576294 432.77552979 28.00097656 432.91992188 C26.94840668 433.10645325 26.94840668 433.10645325 25.87457275 433.29675293 C23.875 433.5625 23.875 433.5625 19.875 433.5625 C20.31984741 435.26768799 20.31984741 435.26768799 20.77368164 437.00732422 C21.88491523 441.45677653 22.71470139 445.92805109 23.49609375 450.4453125 C23.79453276 452.12376715 24.09337283 453.80215053 24.39257812 455.48046875 C24.8552013 458.09093254 25.31497661 460.701786 25.76782227 463.31396484 C26.21050232 465.85931552 26.66489909 468.40235408 27.12109375 470.9453125 C27.25245224 471.72045197 27.38381073 472.49559143 27.51914978 473.29421997 C28.63348726 479.42696504 30.30587832 484.75367975 35.3125 488.8125 C35.88871094 489.29203125 36.46492187 489.7715625 37.05859375 490.265625 C42.94900706 494.47125343 48.80255337 494.39057619 55.875 493.5625 C61.86127085 491.28828093 66.15660325 487.10552165 68.94921875 481.34765625 C70.41965516 476.92393826 70.28044446 472.4689044 70.43359375 467.83984375 C70.89807029 464.39120817 71.39396797 462.9569844 73.875 460.5625 C77.30390226 459.68968851 79.76759577 459.23327171 83.1875 460.25 C85.32770039 461.9146003 85.89786735 463.01363909 86.875 465.5625 C87.1213129 468.15737779 87.25605583 470.59378922 87.25 473.1875 C87.24838867 473.8995459 87.24677734 474.6115918 87.24511719 475.34521484 C86.9892263 486.41625886 81.782106 495.24923368 73.94140625 502.88671875 C64.14158907 510.8340185 52.97743864 511.57693995 40.875 510.5625 C30.65584634 508.52112875 22.82445705 502.85422468 17 494.3125 C11.09380861 485.12509117 10.02359981 473.48909948 8.24195862 462.90892792 C7.83483234 460.49397813 7.42026744 458.08040591 7.00378418 455.66705322 C5.82243772 448.8139708 4.65415168 441.95868403 3.49072266 435.10253906 C2.77486001 430.88700905 2.05052221 426.67300347 1.32118225 422.45978546 C1.04677612 420.86406126 0.77567326 419.26776514 0.50804138 417.67089081 C0.1337053 415.4376878 -0.25135036 413.20656809 -0.63867188 410.97558594 C-0.96152161 409.07676666 -0.96152161 409.07676666 -1.29089355 407.1395874 C-2.20083586 403.23727592 -3.31850539 400.13525687 -5.125 396.5625 C-7.91018155 394.7449603 -7.91018155 394.7449603 -11.125 394.5625 C-14.19961228 395.93214162 -15.77326824 396.77464771 -17.16419983 399.89022827 C-17.35759445 400.81767853 -17.55098907 401.74512878 -17.75024414 402.70068359 C-17.9802713 403.77582214 -18.21029846 404.85096069 -18.44729614 405.9586792 C-18.67093842 407.14794006 -18.89458069 408.33720093 -19.125 409.5625 C-19.36451385 410.82507629 -19.60402771 412.08765259 -19.85079956 413.38848877 C-20.50598515 416.93570595 -21.12178879 420.48894315 -21.72747612 424.04491043 C-22.13111482 426.41028733 -22.54156913 428.774394 -22.95387268 431.13827515 C-24.12375498 437.84992872 -25.28530737 444.56297873 -26.43383789 451.27832031 C-27.14116476 455.41111355 -27.85925608 459.54192015 -28.58394051 463.67170334 C-28.85546734 465.23132114 -29.1229976 466.79164082 -29.38622856 468.35268021 C-31.79633175 482.63448768 -34.75596692 495.34744525 -46.9375 504.375 C-56.7982072 510.7640381 -66.55195029 511.85572235 -78.125 510.5625 C-87.27758971 508.32034548 -95.21252011 502.85318034 -101.125 495.5625 C-111.26883823 478.63871848 -106.77285049 460.08294621 -103.40625 441.68359375 C-103.02383255 439.53335289 -102.64271145 437.38288111 -102.26281738 435.23219299 C-101.26955108 429.62899765 -100.2589504 424.02907086 -99.2444458 418.4296875 C-98.20826467 412.69266021 -97.18886916 406.95265309 -96.16796875 401.21289062 C-94.16986841 389.99315047 -92.15340399 378.77679831 -90.125 367.5625 C-90.7852417 368.24376953 -91.4454834 368.92503906 -92.12573242 369.62695312 C-93.4460144 370.97176758 -93.4460144 370.97176758 -94.79296875 372.34375 C-96.0927063 373.6750293 -96.0927063 373.6750293 -97.41870117 375.03320312 C-106.13269761 383.17727197 -116.43103136 387.01440465 -128.28125 386.8359375 C-139.08085072 385.79751435 -147.54845874 381.57666221 -154.8671875 373.68359375 C-161.75139091 365.20677612 -164.62421488 355.47558699 -163.94140625 344.65234375 C-162.28089378 331.38536264 -155.17109677 322.85931268 -145.75 313.875 C-144.82316406 312.97072266 -143.89632812 312.06644531 -142.94140625 311.13476562 C-140.68037881 308.93201208 -138.4084969 306.74191044 -136.125 304.5625 C-136.67349609 304.17143066 -137.22199219 303.78036133 -137.78710938 303.37744141 C-138.50705078 302.85327637 -139.22699219 302.32911133 -139.96875 301.7890625 C-141.03899414 301.0168335 -141.03899414 301.0168335 -142.13085938 300.22900391 C-146.17671555 296.84788072 -147.77090253 293.06700192 -148.5 287.91015625 C-148.9809806 276.71232654 -146.00805649 263.60325445 -139.125 254.5625 C-135.4044164 252.08211093 -133.52703429 252.09912797 -129.125 252.5625 C-126.6875 254.0625 -126.6875 254.0625 -125.125 256.5625 C-124.35748515 262.31886136 -125.34150465 265.55721233 -128.1015625 270.55859375 C-130.99042983 276.21504009 -131.125 281.20579693 -131.125 287.5625 C-114.295 287.8925 -97.465 288.2225 -80.125 288.5625 C-79.465 285.2625 -78.805 281.9625 -78.125 278.5625 C-77.7161432 276.84646545 -77.29196582 275.13379332 -76.8359375 273.4296875 C-76.61679688 272.6046875 -76.39765625 271.7796875 -76.171875 270.9296875 C-75.95015625 270.10726563 -75.7284375 269.28484375 -75.5 268.4375 C-75.27054687 267.57640625 -75.04109375 266.7153125 -74.8046875 265.828125 C-74.24754663 263.73884673 -73.68667624 261.65056356 -73.125 259.5625 C-74.16140625 259.23958984 -74.16140625 259.23958984 -75.21875 258.91015625 C-79.58901098 256.88362394 -82.77515515 253.68889547 -86.30859375 250.46289062 C-89.49427993 247.64824319 -91.79525419 245.68759699 -96.125 245.5625 C-98.84505214 246.08037376 -98.84505214 246.08037376 -101.5625 247 C-110.71542354 249.6696027 -110.71542354 249.6696027 -115.4375 247.5 C-117.95314308 244.61166906 -118.05988709 242.33904862 -118.125 238.5625 C-117.06346438 235.30206917 -115.92684227 233.9967721 -112.91796875 232.3671875 C-110.6756492 231.3572609 -108.42709315 230.42638821 -106.125 229.5625 C-106.681875 228.71171875 -107.23875 227.8609375 -107.8125 226.984375 C-112.50148441 219.61597093 -116.37554526 212.17711059 -119.625 204.0625 C-119.96273437 203.22686523 -120.30046875 202.39123047 -120.6484375 201.53027344 C-122.46590988 196.84577593 -123.64072936 192.56662998 -124.125 187.5625 C-124.95 187.376875 -125.775 187.19125 -126.625 187 C-133.81671898 184.04625828 -139.1221378 178.757446 -142.18139648 171.58618164 C-145.77667078 160.06549027 -142.27159985 148.80409446 -138.32763672 137.91674805 C-137.49524703 135.61183891 -136.70453926 133.29550503 -135.91796875 130.97460938 C-131.29891949 117.65892161 -131.29891949 117.65892161 -126.40258789 112.15209961 C-124.32598923 109.56835531 -123.38362286 106.58602795 -122.23046875 103.5078125 C-115.20709321 84.79535612 -105.75496979 66.59743996 -89.9296875 53.78515625 C-87.14646861 50.35733905 -86.56982837 46.50172766 -85.625 42.25 C-82.47109148 28.2531715 -82.47109148 28.2531715 -77.23046875 24.0390625 C-76.59753906 23.75804688 -75.96460938 23.47703125 -75.3125 23.1875 C-74.37470703 22.74277344 -74.37470703 22.74277344 -73.41796875 22.2890625 C-68.65178866 20.77882486 -64.11121297 20.50686564 -59.15625 20.7734375 C-47.66892826 21.37861967 -47.66892826 21.37861967 -37.73828125 16.37109375 C-34.53525418 13.1864956 -31.63024713 9.74628623 -28.7109375 6.30273438 C-21.41338775 -1.70479866 -10.003686 -4.32755028 0 0 Z M-24.41772461 24.72338867 C-28.86054646 29.17494823 -28.86054646 29.17494823 -33.078125 33.8359375 C-38.58475966 38.48084688 -48.3442257 36.58338465 -55.15820312 36.43554688 C-56.58229492 36.41911133 -56.58229492 36.41911133 -58.03515625 36.40234375 C-58.89246338 36.38550537 -59.74977051 36.36866699 -60.63305664 36.35131836 C-63.49442464 36.59380717 -65.57096889 37.25681703 -68.125 38.5625 C-69.34987404 41.1656218 -69.34987404 41.1656218 -69.875 44.25 C-70.09671875 45.26449219 -70.3184375 46.27898438 -70.546875 47.32421875 C-71.93778951 55.11521963 -72.34260008 62.6062032 -72.36523438 70.51123047 C-72.37484555 72.53005721 -72.40589016 74.54782151 -72.4375 76.56640625 C-72.44265625 77.88511719 -72.4478125 79.20382813 -72.453125 80.5625 C-72.4624707 81.738125 -72.47181641 82.91375 -72.48144531 84.125 C-71.95499505 90.67894523 -70.41447437 97.11512815 -69.125 103.5625 C-30.185 103.5625 8.755 103.5625 48.875 103.5625 C50.98102954 93.0323523 52.36626129 84.19068165 52.25 73.6875 C52.24274902 72.38699707 52.23549805 71.08649414 52.22802734 69.74658203 C52.39662524 52.97409502 52.39662524 52.97409502 46.875 37.5625 C43.56749056 36.39218698 40.45162445 36.48864531 36.97265625 36.5703125 C35.26625977 36.59544922 35.26625977 36.59544922 33.52539062 36.62109375 C31.1372109 36.66529523 28.74916343 36.71735444 26.36132812 36.77734375 C25.22244141 36.79152344 24.08355469 36.80570313 22.91015625 36.8203125 C21.8725415 36.8423877 20.83492676 36.86446289 19.76586914 36.88720703 C14.71555086 36.31994723 11.68857602 33.69920714 8.5625 29.875 C1.26998764 20.93739684 1.26998764 20.93739684 -8.125 14.5625 C-15.2428163 14.5625 -19.54540644 19.89967218 -24.41772461 24.72338867 Z M-89.125 76.5625 C-94.43638534 82.91025321 -104.125 94.90209529 -104.125 103.5625 C-97.855 103.5625 -91.585 103.5625 -85.125 103.5625 C-85.434375 101.520625 -85.74375 99.47875 -86.0625 97.375 C-87.05756428 90.45189319 -87.68429604 83.54417854 -88.125 76.5625 C-88.455 76.5625 -88.785 76.5625 -89.125 76.5625 Z M67.875 76.5625 C67.81965088 77.13170166 67.76430176 77.70090332 67.70727539 78.28735352 C67.45229285 80.90006224 67.19491322 83.51252968 66.9375 86.125 C66.85048828 87.02025391 66.76347656 87.91550781 66.67382812 88.83789062 C66.58681641 89.71767578 66.49980469 90.59746094 66.41015625 91.50390625 C66.331604 92.30513916 66.25305176 93.10637207 66.17211914 93.93188477 C65.80857484 97.15061101 65.33309089 100.35586378 64.875 103.5625 C71.145 103.5625 77.415 103.5625 83.875 103.5625 C81.7740058 97.2595174 80.35796728 93.16956842 77 87.8125 C76.34257812 86.74515625 75.68515625 85.6778125 75.0078125 84.578125 C72.87125656 81.55720708 70.56538534 79.09352454 67.875 76.5625 Z M-114.125 122.5625 C-118.53708295 128.61667398 -120.52811733 135.88920743 -122.875 142.9375 C-123.28621094 144.11828125 -123.69742188 145.2990625 -124.12109375 146.515625 C-127.40986286 155.85034045 -127.40986286 155.85034045 -127.125 165.5625 C-123.44587611 172.31031018 -116.79301569 174.45864592 -110 177.4375 C-108.76280735 177.99396647 -107.52633354 178.55203349 -106.29052734 179.11157227 C-103.63643646 180.31089959 -100.97880965 181.50186038 -98.31835938 182.68701172 C-91.8456787 185.57493677 -85.40630327 188.53595573 -78.96255493 191.48770142 C-76.74521653 192.50218855 -74.52649638 193.51359383 -72.30737305 194.52416992 C-65.09211982 197.81238508 -57.89186675 201.12806531 -50.72265625 204.515625 C-50.04966492 204.83290054 -49.37667358 205.15017609 -48.68328857 205.47706604 C-45.53242665 206.96289392 -42.3849039 208.45467413 -39.24267578 209.95874023 C-19.6825953 219.50299292 -19.6825953 219.50299292 1.19921875 217.484375 C8.53244118 214.80032596 15.54426129 211.59262468 22.57501221 208.20492554 C26.27596388 206.42245714 29.98817296 204.66367403 33.69921875 202.90234375 C34.83943481 202.36028038 34.83943481 202.36028038 36.00268555 201.80726624 C43.96101074 198.03133194 51.97521063 194.38199783 60 190.75 C61.37252235 190.12745953 62.74499996 189.50482042 64.11743164 188.88208008 C69.26244879 186.54896872 74.40866979 184.21864316 79.56347656 181.90722656 C82.91976551 180.40185269 86.27251351 178.88881757 89.625 177.375 C90.60098145 176.94147217 91.57696289 176.50794434 92.58251953 176.0612793 C100.22564005 172.6039192 100.22564005 172.6039192 106.1875 166.8125 C108.66846475 158.69297899 105.45305859 151.09280248 102.82226562 143.41625977 C102.12486052 141.37459167 101.45194659 139.32596701 100.78125 137.27539062 C100.33997839 135.96045448 99.89731699 134.64598375 99.453125 133.33203125 C99.05512695 132.15229736 98.65712891 130.97256348 98.24707031 129.75708008 C96.49573144 125.67945211 94.75523145 122.55032039 90.74065304 120.44117451 C87.09219184 119.32247318 83.65070522 119.28261398 79.8731842 119.30180359 C79.07276921 119.29797804 78.27235422 119.29415249 77.44768423 119.29021102 C74.7685226 119.27990112 72.08957609 119.28386934 69.41040039 119.2878418 C67.48838605 119.28349423 65.56637343 119.27831093 63.6443634 119.27235413 C58.42539528 119.25895812 53.20649956 119.25838611 47.9875176 119.26091743 C43.6310459 119.26198667 39.27458888 119.25710498 34.91812032 119.252312 C24.6411218 119.24121485 14.36415982 119.24078067 4.0871582 119.24682617 C-6.5164295 119.25286785 -17.11988457 119.24055047 -27.72344965 119.2192561 C-36.82676221 119.2016465 -45.93003253 119.19563771 -55.03336149 119.19889385 C-60.47062604 119.20070778 -65.90779596 119.19805942 -71.34504509 119.18417931 C-76.45781275 119.17161597 -81.57037346 119.17353096 -86.68313789 119.18659019 C-88.55925186 119.18895874 -90.43538032 119.18621137 -92.31147766 119.17796707 C-94.87329274 119.16752143 -97.43441059 119.17558255 -99.99620056 119.1882782 C-101.10880789 119.17721677 -101.10880789 119.17721677 -102.24389213 119.16593188 C-106.9345961 119.21480891 -110.1547983 120.05661029 -114.125 122.5625 Z M-104.125 197.5625 C-96.25364855 222.87134295 -75.91112393 241.17816019 -53.1875 253.3125 C-39.46952616 259.84379232 -25.51573383 262.95253119 -10.375 262.875 C-9.22338379 262.86936035 -8.07176758 262.8637207 -6.88525391 262.85791016 C20.16419636 262.47187165 44.6637861 250.41907713 63.57470703 231.28222656 C70.90741058 223.57454147 83.875 208.79463766 83.875 197.5625 C79.016622 199.06631752 74.5119151 201.01749768 69.91796875 203.16796875 C69.14968246 203.52437943 68.38139618 203.8807901 67.58982849 204.2480011 C65.93820441 205.01444874 64.28720671 205.78224738 62.63677979 206.55126953 C60.03679326 207.76197051 57.43455977 208.96770414 54.83154297 210.171875 C47.87209414 213.39144207 40.91423593 216.61441136 33.96044922 219.84619141 C30.18235481 221.60126751 26.400255 223.34742447 22.61514282 225.08731079 C21.21939962 225.73081992 19.82513408 226.37754501 18.4324646 227.02767944 C8.9806481 231.43835492 0.55392067 234.83775087 -10 234.875 C-11.09054688 234.89175781 -12.18109375 234.90851563 -13.3046875 234.92578125 C-24.11177006 233.89811389 -33.59977941 229.33669551 -43.3125 224.8125 C-44.75100959 224.14999929 -46.18981746 223.48814592 -47.62890625 222.8269043 C-52.13404758 220.75253891 -56.6306168 218.66005617 -61.125 216.5625 C-61.87106506 216.2143927 -62.61713013 215.8662854 -63.38580322 215.50762939 C-69.80513084 212.51089811 -76.22223865 209.50946714 -82.62963867 206.48730469 C-90.50062912 202.77471958 -90.50062912 202.77471958 -98.40625 199.13671875 C-99.4281543 198.672052 -99.4281543 198.672052 -100.47070312 198.19799805 C-102.14080347 197.44296648 -102.14080347 197.44296648 -104.125 197.5625 Z M61.30517578 254.21386719 C58.71483268 256.65651916 55.81890802 258.57707366 52.875 260.5625 C53.5537473 266.75714308 55.1792956 272.53189552 56.9375 278.5 C57.21916016 279.47001953 57.50082031 280.44003906 57.79101562 281.43945312 C58.48146466 283.81506591 59.17622001 286.18932705 59.875 288.5625 C67.11986551 288.58776739 74.36471974 288.6053318 81.60961914 288.61743164 C84.07642033 288.62247356 86.54321852 288.62930691 89.01000977 288.63793945 C92.54704529 288.65001125 96.08404145 288.65572956 99.62109375 288.66015625 C100.73149521 288.66531754 101.84189667 288.67047882 102.98594666 288.67579651 C104.00692947 288.67587204 105.02791229 288.67594757 106.07983398 288.67602539 C107.43551735 288.67935631 107.43551735 288.67935631 108.81858826 288.68275452 C110.86753581 288.79150462 110.86753581 288.79150462 111.875 287.5625 C113.07286118 277.02132157 108.38134076 267.04789341 102.015625 258.9375 C98.95277635 255.53930296 95.77860274 252.93227062 91.875 250.5625 C91.24980469 250.17449219 90.62460937 249.78648437 89.98046875 249.38671875 C87.98425709 248.2686776 86.00451532 247.39827752 83.875 246.5625 C83.05257812 246.20800781 82.23015625 245.85351562 81.3828125 245.48828125 C72.22093424 242.55382459 67.4541283 248.22258011 61.30517578 254.21386719 Z M-58.125 268.5625 C-60.62982257 276.57229436 -63.09720035 284.59312396 -65.53552246 292.62341309 C-65.93017727 293.92163045 -66.32577454 295.21956166 -66.72229004 296.51721191 C-68.08720998 300.98414678 -69.42410349 305.45878587 -70.75 309.9375 C-71.11673828 311.13665039 -71.48347656 312.33580078 -71.86132812 313.57128906 C-72.18810547 314.68987305 -72.51488281 315.80845703 -72.8515625 316.9609375 C-73.29363037 318.44086182 -73.29363037 318.44086182 -73.74462891 319.95068359 C-74.18423894 322.96926392 -73.89151713 324.10831286 -72.125 326.5625 C-53.6189329 335.78871316 -31.33219749 337.97551675 -11 337.875 C-9.84880173 337.87226578 -9.84880173 337.87226578 -8.67434692 337.86947632 C10.69281893 337.79219595 36.27486508 337.04989744 52.875 325.5625 C54.0435023 322.0569931 53.64827369 320.96608635 52.64331055 317.48022461 C52.20241341 315.92862892 52.20241341 315.92862892 51.75260925 314.34568787 C51.42561539 313.23000931 51.09862152 312.11433075 50.76171875 310.96484375 C50.43210648 309.8196376 50.1024942 308.67443146 49.76289368 307.49452209 C49.06329263 305.07155914 48.35941242 302.6498283 47.65161133 300.22924805 C46.56681425 296.5147725 45.49825439 292.7959043 44.43164062 289.07617188 C43.75096557 286.72628259 43.06935632 284.37666367 42.38671875 282.02734375 C42.06579758 280.90964096 41.7448764 279.79193817 41.41423035 278.6403656 C40.95914848 277.09349815 40.95914848 277.09349815 40.49487305 275.51538086 C40.09730049 274.14995399 40.09730049 274.14995399 39.69169617 272.75694275 C38.98652432 270.39664701 38.98652432 270.39664701 36.875 268.5625 C36.16859375 268.87703125 35.4621875 269.1915625 34.734375 269.515625 C4.26173327 282.22531979 -27.66221245 279.45717749 -58.125 268.5625 Z M-130.1875 319.6875 C-131.20603561 320.76126389 -131.20603561 320.76126389 -132.24514771 321.85671997 C-144.06720086 333.81933377 -144.06720086 333.81933377 -148.125 349.5625 C-146.98763488 356.12265952 -144.94499768 360.96159313 -140.125 365.5625 C-134.20026958 369.7031543 -129.31124207 371.0415828 -122.125 370.5625 C-110.23032625 367.63758022 -101.83145868 356.41168754 -93.5 348 C-92.59121094 347.08669922 -91.68242187 346.17339844 -90.74609375 345.23242188 C-88.53672045 343.01142029 -86.32973969 340.78809967 -84.125 338.5625 C-85.4974745 335.08871591 -85.4974745 335.08871591 -87.01171875 331.67578125 C-90.36018802 324.1458089 -88.7204402 317.43806286 -86.5703125 309.73828125 C-86.29977051 308.76415283 -86.02922852 307.79002441 -85.75048828 306.78637695 C-85.54407715 306.05249756 -85.33766602 305.31861816 -85.125 304.5625 C-105.87018492 299.65218077 -116.12835663 304.85201479 -130.1875 319.6875 Z M64.875 304.5625 C65.17535156 305.61308594 65.47570312 306.66367187 65.78515625 307.74609375 C70.4609104 324.71997116 70.4609104 324.71997116 66.83203125 331.515625 C66.26548828 332.43601562 66.26548828 332.43601562 65.6875 333.375 C65.089375 334.426875 64.49125 335.47875 63.875 336.5625 C65.08064419 340.6138941 68.37520432 343.3686536 71.29296875 346.28125 C71.82843826 346.82100464 72.36390778 347.36075928 72.91560364 347.91687012 C74.04868736 349.05568579 75.18438623 350.19190466 76.32250977 351.32568359 C78.04791956 353.04794615 79.75961241 354.78305636 81.47070312 356.51953125 C82.57731268 357.62841541 83.68471012 358.73651398 84.79296875 359.84375 C85.29741013 360.35740112 85.8018515 360.87105225 86.32157898 361.40026855 C91.76003717 366.77008919 97.41057073 370.21908236 105.125 370.8125 C112.36995759 370.32950283 117.75278931 367.80112457 122.875 362.5625 C126.28986344 357.38019925 128.41989564 351.86298408 127.62109375 345.55859375 C124.45976188 330.54938751 106.79935812 314.53235014 94.93121338 305.80291748 C86.0873532 300.46782975 74.45185381 302.47383062 64.875 304.5625 Z M-69.125 344.5625 C-72.15405272 359.26747063 -74.83405377 374.01605069 -77.375 388.8125 C-77.74194637 390.93754165 -78.1091327 393.06254188 -78.4765625 395.1875 C-79.36212862 400.31202902 -80.24449234 405.43709951 -81.125 410.5625 C-75.66336219 411.56501278 -70.20071478 412.56175802 -64.73706055 413.55322266 C-62.87935125 413.89116471 -61.02192533 414.23066842 -59.16479492 414.57177734 C-56.49210788 415.06240172 -53.81844506 415.54736204 -51.14453125 416.03125 C-50.31726028 416.18436646 -49.48998932 416.33748291 -48.63764954 416.49523926 C-44.750607 417.19325117 -41.09390331 417.75866821 -37.125 417.5625 C-36.92922363 416.5269397 -36.92922363 416.5269397 -36.72949219 415.47045898 C-36.12445422 412.31096343 -35.49991188 409.15562226 -34.875 406 C-34.67003906 404.91396484 -34.46507812 403.82792969 -34.25390625 402.70898438 C-32.64723723 394.69998273 -30.77663923 387.82646737 -23.94921875 382.6328125 C-18.14928174 379.2298516 -11.91661709 377.88500243 -5.28515625 378.99609375 C1.71638756 380.83194158 7.12641786 384.26771112 10.875 390.5625 C14.24428709 399.02818773 15.2921306 408.61535878 16.875 417.5625 C26.41706355 416.97428175 35.68487868 415.25874749 45.0625 413.5 C46.60212937 413.21503963 48.14184245 412.93053116 49.68164062 412.64648438 C53.41374462 411.95702175 57.14466708 411.26147883 60.875 410.5625 C59.48376381 402.39866555 58.08480703 394.23620818 56.67595863 386.07539654 C56.02202551 382.28601185 55.37076705 378.49620771 54.72558594 374.70532227 C54.10291871 371.04731368 53.47327208 367.39056948 52.83875656 363.73459816 C52.59784058 362.3391786 52.35944783 360.94332099 52.12361526 359.54703331 C51.79302044 357.5923086 51.45263807 355.63924684 51.11181641 353.6862793 C50.92084381 352.5737529 50.72987122 351.4612265 50.53311157 350.31498718 C49.99689942 347.37050851 49.99689942 347.37050851 47.875 344.5625 C46.73546875 344.88863281 45.5959375 345.21476562 44.421875 345.55078125 C14.66245029 353.87551916 -18.73996132 356.58734532 -49.125 349.5625 C-50.03024414 349.35367187 -50.93548828 349.14484375 -51.86816406 348.9296875 C-57.64742941 347.57031992 -63.38864378 346.09140634 -69.125 344.5625 Z M-84.125 426.5625 C-85.1354417 432.03700556 -86.13173949 437.51384092 -87.11572266 442.99316406 C-87.45148332 444.85191966 -87.79091795 446.71001588 -88.13427734 448.56738281 C-92.46190182 467.04786731 -92.46190182 467.04786731 -88.46484375 484.8125 C-85.23142947 489.03573498 -81.09213032 492.58815504 -76.125 494.5625 C-69.12098346 495.44263435 -62.92710596 495.42149181 -57.00390625 491.33984375 C-51.80047358 486.41767771 -48.35135472 482.29898965 -47.0625 475.0625 C-46.91458008 474.32854004 -46.76666016 473.59458008 -46.61425781 472.83837891 C-44.08267082 459.82063759 -42.1495747 446.66724713 -40.125 433.5625 C-45.42564058 432.55866592 -50.72755741 431.56197826 -56.03076172 430.57177734 C-57.83321013 430.23420261 -59.63529982 429.89470648 -61.43701172 429.55322266 C-64.03259961 429.06162318 -66.62941554 428.57703629 -69.2265625 428.09375 C-70.0267984 427.94063354 -70.8270343 427.78751709 -71.65151978 427.62976074 C-75.8725168 426.85174521 -79.81012619 426.39352592 -84.125 426.5625 Z " fill="#000000" transform="translate(266.125,1.4375)"/>
<path d="M0 0 C4.17809139 0.87043571 5.42283713 2.22085705 8 5.625 C8.73947525 9.08312579 8.70105439 12.47410199 8.6640625 16 C8.66884613 17.00208496 8.67362976 18.00416992 8.67855835 19.03662109 C8.68195478 21.15138319 8.67277041 23.26619798 8.65185547 25.38085938 C8.62508713 28.61447421 8.65161293 31.8446179 8.68359375 35.078125 C8.68028961 37.13542431 8.67388328 39.19272147 8.6640625 41.25 C8.67418365 42.21470215 8.68430481 43.1794043 8.69473267 44.17333984 C8.61407968 48.80163574 8.51060531 50.95054769 5.64599609 54.734375 C3 56.625 3 56.625 0 57.25 C-4.17809139 56.37956429 -5.42283713 55.02914295 -8 51.625 C-8.73947525 48.16687421 -8.70105439 44.77589801 -8.6640625 41.25 C-8.66884613 40.24791504 -8.67362976 39.24583008 -8.67855835 38.21337891 C-8.68195478 36.09861681 -8.67277041 33.98380202 -8.65185547 31.86914062 C-8.62508713 28.63552579 -8.65161293 25.4053821 -8.68359375 22.171875 C-8.68028961 20.11457569 -8.67388328 18.05727853 -8.6640625 16 C-8.67418365 15.03529785 -8.68430481 14.0705957 -8.69473267 13.07666016 C-8.61407968 8.44836426 -8.51060531 6.29945231 -5.64599609 2.515625 C-3 0.625 -3 0.625 0 0 Z " fill="#000000" transform="translate(256,142.375)"/>
<path d="M0 0 C2.54682014 1.66031638 3.56964652 2.41088755 5 5 C5.75544612 9.34189977 5.69731338 13.60334638 5.625 18 C5.65400391 19.7634375 5.65400391 19.7634375 5.68359375 21.5625 C5.62921857 31.13253183 5.62921857 31.13253183 2.6484375 34.2734375 C-0.64303542 36.41920598 -2.14760379 36.80258254 -6 36 C-8.54682014 34.33968362 -9.56964652 33.58911245 -11 31 C-11.75544612 26.65810023 -11.69731338 22.39665362 -11.625 18 C-11.64433594 16.824375 -11.66367187 15.64875 -11.68359375 14.4375 C-11.62921857 4.86746817 -11.62921857 4.86746817 -8.6484375 1.7265625 C-5.35696458 -0.41920598 -3.85239621 -0.80258254 0 0 Z " fill="#000000" transform="translate(299,143)"/>
<path d="M0 0 C2.54682014 1.66031638 3.56964652 2.41088755 5 5 C5.75544612 9.34189977 5.69731338 13.60334638 5.625 18 C5.65400391 19.7634375 5.65400391 19.7634375 5.68359375 21.5625 C5.62921857 31.13253183 5.62921857 31.13253183 2.6484375 34.2734375 C-0.64303542 36.41920598 -2.14760379 36.80258254 -6 36 C-8.54682014 34.33968362 -9.56964652 33.58911245 -11 31 C-11.75544612 26.65810023 -11.69731338 22.39665362 -11.625 18 C-11.64433594 16.824375 -11.66367188 15.64875 -11.68359375 14.4375 C-11.62921857 4.86746817 -11.62921857 4.86746817 -8.6484375 1.7265625 C-5.35696458 -0.41920598 -3.85239621 -0.80258254 0 0 Z " fill="#000000" transform="translate(219,143)"/>
</svg>
