<?xml version="1.0" encoding="UTF-8"?>
<svg version="1.1" xmlns="http://www.w3.org/2000/svg" width="512" height="512">
<path d="M0 0 C5.94 0 11.88 0 18 0 C18.03738281 2.67351563 18.07476562 5.34703125 18.11328125 8.1015625 C18.15954896 10.70304344 18.21076347 13.30438348 18.26245117 15.90576172 C18.29561773 17.70775729 18.32367525 19.50985467 18.34643555 21.31201172 C18.38013432 23.90896823 18.43245649 26.50499866 18.48828125 29.1015625 C18.49786613 30.30191635 18.49786613 30.30191635 18.50764465 31.52651978 C18.63443159 36.39667353 19.35090403 39.76448725 22 44 C26.59712744 48.35517336 30.92437422 50.25191813 37.24243164 50.23950195 C38.26442154 50.24323318 39.28641144 50.24696442 40.33937073 50.25080872 C41.43522995 50.24667465 42.53108917 50.24254059 43.66015625 50.23828125 C46.00456302 50.2537094 48.34896417 50.27001365 50.69335938 50.28710938 C54.37081378 50.30350582 58.04785414 50.31252831 61.7253418 50.30541992 C65.2874155 50.30278046 68.84824919 50.33106893 72.41015625 50.36328125 C73.49184586 50.35307449 74.57353546 50.34286774 75.68800354 50.33235168 C84.9628177 50.44950412 92.5167023 53.12392223 100.3125 58.125 C108.67816996 67.07432136 112.55652899 75.97672328 112.3203125 88.125 C111.09880391 99.08878442 105.48027607 107.20323948 97.30859375 114.234375 C91.15170101 118.9431999 84.51913696 120.11972285 76.89637756 120.13803101 C75.66970871 120.14348434 74.44303986 120.14893768 73.17919922 120.15455627 C71.82788091 120.15567589 70.47656255 120.15672644 69.12524414 120.15771484 C67.69583481 120.16238632 66.26642695 120.16753044 64.83702087 120.17311096 C61.7633942 120.18436866 58.68977708 120.19281393 55.61613655 120.19923019 C50.75393715 120.20993183 45.89180679 120.23018144 41.02964783 120.25234985 C27.20510005 120.31420466 13.38055708 120.36830103 -0.4440918 120.40136719 C-8.08279829 120.41971755 -15.72138835 120.4486552 -23.36000925 120.4893719 C-27.39998285 120.51042811 -31.43980987 120.52589727 -35.47984123 120.52817917 C-39.27943042 120.53032798 -43.07871399 120.54622076 -46.87821007 120.57256889 C-48.27053898 120.57975343 -49.66290496 120.58186694 -51.05524826 120.57846642 C-52.95998491 120.5745583 -54.86473078 120.590817 -56.76939392 120.60800171 C-57.83402328 120.61131186 -58.89865263 120.614622 -59.99554348 120.61803246 C-64.96438674 121.24973967 -68.19062542 123.24458372 -71.8125 126.625 C-74.71254412 130.40725819 -75.26999585 134.31189031 -75 139 C-73.33178897 144.88780365 -70.8389666 147.57239866 -66 151 C-63.05892858 151.98035714 -61.14160508 152.12973878 -58.07641602 152.1418457 C-56.5732357 152.15239738 -56.5732357 152.15239738 -55.03968811 152.16316223 C-53.41322609 152.16940865 -53.41322609 152.16940865 -51.75390625 152.17578125 C-49.44855877 152.19899816 -47.14322021 152.22311623 -44.83789062 152.24804688 C-41.21095974 152.28300819 -37.58435345 152.31241861 -33.95727539 152.32592773 C-30.45158486 152.34153419 -26.94684207 152.3818444 -23.44140625 152.42578125 C-21.84227135 152.42291862 -21.84227135 152.42291862 -20.21083069 152.41999817 C-8.66345215 152.60479098 0.57257863 155.49804662 8.87109375 163.63671875 C17.05340325 172.71983297 18.32823438 181.58733864 18.125 193.5 C18.11597656 194.51320312 18.10695313 195.52640625 18.09765625 196.5703125 C18.07429147 199.04697872 18.03842811 201.52352171 18 204 C23.61 204 29.22 204 35 204 C35 215.22 35 226.44 35 238 C39.14393311 237.98428955 39.14393311 237.98428955 43.37158203 237.96826172 C52.5875447 237.9348462 61.80351032 237.91292156 71.0195179 237.89637566 C76.5970294 237.88602031 82.17447788 237.87201552 87.75195312 237.84912109 C93.15311155 237.82709385 98.55421006 237.81536972 103.95541 237.81024551 C105.99705827 237.80660254 108.03870395 237.79949244 110.08032608 237.78853989 C120.70623193 237.73389959 131.23397086 237.94435061 141.82373047 238.87939453 C143.14260097 238.99438954 143.14260097 238.99438954 144.48811531 239.11170769 C171.29324417 241.73766702 195.98031554 254.31989405 216 272 C216.97453125 272.84175781 217.9490625 273.68351562 218.953125 274.55078125 C243.62323836 296.19464115 260.92937759 326.23105564 265 359 C265.9010894 376.85151322 265.96960418 394.71459777 261 412 C260.81808105 412.66016113 260.63616211 413.32032227 260.44873047 414.00048828 C251.02867049 447.46316784 227.87698094 477.01567047 197.8359375 494.46875 C167.01862319 511.69871963 128.46234743 518.03427698 94.08300781 508.59423828 C93.39561523 508.39813965 92.70822266 508.20204102 92 508 C91.33838867 507.81808105 90.67677734 507.63616211 89.99511719 507.44873047 C76.848061 503.74677882 64.47880807 497.73881886 52.75 490.8125 C32.03762657 478.70848384 8.51014149 475.90591443 -14.6953125 481.96484375 C-23.41249637 484.66735274 -31.11925261 488.50540344 -39.06884766 492.93847656 C-71.98066814 511.02957586 -110.22690478 518.49058999 -147 508 C-147.66161133 507.81808105 -148.32322266 507.63616211 -149.00488281 507.44873047 C-182.46531922 498.02693169 -212.01657611 474.87542211 -229.46875 444.8359375 C-241.08779884 424.05186307 -247.17623891 402.10335083 -247.24023438 378.25170898 C-247.24983701 376.09903754 -247.28087185 373.94736592 -247.3125 371.79492188 C-247.5548161 340.09125568 -233.90270423 308.76728466 -212 286 C-210.84766574 284.65136101 -209.70151891 283.29740342 -208.5625 281.9375 C-191.98897256 263.10907087 -169.7054425 250.40795078 -146 243 C-145.0203125 242.68160156 -144.040625 242.36320313 -143.03125 242.03515625 C-125.81662416 237.06369103 -106.82153125 237.70945875 -89.0703125 237.8046875 C-86.97183367 237.80843188 -84.87335305 237.81127208 -82.77487183 237.81326294 C-77.33352568 237.82078748 -71.89229157 237.84033543 -66.45098877 237.8626709 C-60.86577875 237.8833747 -55.28055008 237.89231632 -49.6953125 237.90234375 C-38.79681862 237.92359555 -27.89843629 237.95868193 -17 238 C-17 226.78 -17 215.56 -17 204 C-11.39 204 -5.78 204 0 204 C-0.08731537 200.79040748 -0.19424593 197.58347844 -0.3125 194.375 C-0.33505859 193.47136719 -0.35761719 192.56773437 -0.38085938 191.63671875 C-0.62201981 185.62963143 -1.31078116 181.01909635 -5.46484375 176.35546875 C-10.129171 172.65617472 -13.21489687 171.88119282 -19.05297852 171.8581543 C-20.05825089 171.85111984 -21.06352325 171.84408539 -22.09925842 171.83683777 C-23.7226841 171.83059135 -23.7226841 171.83059135 -25.37890625 171.82421875 C-27.68555588 171.80100852 -29.99219652 171.77689071 -32.29882812 171.75195312 C-35.92364414 171.71695085 -39.54813183 171.68755343 -43.1730957 171.67407227 C-46.67960229 171.65848992 -50.18515524 171.61820305 -53.69140625 171.57421875 C-55.2935775 171.57708138 -55.2935775 171.57708138 -56.92811584 171.58000183 C-68.37372639 171.39627561 -76.70012043 168.20805132 -84.90625 160.22265625 C-91.27488983 153.46191732 -94.05083165 145.86504023 -94.4375 136.625 C-94.05775241 126.26957525 -90.59256384 118.50826602 -83.3671875 111.12890625 C-73.63782273 102.37889998 -64.50155145 101.70312417 -51.80639648 101.72875977 C-50.36683865 101.72436793 -48.92728336 101.71906411 -47.48773193 101.71292114 C-44.39829901 101.70145768 -41.30893435 101.69596444 -38.21948051 101.69503975 C-33.3318907 101.69309295 -28.44444146 101.67500766 -23.55690002 101.65428162 C-11.4205003 101.60518241 0.71593735 101.57420006 12.85241699 101.55297852 C22.29245116 101.53644958 31.73236405 101.51363144 41.17231697 101.46995777 C46.02871679 101.44820262 50.88488604 101.44012146 55.74133122 101.44235051 C58.76375403 101.44068182 61.78602661 101.42662206 64.80839539 101.40913773 C66.20718225 101.40354693 67.60600036 101.40304498 69.00478935 101.40807533 C70.91816086 101.41423379 72.83156527 101.4002159 74.74488831 101.38526917 C76.3489974 101.38225217 76.3489974 101.38225217 77.98551273 101.37917423 C82.92903809 100.7573579 86.17035622 98.75589767 89.8125 95.4375 C92.90506012 91.39106582 93.37674353 86.98224092 93 82 C91.76540839 77.28757188 90.09545977 74.79462098 86.13208008 71.91967773 C81.08336866 69.11705518 75.93543097 69.45294206 70.29296875 69.49609375 C69.17239578 69.48667252 68.05182281 69.47725128 66.89729309 69.46754456 C63.32717499 69.43896076 59.75772307 69.43581309 56.1875 69.4375 C52.62808581 69.43388001 49.0691561 69.4241958 45.50984192 69.39674377 C43.30050195 69.38009765 41.09100323 69.37696609 38.88163757 69.38975525 C27.76498699 69.31456805 17.99619024 66.74769948 9.83203125 58.921875 C1.72754291 50.24165798 -0.16831638 42.38686079 -0.09765625 30.76171875 C-0.09553383 29.44056816 -0.09553383 29.44056816 -0.09336853 28.09272766 C-0.08778937 25.29094997 -0.07524071 22.48925338 -0.0625 19.6875 C-0.05748231 17.78320428 -0.05291987 15.87890731 -0.04882812 13.97460938 C-0.03867941 9.31635017 -0.01909995 4.65826545 0 0 Z M1 222 C1 227.28 1 232.56 1 238 C6.28 238 11.56 238 17 238 C17 232.72 17 227.44 17 222 C11.72 222 6.44 222 1 222 Z M-200.20068359 299.98925781 C-204.66131053 304.97402354 -208.44053758 310.34749616 -212 316 C-212.36029297 316.56396484 -212.72058594 317.12792969 -213.09179688 317.70898438 C-228.57491337 342.26358324 -233.42829929 371.81404639 -227.375 400.3125 C-222.01201437 422.99040736 -210.96258543 442.07342184 -195 459 C-194.38769531 459.67675781 -193.77539062 460.35351562 -193.14453125 461.05078125 C-174.15090209 481.2593547 -145.10829837 493.18299389 -117.69921875 494.31640625 C-103.70787346 494.66708651 -90.49041849 493.8223358 -77 490 C-76.34660645 489.81759766 -75.69321289 489.63519531 -75.02001953 489.44726562 C-64.15222189 486.24837864 -54.39844545 480.64600388 -44.57373047 475.11376953 C-18.27720703 460.44086681 11.18934546 457.03532742 40.25 465 C49.36101516 467.67921899 57.44702041 472.1584606 65.71728516 476.7421875 C76.49401892 482.68034069 87.1163567 487.65178033 99 491 C100.07378906 491.3196875 101.14757812 491.639375 102.25390625 491.96875 C132.29689678 499.4882007 164.95500385 492.70374671 191.23583984 477.09619141 C218.80158148 459.96774138 236.23659093 433.09869202 245.03515625 402.38671875 C251.64358722 373.77067581 246.94188836 343.26540019 231.68359375 318.25317383 C227.31387234 311.41977455 222.27712021 305.14995188 217 299 C216.46632813 298.34386719 215.93265625 297.68773437 215.3828125 297.01171875 C211.66792585 292.48357314 207.5270131 288.70663181 203 285 C202.06285156 284.22527344 201.12570312 283.45054687 200.16015625 282.65234375 C171.63669126 259.59302327 141.21587837 255.84554577 105.58325195 255.85473633 C103.24898729 255.85173878 100.91472313 255.84833489 98.58045959 255.84455872 C92.2785504 255.83577553 85.9766548 255.83338302 79.67474008 255.83274293 C75.72713536 255.83202923 71.77953403 255.8298889 67.83193016 255.82724571 C54.74085698 255.81848655 41.64979227 255.81382366 28.55871616 255.81457619 C27.85557273 255.81461614 27.15242931 255.8146561 26.42797852 255.81469727 C25.3719503 255.81475859 25.3719503 255.81475859 24.29458817 255.81482115 C12.89561969 255.81522725 1.49668429 255.80566212 -9.90227463 255.7915589 C-21.65497739 255.77713471 -33.40766407 255.770292 -45.16037589 255.77115268 C-51.73921524 255.77148254 -58.31802411 255.76862907 -64.89685631 255.75797462 C-71.08989444 255.74821745 -77.28285979 255.74826613 -83.47590065 255.75549126 C-85.73315666 255.75652767 -87.9904174 255.75423119 -90.24766541 255.7481308 C-134.62535886 255.63607821 -169.19727969 266.80757395 -200.20068359 299.98925781 Z " fill="#000000" transform="translate(247,0)"/>
<path d="M0 0 C0.84775497 -0.01268417 1.69550995 -0.02536835 2.56895447 -0.03843689 C3.4814949 -0.03550125 4.39403534 -0.03256561 5.33422852 -0.02954102 C6.27492691 -0.03478287 7.21562531 -0.04002472 8.18482971 -0.04542542 C10.1744793 -0.05184933 12.16416684 -0.05050385 14.15380859 -0.04199219 C17.19836103 -0.03348853 20.24103371 -0.06222812 23.28540039 -0.09399414 C25.21834254 -0.09560639 27.15128801 -0.09502818 29.08422852 -0.09204102 C29.99474472 -0.10327499 30.90526093 -0.11450897 31.84336853 -0.12608337 C38.14005097 -0.05666467 38.14005097 -0.05666467 41.31884766 2.24755859 C44.16115997 6.45505728 43.9068724 10.47283206 43.87329102 15.35327148 C43.87187607 16.12588821 43.87046112 16.89850494 43.8690033 17.6945343 C43.86340943 20.16024663 43.85085809 22.62586789 43.83813477 25.09155273 C43.83311897 26.76407746 43.8285562 28.43660362 43.82446289 30.10913086 C43.81344201 34.2074732 43.79618161 38.30574753 43.77563477 42.40405273 C45.3267395 42.38048706 45.3267395 42.38048706 46.90917969 42.35644531 C50.75757004 42.30201219 54.60592656 42.26765425 58.45458984 42.23925781 C60.11805958 42.22420159 61.78148982 42.2037521 63.44482422 42.17773438 C65.84034998 42.14121066 68.23534943 42.12429491 70.63110352 42.11108398 C71.74076729 42.0878582 71.74076729 42.0878582 72.87284851 42.06416321 C77.38363093 42.06270378 80.17040809 42.66654301 83.77563477 45.40405273 C86.13117288 47.75959085 86.03266264 48.21439928 86.06616211 51.40722656 C86.07892181 52.23180862 86.09168152 53.05639069 86.10482788 53.90596008 C86.10705353 54.79865097 86.10927917 55.69134186 86.11157227 56.61108398 C86.12155746 57.98740242 86.12155746 57.98740242 86.13174438 59.39152527 C86.14188208 61.33586621 86.14656106 63.28024203 86.14624023 65.22460938 C86.1506024 68.19451679 86.18687917 71.16292518 86.22485352 74.13256836 C86.2307237 76.02123515 86.23469174 77.90990901 86.23657227 79.79858398 C86.2509433 80.68520218 86.26531433 81.57182037 86.28012085 82.48530579 C86.24999835 86.56823578 86.09698247 88.85525649 83.99682617 92.44189453 C79.77071026 96.17516487 75.36685452 95.54039271 69.94750977 95.50170898 C69.19850403 95.50029404 68.44949829 95.49887909 67.67779541 95.49742126 C65.29370064 95.49183932 62.90970098 95.47929018 60.52563477 95.46655273 C58.90584446 95.4615354 57.28605267 95.4569729 55.66625977 95.45288086 C51.70268165 95.44187581 47.73917431 95.42462364 43.77563477 95.40405273 C43.79134521 96.43812256 43.80705566 97.47219238 43.82324219 98.53759766 C43.87767531 102.38598801 43.91203325 106.23434453 43.94042969 110.08300781 C43.95548591 111.74647755 43.9759354 113.40990779 44.00195312 115.07324219 C44.03847684 117.46876795 44.05539259 119.8637674 44.06860352 122.25952148 C44.08408737 122.99929733 44.09957123 123.73907318 44.11552429 124.50126648 C44.11697909 128.99771552 43.57954234 131.84964774 40.77563477 135.40405273 C37.75164939 137.42004299 37.14402974 137.65797029 33.75073242 137.69458008 C32.94624664 137.70733978 32.14176086 137.72009949 31.31289673 137.73324585 C30.44724091 137.7354715 29.58158508 137.73769714 28.68969727 137.73999023 C27.79576263 137.74664703 26.901828 137.75330383 25.98080444 137.76016235 C24.08951881 137.77028743 22.19819747 137.77497942 20.30688477 137.7746582 C17.41826211 137.77902608 14.53117401 137.81533169 11.64282227 137.85327148 C9.80428582 137.85914079 7.96574212 137.86310942 6.12719727 137.86499023 C5.2655899 137.87936127 4.40398254 137.8937323 3.51626587 137.90853882 C-0.50787426 137.87799876 -2.71248804 137.70535644 -6.24633789 135.62524414 C-10.00251273 131.40731292 -9.36074961 127.00149257 -9.32202148 121.57592773 C-9.32060654 120.826922 -9.31919159 120.07791626 -9.31773376 119.30621338 C-9.31215182 116.92211861 -9.29960268 114.53811895 -9.28686523 112.15405273 C-9.2818479 110.53426243 -9.2772854 108.91447064 -9.27319336 107.29467773 C-9.26218831 103.33109962 -9.24493614 99.36759228 -9.22436523 95.40405273 C-10.22814209 95.41452637 -11.23191895 95.425 -12.26611328 95.43579102 C-16.00273042 95.47208727 -19.73933206 95.49498814 -23.47607422 95.51391602 C-25.09100976 95.5239517 -26.70592724 95.53758325 -28.32080078 95.55493164 C-30.64677398 95.57928738 -32.97250618 95.59056021 -35.29858398 95.59936523 C-36.01648605 95.60968781 -36.73438812 95.62001038 -37.4740448 95.63064575 C-42.50871042 95.63176366 -46.15006558 95.2060527 -50.00976562 91.85302734 C-51.89126568 88.05939377 -51.67221868 84.40026149 -51.65795898 80.22045898 C-51.66320084 79.3279393 -51.66844269 78.43541962 -51.67384338 77.51585388 C-51.68025922 75.63053425 -51.67893225 73.74517457 -51.67041016 71.85986328 C-51.6619049 68.97998515 -51.69065906 66.10209409 -51.72241211 63.22241211 C-51.72402441 61.38842833 -51.72344604 59.55444104 -51.72045898 57.72045898 C-51.73169296 56.86198868 -51.74292694 56.00351837 -51.75450134 55.11903381 C-51.70740568 51.06478775 -51.53700693 48.91617895 -49.38085938 45.38427734 C-45.44712347 41.77208082 -41.31542853 42.27171526 -36.27514648 42.30639648 C-35.50252975 42.30781143 -34.72991302 42.30922638 -33.93388367 42.3106842 C-31.46817134 42.31627807 -29.00255008 42.32882941 -26.53686523 42.34155273 C-24.8643405 42.34656853 -23.19181435 42.3511313 -21.51928711 42.35522461 C-17.42094477 42.36624549 -13.32267044 42.38350589 -9.22436523 42.40405273 C-9.24007568 40.89838745 -9.24007568 40.89838745 -9.25610352 39.36230469 C-9.29239977 35.62568755 -9.31530064 31.8890859 -9.33422852 28.15234375 C-9.3442642 26.53740821 -9.35789575 24.92249073 -9.37524414 23.30761719 C-9.39959988 20.98164398 -9.41087271 18.65591178 -9.41967773 16.32983398 C-9.43000031 15.61193192 -9.44032288 14.89402985 -9.45095825 14.15437317 C-9.45203199 9.31867235 -9.01543691 5.60864772 -5.91493225 1.79229736 C-3.79900788 0.0547616 -2.71289024 0.01967045 0 0 Z M9.77563477 18.40405273 C9.72665039 20.80041992 9.67766602 23.19678711 9.62719727 25.66577148 C9.5731318 27.99582978 9.51584627 30.32578829 9.45825195 32.65576172 C9.42005405 34.27059444 9.38518532 35.88550957 9.35375977 37.50048828 C9.30790867 39.82671491 9.24994893 42.15237866 9.18969727 44.47827148 C9.17237045 45.55512459 9.17237045 45.55512459 9.1546936 46.6537323 C9.00391481 51.81632027 8.49942608 55.68026142 4.77563477 59.40405273 C1.91126652 59.64987117 -0.86339663 59.77774655 -3.73217773 59.81811523 C-4.99310745 59.84716446 -4.99310745 59.84716446 -6.2795105 59.87680054 C-8.96935827 59.93666932 -11.65924867 59.98301045 -14.34936523 60.02905273 C-16.17099867 60.06722584 -17.99261394 60.10627717 -19.81420898 60.14624023 C-24.28416748 60.24403331 -28.753928 60.32354249 -33.22436523 60.40405273 C-33.22436523 66.01405273 -33.22436523 71.62405273 -33.22436523 77.40405273 C-30.51604492 77.44143555 -27.80772461 77.47881836 -25.01733398 77.51733398 C-22.39607639 77.56353739 -19.77496228 77.61477527 -17.15380859 77.66650391 C-15.33130604 77.69977014 -13.50870004 77.7277968 -11.68603516 77.75048828 C-9.06685274 77.78400355 -6.44861976 77.83631625 -3.82983398 77.89233398 C-3.01411423 77.89872391 -2.19839447 77.90511383 -1.35795593 77.91169739 C4.36536236 78.06065076 4.36536236 78.06065076 6.47320557 79.82493591 C9.58500786 83.59780845 8.9841251 88.56321316 9.09204102 93.23217773 C9.11282211 93.98118347 9.13360321 94.73018921 9.15501404 95.50189209 C9.22020564 97.88585561 9.2792526 100.26992585 9.33813477 102.65405273 C9.38134892 104.27385527 9.42496413 105.89364717 9.46899414 107.51342773 C9.57660787 111.47686178 9.67590641 115.44038108 9.77563477 119.40405273 C15.05563477 119.40405273 20.33563477 119.40405273 25.77563477 119.40405273 C25.79021729 118.26863037 25.8047998 117.13320801 25.81982422 115.96337891 C25.87777152 111.75309665 25.95500418 107.54335124 26.03808594 103.33349609 C26.07135217 101.51099354 26.09937883 99.68838754 26.12207031 97.86572266 C26.15558558 95.24654024 26.20789828 92.62830726 26.26391602 90.00952148 C26.2735009 88.78594185 26.2735009 88.78594185 26.28327942 87.53764343 C26.43098328 81.86233564 26.43098328 81.86233564 28.06335449 79.69177246 C31.05989845 77.43822272 34.76859101 77.92063252 38.38110352 77.89233398 C39.22030838 77.87438278 40.05951324 77.85643158 40.92414856 77.8379364 C43.60375956 77.7837671 46.28319179 77.749917 48.96313477 77.71655273 C50.78021697 77.68338544 52.59727557 77.64889633 54.41430664 77.61303711 C58.86810934 77.52554807 63.32109318 77.46553855 67.77563477 77.40405273 C67.77563477 71.79405273 67.77563477 66.18405273 67.77563477 60.40405273 C65.06731445 60.36666992 62.35899414 60.32928711 59.56860352 60.29077148 C56.94734592 60.24456808 54.32623181 60.1933302 51.70507812 60.14160156 C49.88257557 60.10833533 48.05996957 60.08030867 46.23730469 60.05761719 C43.61812227 60.02410192 40.99988929 59.97178922 38.38110352 59.91577148 C37.56538376 59.90938156 36.749664 59.90299164 35.90922546 59.89640808 C30.23391767 59.74870422 30.23391767 59.74870422 28.06335449 58.11633301 C25.80980475 55.11978905 26.29221455 51.41109649 26.26391602 47.79858398 C26.24596481 46.95937912 26.22801361 46.12017426 26.20951843 45.25553894 C26.15534913 42.57592794 26.12149904 39.89649571 26.08813477 37.21655273 C26.05496747 35.39947053 26.02047836 33.58241193 25.98461914 31.76538086 C25.89961904 27.31173369 25.83283975 22.85814014 25.77563477 18.40405273 C20.49563477 18.40405273 15.21563477 18.40405273 9.77563477 18.40405273 Z " fill="#000000" transform="translate(119.224365234375,306.595947265625)"/>
<path d="M0 0 C8.5040449 7.00939458 13.86962664 14.33209765 15.19140625 25.51953125 C15.58435861 36.20530016 12.73520897 45.06774924 5.87109375 53.3046875 C-1.1565473 60.15897118 -9.69183963 63.58555795 -19.4375 63.6875 C-29.58586256 63.52846591 -37.84259745 60.4362657 -45.1875 53.3125 C-47.51494225 50.46784837 -49.40918539 47.52565412 -51.1875 44.3125 C-51.52910156 43.70921875 -51.87070312 43.1059375 -52.22265625 42.484375 C-55.7046776 35.03446885 -55.3890208 25.64885286 -53.23828125 17.88671875 C-49.08669854 7.37024898 -43.07050158 1.61045983 -33.1875 -3.6875 C-22.63486781 -8.13174398 -9.27755949 -6.54781602 0 0 Z M-32.8046875 18.04296875 C-35.74728069 22.20748623 -36.99434176 25.96692225 -36.66796875 31.07421875 C-35.50667492 36.48414855 -32.54003115 40.75487441 -27.9375 43.8125 C-23.73972615 45.84309343 -19.74892895 46.19813827 -15.1875 45.3125 C-10.40984535 43.48078435 -7.17680904 40.92699069 -4.6875 36.4375 C-2.5801786 31.45485562 -2.46687463 27.38959666 -4.25 22.25 C-7.26274105 17.68229583 -10.94639197 14.05953601 -16.1875 12.3125 C-22.84076159 11.66021945 -28.19118878 13.10630224 -32.8046875 18.04296875 Z " fill="#000000" transform="translate(395.1875,397.6875)"/>
<path d="M0 0 C7.75261972 5.21782436 12.79156234 12.67660014 14.85546875 21.75 C15.9763774 33.80628493 14.26173589 43.42106851 6.61328125 52.93359375 C-0.56705165 60.35327108 -9.33716398 63.81438725 -19.51953125 64.1875 C-31.4491496 63.82641726 -39.04820679 59.3447922 -47.14453125 50.75 C-52.89983359 43.81412282 -54.72601899 35.34999199 -54.42578125 26.48046875 C-53.27617557 15.31971363 -47.93997823 7.35547794 -39.390625 0.29296875 C-27.18339169 -8.09286979 -12.404794 -7.23048102 0 0 Z M-33.58203125 19.4375 C-36.19845139 24.9843107 -36.75466753 29.50012247 -35.14453125 35.4375 C-32.20384626 40.30800951 -28.59861078 43.93197349 -23.14453125 45.75 C-17.1553307 46.33717652 -13.04972009 45.05567074 -8.14453125 41.75 C-3.75822239 37.13875222 -2.78276154 33.28760876 -2.86328125 27.09765625 C-3.46473337 22.07720176 -6.02557035 18.78708572 -9.70703125 15.375 C-17.9318838 9.89176496 -27.31010233 12.52229632 -33.58203125 19.4375 Z " fill="#000000" transform="translate(335.14453125,346.25)"/>
<path d="M0 0 C8.06232407 5.76262301 13.81386389 13.72111174 15.66796875 23.55859375 C16.685423 33.43166832 15.6390517 42.22362842 9.609375 50.32421875 C2.34560163 58.70266898 -4.88907928 63.53258348 -16 64.8828125 C-25.82074934 65.29378181 -34.2829584 62.73993749 -41.76953125 56.30859375 C-49.78299378 48.46234633 -53.32808438 41.05337946 -53.70703125 29.74609375 C-53.53970399 19.88424323 -50.23893571 11.67167446 -43.33203125 4.55859375 C-31.17044775 -5.63301424 -13.99212335 -8.64839785 0 0 Z M-32.14453125 19.55859375 C-35.44582326 24.08607994 -35.8851981 28.07911076 -35.33203125 33.55859375 C-33.50571655 38.93010757 -30.17541785 42.67874226 -25.33203125 45.55859375 C-20.77122193 47.00902781 -17.24173587 46.80529331 -12.64453125 45.55859375 C-7.77402174 42.61790876 -4.15005776 39.01267328 -2.33203125 33.55859375 C-1.74485473 27.5693932 -3.02636051 23.46378259 -6.33203125 18.55859375 C-10.99895241 14.11932728 -14.80951807 13.24643794 -21.0546875 13.34765625 C-25.92744594 13.79899237 -29.01788149 15.97764445 -32.14453125 19.55859375 Z " fill="#000000" transform="translate(394.33203125,294.44140625)"/>
<path d="M0 0 C8.78423993 4.93866563 15.42679913 12.13546796 18.35546875 21.77734375 C20.89337741 32.09631302 19.75801438 41.25826653 14.48046875 50.58984375 C9.32048282 58.25211201 2.28582563 63.91127238 -6.74609375 66.01171875 C-17.65166491 67.87756868 -27.45003735 66.06380885 -36.64453125 59.83984375 C-42.78375652 54.86277635 -47.41554215 48.11942423 -49.39453125 40.46484375 C-50.43319668 28.24240866 -49.73227666 18.43961909 -41.70703125 8.65234375 C-30.86244244 -2.77789325 -14.60292977 -6.06118651 0 0 Z M-28.76953125 22.08984375 C-31.99915737 26.81006654 -31.86963556 30.84997458 -31.39453125 36.46484375 C-29.72105891 41.22102828 -27.53345583 43.63826111 -23.39453125 46.46484375 C-22.79640625 46.87734375 -22.19828125 47.28984375 -21.58203125 47.71484375 C-16.9077638 49.31744973 -12.75381621 48.94459138 -8.20703125 47.33984375 C-3.51035685 44.20872748 0.30722522 40.04729093 1.60546875 34.46484375 C1.97732784 28.9400801 0.9200989 25.29868706 -2.64453125 21.02734375 C-6.73281006 16.85613839 -9.43059791 15.65490182 -15.26953125 15.08984375 C-21.06671379 15.25391495 -24.88781021 17.7995205 -28.76953125 22.08984375 Z " fill="#000000" transform="translate(450.39453125,343.53515625)"/>
</svg>
