<?xml version="1.0" encoding="UTF-8"?>
<svg version="1.1" xmlns="http://www.w3.org/2000/svg" width="512" height="512">
<path d="M0 0 C1.30365551 1.08998583 2.59459989 2.19528814 3.875 3.3125 C4.84308594 4.08464844 5.81117188 4.85679688 6.80859375 5.65234375 C16.54126901 13.77662734 22.08734653 24.85066736 26.875 36.3125 C31.73133399 35.72657275 36.55182306 35.07213243 41.375 34.25 C42.4165625 34.07339844 43.458125 33.89679687 44.53125 33.71484375 C45.3046875 33.58207031 46.078125 33.44929688 46.875 33.3125 C46.81699219 32.6834375 46.75898438 32.054375 46.69921875 31.40625 C46.34189664 24.62733905 47.45992335 20.50194873 51.875 15.3125 C55.88383115 11.18823131 60.00379608 8.54661612 65.81225586 8.07299805 C67.43466187 8.07360229 67.43466187 8.07360229 69.08984375 8.07421875 C70.31896484 8.06124756 71.54808594 8.04827637 72.81445312 8.03491211 C74.13380859 8.02339111 75.45316406 8.01187012 76.8125 8 C89.31155534 7.8041686 101.19572789 6.46907146 113.46069336 4.03979492 C124.76906288 1.8648336 136.74717933 -0.1845925 146.875 6.3125 C147.44911621 6.71839355 148.02323242 7.12428711 148.61474609 7.54248047 C152.04857543 8.71231172 154.96306977 7.66563037 158.3515625 6.7578125 C159.0768515 6.57741425 159.8021405 6.39701599 160.54940796 6.21115112 C162.86984945 5.63316535 165.18510853 5.03730018 167.5 4.4375 C189.33202402 -1.19671932 189.33202402 -1.19671932 194.875 0.3125 C197.10205078 1.89111328 197.10205078 1.89111328 198.875 4.3125 C199.39257812 7.640625 199.39257812 7.640625 199.40625 11.5625 C199.4100769 12.25762695 199.41390381 12.95275391 199.41784668 13.66894531 C199.4205618 15.13478041 199.41322835 16.60066428 199.39648438 18.06640625 C199.37506419 20.30578975 199.39629443 22.54196587 199.421875 24.78125 C199.41923165 26.20834039 199.4141065 27.63542879 199.40625 29.0625 C199.40173828 30.35671875 199.39722656 31.6509375 199.39257812 32.984375 C198.875 36.3125 198.875 36.3125 197.23803711 38.64550781 C194.37380505 40.66606536 191.94065972 41.40657193 188.53515625 42.234375 C186.6934082 42.68876953 186.6934082 42.68876953 184.81445312 43.15234375 C183.53505859 43.45269531 182.25566406 43.75304688 180.9375 44.0625 C179.02420898 44.53623047 179.02420898 44.53623047 177.07226562 45.01953125 C166.76958252 47.51551426 166.76958252 47.51551426 161.875 47.3125 C161.7925 48.34375 161.71 49.375 161.625 50.4375 C160.81060277 54.645219 159.40796919 56.90882265 156.875 60.3125 C155.61282186 62.28548472 155.61282186 62.28548472 156.44824219 64.47290039 C156.76954102 65.35969482 157.09083984 66.24648926 157.421875 67.16015625 C157.77121094 68.14943115 158.12054688 69.13870605 158.48046875 70.15795898 C158.85816406 71.21958252 159.23585938 72.28120605 159.625 73.375 C165.13583352 89.45104528 167.30257198 103.35214493 166.875 120.3125 C161.265 120.3125 155.655 120.3125 149.875 120.3125 C149.78863281 118.94480469 149.70226562 117.57710937 149.61328125 116.16796875 C148.69309704 103.36600676 146.59000286 91.58409075 142.875 79.3125 C142.54757812 78.18972656 142.22015625 77.06695312 141.8828125 75.91015625 C141.23333107 73.70501217 140.55862589 71.5072989 139.875 69.3125 C135.585 69.9725 131.295 70.6325 126.875 71.3125 C126.88499275 73.53638206 126.88499275 73.53638206 126.89518738 75.80519104 C126.95618734 89.82498057 127.00124382 103.84475267 127.03043652 117.86464024 C127.04584409 125.07119168 127.06681522 132.27764344 127.10131836 139.48413086 C127.13140947 145.77214966 127.15061928 152.06009619 127.15726548 158.348185 C127.16114479 161.67153926 127.17175433 164.99452461 127.19219017 168.31784248 C127.3493165 194.94594237 127.3493165 194.94594237 123.875 207.3125 C125.525 207.9725 127.175 208.6325 128.875 209.3125 C139.27 216.2425 139.27 216.2425 149.875 223.3125 C150.205 205.1625 150.535 187.0125 150.875 168.3125 C156.155 168.3125 161.435 168.3125 166.875 168.3125 C166.96589339 178.09297843 167.03905447 187.87316969 167.08224869 197.65397739 C167.10299488 202.19713275 167.13107078 206.73998056 167.17675781 211.28295898 C167.22068427 215.6791117 167.24423419 220.07497134 167.25450897 224.47132683 C167.26181741 226.13641909 167.27608502 227.80149796 167.29792023 229.46646309 C167.56112209 250.39613655 162.15586334 268.56060473 147.43725586 283.94604492 C136.61323919 294.76667008 120.61617696 304.3125 104.875 304.3125 C105.0608667 304.92319336 105.2467334 305.53388672 105.43823242 306.16308594 C109.17355193 318.58115276 112.41789314 330.97543113 114.6875 343.75 C114.88174561 344.83571289 115.07599121 345.92142578 115.27612305 347.04003906 C118.43361795 365.60505519 119.19985649 383.71393365 119.2109375 402.5234375 C119.21737694 405.11129833 119.22410612 407.69915846 119.23110962 410.28701782 C119.24300029 415.67085785 119.24688471 421.05462608 119.24560547 426.43847656 C119.24439511 432.65437894 119.26570946 438.8699392 119.2970928 445.08575475 C119.32636818 451.10006851 119.33358311 457.11419509 119.33238602 463.12858963 C119.33474706 465.67635133 119.34359873 468.22411557 119.35905075 470.77183151 C119.37856973 474.31612036 119.37293201 477.85950631 119.36083984 481.40380859 C119.37207886 482.45518509 119.38331787 483.50656158 119.39489746 484.58979797 C119.38650848 485.55373978 119.37811951 486.51768158 119.36947632 487.51083374 C119.37056585 488.34656607 119.37165539 489.18229839 119.37277794 490.04335594 C118.65952614 493.29474767 117.59012131 494.395853 114.875 496.3125 C112.15843869 496.70548743 109.84676274 496.853498 107.13183594 496.82043457 C106.34719845 496.82667453 105.56256096 496.8329145 104.75414658 496.83934355 C102.1222513 496.85531156 99.49127731 496.84265481 96.859375 496.83007812 C94.973668 496.83549756 93.08796523 496.84261922 91.20227051 496.85131836 C86.07832996 496.86957583 80.95471105 496.86247415 75.83076477 496.84980202 C70.47277956 496.83968692 65.11482221 496.84906355 59.75683594 496.85534668 C50.75841315 496.86262743 41.76012162 496.85302414 32.76171875 496.83398438 C22.35289365 496.81221486 11.94438193 496.81926592 1.53556442 496.84129 C-7.3953177 496.85943179 -16.32610538 496.86200828 -25.25699997 496.85153532 C-30.59362679 496.84529369 -35.93010623 496.84448318 -41.26672363 496.85768127 C-46.28352047 496.86922137 -51.29991261 496.86124768 -56.31666565 496.83810425 C-58.15974759 496.83280731 -60.00286349 496.83434771 -61.84593201 496.84315491 C-64.35836247 496.85405536 -66.869489 496.84041444 -69.38183594 496.82043457 C-70.11451817 496.82935746 -70.84720039 496.83828034 -71.60208511 496.84747362 C-75.04693662 496.79418471 -76.82186774 496.5484111 -79.57725525 494.4040451 C-82.22713514 490.82312951 -81.70418358 487.58653171 -81.125 483.3125 C-80.25115008 479.55706666 -79.07759141 475.95250143 -77.8125 472.3125 C-77.50376953 471.35988281 -77.19503906 470.40726562 -76.87695312 469.42578125 C-75.11394066 464.22211076 -75.11394066 464.22211076 -74.125 462.3125 C-70.14254349 460.9850145 -67.67710457 462.31342171 -63.9375 463.75 C-62.95620117 464.11448242 -62.95620117 464.11448242 -61.95507812 464.48632812 C-60.34196714 465.0868293 -58.7330565 465.69859203 -57.125 466.3125 C-57.41109307 467.70948636 -57.70416905 469.1050433 -58 470.5 C-58.24363281 471.66595703 -58.24363281 471.66595703 -58.4921875 472.85546875 C-59.125 475.3125 -59.125 475.3125 -61.125 480.3125 C-7.005 480.3125 47.115 480.3125 102.875 480.3125 C103.57732409 422.86474273 103.57732409 422.86474273 99.625 364.3125 C99.49641602 363.33796875 99.36783203 362.3634375 99.23535156 361.359375 C95.38721003 333.63142674 87.67581792 307.43080414 76.79541016 281.68066406 C75.97321488 279.5652014 75.36384963 277.52545757 74.875 275.3125 C77.16429053 274.14095707 79.45618362 272.97511926 81.75 271.8125 C82.40097656 271.47863281 83.05195313 271.14476562 83.72265625 270.80078125 C88.6484375 268.3125 88.6484375 268.3125 90.875 268.3125 C92.0484316 270.91380627 93.21392508 273.51818508 94.375 276.125 C94.87580078 277.23198242 94.87580078 277.23198242 95.38671875 278.36132812 C95.70253906 279.07353516 96.01835937 279.78574219 96.34375 280.51953125 C96.78364258 281.50143433 96.78364258 281.50143433 97.23242188 282.50317383 C97.875 284.3125 97.875 284.3125 97.875 287.3125 C113.24697759 285.08863522 124.83376008 280.85961346 135.875 269.3125 C136.535 268.3225 137.195 267.3325 137.875 266.3125 C137.00029053 266.04679199 136.12558105 265.78108398 135.22436523 265.50732422 C131.96315944 264.34394925 129.25875718 262.95673998 126.28515625 261.1953125 C125.25326172 260.58816406 124.22136719 259.98101562 123.15820312 259.35546875 C122.09537109 258.72253906 121.03253906 258.08960938 119.9375 257.4375 C116.82288636 255.59868367 113.70808208 253.760252 110.59033203 251.92675781 C108.94917803 250.95109604 107.31688395 249.95999245 105.70263672 248.94042969 C102.49386778 246.91545018 102.49386778 246.91545018 98.828125 246.28515625 C95.33389002 248.12312385 92.15559336 250.538918 89.0625 252.98632812 C84.8980312 255.91387328 81.23922099 256.64703922 76.20019531 257.13256836 C65.61209676 258.30042237 55.23249139 260.49963443 44.79733276 262.59827042 C38.49207029 263.85945484 32.17906993 265.08106031 25.8671875 266.30859375 C17.91699615 267.85499398 9.96985488 269.41314928 2.03222656 271.02294922 C-24.67001589 276.42502463 -50.85672451 281.3442495 -78.1875 281.2421875 C-79.18137726 281.2410004 -80.17525452 281.23981331 -81.19924927 281.23859024 C-93.51581873 281.15573387 -104.00400196 280.0389631 -115.125 274.3125 C-105.58283662 307.05521748 -90.51673614 339.20394158 -63.1640625 360.81640625 C-58.96183846 364.26784733 -55.02194689 367.9738895 -51.0715332 371.70825195 C-48.39993882 374.22731653 -45.72559055 376.65816911 -42.8515625 378.9453125 C-40.3614211 381.10724042 -39.12748544 382.48312742 -37.8125 385.4375 C-37.50699219 386.10007812 -37.20148438 386.76265625 -36.88671875 387.4453125 C-33.38112114 396.03852101 -35.19235144 403.99984636 -38.1171875 412.484375 C-38.42318878 413.41042542 -38.72919006 414.33647583 -39.04446411 415.29058838 C-40.01578098 418.21939961 -41.00743416 421.14083052 -42 424.0625 C-42.65891676 426.0373056 -43.31648108 428.012563 -43.97265625 429.98828125 C-45.43699442 434.38831416 -46.91541956 438.78335858 -48.402771 443.17565918 C-49.31855342 445.88516163 -50.22338393 448.5982542 -51.125 451.3125 C-57.05363717 450.14598574 -62.51298394 448.55730642 -68.125 446.3125 C-66.46642361 439.6160442 -64.42009726 433.09118804 -62.171875 426.57421875 C-61.90596558 425.79934113 -61.64005615 425.0244635 -61.36608887 424.22610474 C-60.25597356 420.99513324 -59.14369772 417.76513498 -58.01171875 414.54174805 C-57.17769211 412.16082097 -56.36100268 409.77451102 -55.546875 407.38671875 C-55.28863953 406.66473801 -55.03040405 405.94275726 -54.76434326 405.19889832 C-53.30208304 400.85735438 -52.75694369 397.72422266 -54.125 393.3125 C-55.38227744 391.43494383 -55.38227744 391.43494383 -57.1171875 389.98046875 C-58.04337891 389.1306543 -58.04337891 389.1306543 -58.98828125 388.26367188 C-59.65214844 387.68166016 -60.31601563 387.09964844 -61 386.5 C-61.67675781 385.88833984 -62.35351562 385.27667969 -63.05078125 384.64648438 C-69.19026707 379.13951647 -75.53470704 373.89105492 -82.0390625 368.8203125 C-87.55760228 364.36012282 -91.80409492 358.90346368 -96.125 353.3125 C-96.5586084 352.75916992 -96.9922168 352.20583984 -97.43896484 351.63574219 C-105.12596566 341.77265206 -111.39818331 331.41943702 -117.125 320.3125 C-117.45483887 319.67876465 -117.78467773 319.0450293 -118.12451172 318.39208984 C-130.9091494 293.51116665 -137.23184528 265.42185903 -137.4375 237.5625 C-137.46650391 236.26828125 -137.49550781 234.9740625 -137.52539062 233.640625 C-137.62439552 218.53095496 -133.04277275 207.58899681 -122.8125 196.5625 C-112.87336471 187.15581839 -101.38077175 183.95388133 -88 183.625 C-87.04351562 183.59083984 -86.08703125 183.55667969 -85.1015625 183.52148438 C-82.77615927 183.44009526 -80.45108124 183.37060388 -78.125 183.3125 C-78.81464844 182.83941406 -79.50429687 182.36632812 -80.21484375 181.87890625 C-93.39796921 172.60189204 -102.529358 162.08673807 -109.125 147.3125 C-109.125 146.3225 -109.125 145.3325 -109.125 144.3125 C-110.115 144.23 -111.105 144.1475 -112.125 144.0625 C-119.76392131 142.95138417 -126.76754421 138.55349678 -131.53515625 132.53125 C-134.83357631 127.68459195 -136.16514562 123.04582779 -137.125 117.3125 C-137.97165726 117.5459613 -138.81831451 117.77942261 -139.69062805 118.0199585 C-150.56166119 120.97267537 -161.50270251 123.55542041 -172.48046875 126.078125 C-174.40003222 126.52071297 -176.31957219 126.96340285 -178.23908997 127.40618896 C-182.22807389 128.32564979 -186.21751837 129.24307961 -190.20727539 130.15917969 C-195.32046621 131.33353241 -200.43214931 132.51431328 -205.54348278 133.69672012 C-209.49153492 134.60906322 -213.44049715 135.51741536 -217.38973427 136.42461395 C-219.27631687 136.85862233 -221.16258012 137.29402133 -223.04851341 137.73084259 C-225.67227631 138.33806694 -228.29724915 138.93975574 -230.92260742 139.54003906 C-231.6981749 139.72076965 -232.47374237 139.90150024 -233.27281189 140.08770752 C-236.67776524 140.86065042 -239.61139094 141.3125 -243.125 141.3125 C-241.77211852 143.72989367 -240.41774829 146.14643349 -239.0625 148.5625 C-238.65636475 149.28816162 -238.25022949 150.01382324 -237.83178711 150.76147461 C-235.93935264 154.13210696 -234.03609416 157.49083227 -232.0390625 160.80078125 C-231.42804688 161.81527344 -230.81703125 162.82976562 -230.1875 163.875 C-229.64222656 164.76316406 -229.09695312 165.65132812 -228.53515625 166.56640625 C-223.74196549 175.90051457 -223.59748912 187.69081447 -225.9296875 197.80078125 C-230.14274838 209.00171208 -238.36782358 217.25029933 -249.125 222.3125 C-255.69220175 224.80823414 -261.7971819 224.71723803 -268.75 224.75 C-269.95785156 224.78287109 -271.16570312 224.81574219 -272.41015625 224.84960938 C-284.74714153 224.92264858 -294.03973801 221.35676398 -302.9296875 212.78125 C-310.64959596 204.0997871 -313.43373996 195.54006135 -313.4609375 184.12109375 C-313.4675943 183.13939713 -313.4742511 182.1577005 -313.48110962 181.14625549 C-313.49121223 179.07107406 -313.49592738 176.9958603 -313.49560547 174.9206543 C-313.49995228 171.78443019 -313.5362249 168.64964491 -313.57421875 165.51367188 C-313.66861758 148.95990916 -311.17055229 137.44979174 -302.125 123.3125 C-301.61324219 122.37792969 -301.10148437 121.44335938 -300.57421875 120.48046875 C-297.59583148 115.43273053 -295.22121744 112.90272656 -289.50830078 111.30175781 C-288.34945374 110.97550415 -287.19060669 110.64925049 -285.99664307 110.31311035 C-278.72624465 108.43410555 -271.43213753 106.6808916 -264.1171875 104.984375 C-262.41652478 104.58682975 -260.71593401 104.18897656 -259.01541138 103.79083252 C-255.48131799 102.96443804 -251.94651538 102.14117375 -248.41113281 101.3203125 C-243.8782974 100.26767178 -239.34716029 99.20791829 -234.8164959 98.14597702 C-231.31873381 97.32679636 -227.82021551 96.51088586 -224.32144547 95.69602203 C-222.64905713 95.30619446 -220.97688266 94.91544823 -219.30492783 94.52376556 C-216.97990955 93.97969819 -214.65393405 93.43993543 -212.32763672 92.90136719 C-211.29444054 92.65832352 -211.29444054 92.65832352 -210.2403717 92.41036987 C-207.45587081 91.76979406 -204.99458269 91.3125 -202.125 91.3125 C-201.61755577 93.20635437 -201.11935426 95.10268666 -200.625 97 C-200.3465625 98.05574219 -200.068125 99.11148438 -199.78125 100.19921875 C-199.18266551 103.03893206 -199.07372655 105.43050473 -199.125 108.3125 C-202.71537485 109.19512968 -206.30627817 110.07554375 -209.89794922 110.95288086 C-213.13410704 111.74347357 -216.3684697 112.54098016 -219.60205078 113.34204102 C-228.23620242 115.46875621 -236.87744072 117.50174926 -245.58024597 119.33009338 C-249.84490872 120.22753534 -254.10314787 121.15374456 -258.36154175 122.08041382 C-260.44372165 122.52464432 -262.52902024 122.95451456 -264.61721802 123.36953735 C-277.83734111 125.43791893 -277.83734111 125.43791893 -287.83203125 133.421875 C-289.13952212 135.89265603 -289.13952212 135.89265603 -290.125 138.3125 C-290.88531681 139.58965298 -291.65414996 140.86184359 -292.4375 142.125 C-296.70045472 151.45593094 -296.31329027 161.9567414 -296.375 172 C-296.3843457 173.05695068 -296.39369141 174.11390137 -296.40332031 175.20288086 C-296.36542406 184.52025847 -296.02417869 193.22538182 -289.8984375 200.62109375 C-283.41280186 206.80673303 -275.3053026 207.59883183 -266.70703125 207.45703125 C-258.75445528 207.01187949 -252.83155024 205.07057666 -247.125 199.3125 C-243.04646994 194.2689093 -242.1473686 188.41038947 -242.3671875 182.04296875 C-244.19362918 173.05198009 -249.96203722 165.34873731 -254.77636719 157.68310547 C-255.89648209 155.89644103 -257.01110515 154.10632143 -258.12011719 152.31274414 C-259.18285579 150.60099635 -260.26352071 148.90021031 -261.36425781 147.21264648 C-264.63939647 141.97898351 -266.1160258 138.50971465 -265.125 132.3125 C-262.06920348 128.3081105 -259.04155152 127.4408878 -254.22924805 126.31347656 C-253.53737963 126.14743172 -252.84551121 125.98138687 -252.13267708 125.81031036 C-249.82460679 125.26047022 -247.51222784 124.73177054 -245.19921875 124.203125 C-243.54952471 123.81498411 -241.90009058 123.42573711 -240.25090027 123.03546143 C-234.88087208 121.77122339 -229.50380555 120.53878382 -224.125 119.3125 C-222.7616087 119.00132736 -222.7616087 119.00132736 -221.37067413 118.68386841 C-215.7828868 117.40954132 -210.19373089 116.14131971 -204.60388565 114.87605286 C-201.7677319 114.23396764 -198.93179744 113.59092192 -196.09591675 112.94763184 C-195.15669813 112.73468224 -194.21747952 112.52173264 -193.24979973 112.30233002 C-191.35136299 111.87187514 -189.45297246 111.44121641 -187.55462837 111.01035309 C-182.70086299 109.9099582 -177.84540851 108.81803319 -172.98657227 107.74023438 C-168.17393241 106.67209747 -163.36639435 105.58330494 -158.56168175 104.48007965 C-156.75366751 104.06894905 -154.94389403 103.66547393 -153.13239479 103.26998138 C-150.63644231 102.72409606 -148.14791488 102.15204775 -145.65942383 101.57324219 C-144.55115738 101.34089371 -144.55115738 101.34089371 -143.42050171 101.10385132 C-141.13796003 100.60519166 -141.13796003 100.60519166 -138.125 99.3125 C-136.56836882 96.81087253 -136.56836882 96.81087253 -136.125 94.3125 C-136.77726563 94.456875 -137.42953125 94.60125 -138.1015625 94.75 C-138.97554687 94.935625 -139.84953125 95.12125 -140.75 95.3125 C-141.60851562 95.498125 -142.46703125 95.68375 -143.3515625 95.875 C-146.31769005 96.34289618 -149.12707333 96.38283259 -152.125 96.3125 C-152.63088147 94.39737728 -153.12948391 92.48033078 -153.625 90.5625 C-153.9034375 89.49515625 -154.181875 88.4278125 -154.46875 87.328125 C-155.125 84.3125 -155.125 84.3125 -155.125 80.3125 C-152.8556649 79.68161872 -150.58473104 79.05779928 -148.3125 78.4375 C-147.04792969 78.08945313 -145.78335938 77.74140625 -144.48046875 77.3828125 C-139.418322 76.06793774 -134.27708995 75.19483326 -129.125 74.3125 C-129.14594727 73.69431396 -129.16689453 73.07612793 -129.18847656 72.43920898 C-129.86945166 49.21925125 -125.76862715 29.24115134 -110.125 11.3125 C-109.35285156 10.34441406 -108.58070313 9.37632813 -107.78515625 8.37890625 C-99.77117411 -1.22163081 -88.61503866 -7.26593272 -77.125 -11.6875 C-75.45630859 -12.33912109 -75.45630859 -12.33912109 -73.75390625 -13.00390625 C-49.0695884 -21.04522205 -20.46495623 -15.7264261 0 0 Z M-91.125 16.3125 C-91.84171875 16.91707031 -92.5584375 17.52164063 -93.296875 18.14453125 C-106.76280333 30.54049241 -111.70123635 46.67973483 -113.125 64.3125 C-113.24230654 67.33900882 -113.23316011 70.28401706 -113.125 73.3125 C-111.18540233 70.53747446 -111.18540233 70.53747446 -110.1171875 68.296875 C-104.03961935 56.1417387 -92.8864438 50.25429865 -80.37890625 46.0546875 C-76.64031775 45.00430364 -72.93802584 44.03709111 -69.125 43.3125 C-68.21717773 43.13444824 -67.30935547 42.95639648 -66.37402344 42.77294922 C-55.78975971 40.97161047 -45.25913623 41.00874845 -34.54980469 41.05175781 C-31.39498463 41.06243238 -28.24073981 41.05183498 -25.0859375 41.0390625 C-12.96210126 41.0319367 -1.13583882 41.64337742 10.875 43.3125 C5.22896586 26.34682491 -6.7021425 14.66048537 -22.125 6.3125 C-44.89909518 -4.90903818 -72.18102026 0.27122683 -91.125 16.3125 Z M125.875 19.3125 C125.545 19.9725 125.215 20.6325 124.875 21.3125 C125.205 21.9725 125.535 22.6325 125.875 23.3125 C126.03020557 25.63523159 126.12519167 27.96209313 126.19140625 30.2890625 C126.21218735 30.97431 126.23296844 31.6595575 126.25437927 32.36557007 C126.31980185 34.55611069 126.37872554 36.74677189 126.4375 38.9375 C126.48069218 40.4218875 126.5243067 41.90626278 126.56835938 43.390625 C126.67547553 47.03112084 126.77676362 50.67175251 126.875 54.3125 C129.12843594 53.91483483 131.37772276 53.49361033 133.625 53.0625 C134.87796875 52.83046875 136.1309375 52.5984375 137.421875 52.359375 C141.10348296 51.24323141 142.58603604 50.35704429 144.875 47.3125 C146.30124442 43.98222763 145.66785596 41.80267809 144.546875 38.43359375 C144.24136719 37.51255859 143.93585938 36.59152344 143.62109375 35.64257812 C143.29238281 34.68802734 142.96367187 33.73347656 142.625 32.75 C142.31175781 31.79158203 141.99851562 30.83316406 141.67578125 29.84570312 C139.84434947 23.90772644 139.84434947 23.90772644 135.875 19.3125 C133.36210325 18.95036432 133.36210325 18.95036432 130.6875 19.125 C129.33591797 19.16560547 129.33591797 19.16560547 127.95703125 19.20703125 C127.26996094 19.24183594 126.58289063 19.27664062 125.875 19.3125 Z M173.890625 20.40625 C172.95605469 20.63183594 172.02148438 20.85742188 171.05859375 21.08984375 C170.09050781 21.32832031 169.12242187 21.56679688 168.125 21.8125 C166.64966797 22.17021484 166.64966797 22.17021484 165.14453125 22.53515625 C162.72033653 23.12355303 160.29724525 23.71613789 157.875 24.3125 C158.205 26.2925 158.535 28.2725 158.875 30.3125 C167.19116812 29.72890925 174.88959326 27.57450586 182.875 25.3125 C182.875 23.3325 182.875 21.3525 182.875 19.3125 C179.4900259 19.3125 177.12118631 19.61830822 173.890625 20.40625 Z M63.875 27.3125 C61.53064275 32.0012145 62.3121685 38.72512392 62.1953125 43.92260742 C62.14877467 45.54577577 62.08071708 47.16848245 61.99023438 48.78979492 C61.20353718 57.74384583 61.20353718 57.74384583 63.9934082 65.97039795 C66.87619887 69.03441223 70.22770247 71.26173699 73.875 73.3125 C76.09965901 72.22134652 78.2141624 71.10403394 80.328125 69.8046875 C90.28811565 64.04569849 99.71831582 63.95723988 110.875 66.3125 C110.97395826 61.11643014 111.04650993 55.92091002 111.09472656 50.72412109 C111.1148285 48.95677128 111.14211472 47.18948787 111.17675781 45.42236328 C111.22534009 42.88036715 111.24798226 40.33925104 111.265625 37.796875 C111.28627014 37.00819031 111.30691528 36.21950562 111.32818604 35.40692139 C111.32962704 31.8752201 111.19052468 29.75131721 109.10058594 26.84472656 C103.36120819 22.89339541 95.99865284 24.09010883 89.28588867 24.07226562 C87.08018016 24.06257766 84.87541132 24.03153867 82.66992188 24 C81.25260965 23.99346708 79.83529082 23.98821774 78.41796875 23.984375 C77.13946045 23.9750293 75.86095215 23.96568359 74.54370117 23.95605469 C70.28208433 24.37010677 67.65730015 25.34920511 63.875 27.3125 Z M38.3125 52.3125 C37.24612305 52.59867187 37.24612305 52.59867187 36.15820312 52.890625 C34.39683746 53.36347484 32.63588042 53.83784631 30.875 54.3125 C32.15514883 57.4640751 32.15514883 57.4640751 34.9375 59.1875 C39.10737836 59.36494163 42.86075539 58.37072135 46.875 57.3125 C46.875 55.0025 46.875 52.6925 46.875 50.3125 C44.05976812 50.3125 41.04258503 51.57584989 38.3125 52.3125 Z M-93.125 71.3125 C-97.31574348 76.81285082 -97.28375336 82.25004561 -97.29296875 88.9609375 C-97.29629715 89.80991608 -97.29962555 90.65889465 -97.30305481 91.53359985 C-97.30811529 93.33408061 -97.31046341 95.13457073 -97.31030273 96.93505859 C-97.31246453 99.64306955 -97.3305603 102.35065617 -97.34960938 105.05859375 C-97.41892364 125.89928324 -95.14298263 144.67136456 -80.125 160.3125 C-68.75222946 170.81522252 -55.52834531 175.67881807 -40.125 176.3125 C-23.72161158 175.40326241 -8.34053713 168.35508213 2.875 156.3125 C11.48087375 145.28434361 15.03481835 135.27162787 14.97265625 121.28515625 C14.96943359 119.99931641 14.96621094 118.71347656 14.96289062 117.38867188 C14.95453802 116.05078055 14.94607311 114.71288993 14.9375 113.375 C14.93247659 112.00976726 14.92791517 110.64453274 14.92382812 109.27929688 C14.91208851 105.95698543 14.89566679 102.63476592 14.875 99.3125 C-11.21172806 95.44779955 -37.35427161 96.50209467 -63.0625 102.421875 C-66.21006114 103.14223364 -69.19531963 103.63443649 -72.4375 103.6875 C-73.23800781 103.71585938 -74.03851563 103.74421875 -74.86328125 103.7734375 C-78.10089493 103.11361295 -79.0524619 101.89004251 -81.125 99.3125 C-82.82439332 96.62320019 -84.35860082 93.85820662 -85.875 91.0625 C-86.28621094 90.31742188 -86.69742188 89.57234375 -87.12109375 88.8046875 C-88.12849544 86.97730769 -89.12758786 85.14535137 -90.125 83.3125 C-89.39925781 83.03664063 -88.67351562 82.76078125 -87.92578125 82.4765625 C-85.2605668 81.36884436 -82.82092049 80.11018625 -80.3125 78.6875 C-78.930625 77.90375 -77.54875 77.12 -76.125 76.3125 C-73.815 79.6125 -71.505 82.9125 -69.125 86.3125 C-64.51425608 85.78156585 -59.95311967 85.12721447 -55.37890625 84.33984375 C-29.22593935 79.98397642 -3.58805101 79.99775021 22.6496582 84.03710938 C25.16290018 84.3943768 25.16290018 84.3943768 28.875 84.3125 C25.34961536 74.87837208 18.9514415 65.57548828 9.75 61 C-17.13306138 50.56776723 -70.14624825 51.83723507 -93.125 71.3125 Z M44.875 74.3125 C45.6391378 79.10030091 48.52246281 83.02020529 50.9921875 87.09179688 C52.99145798 90.4737745 54.5227811 93.36902957 54.875 97.3125 C54.0625 100.0625 54.0625 100.0625 52.875 102.3125 C50.3624811 103.56875945 48.61950914 103.44539595 45.8125 103.4375 C44.46478516 103.44136719 44.46478516 103.44136719 43.08984375 103.4453125 C38.99002092 103.2759395 34.94650599 102.80837769 30.875 102.3125 C30.8656543 103.34020508 30.85630859 104.36791016 30.84667969 105.42675781 C30.80633966 109.29631464 30.74046754 113.16511254 30.66748047 117.03417969 C30.63952282 118.69814185 30.61818501 120.3622306 30.60400391 122.02636719 C30.43101318 141.19374009 25.5156071 156.41436505 11.90234375 170.4375 C8.02054615 174.24653783 3.7358456 177.42690611 -0.69140625 180.5703125 C-3.15558691 182.23418605 -3.15558691 182.23418605 -5.125 184.3125 C4.115 184.3125 13.355 184.3125 22.875 184.3125 C23.535 182.3325 24.195 180.3525 24.875 178.3125 C27.393372 176.59765964 29.60835698 175.32472817 32.33203125 174.04296875 C33.07200851 173.67649734 33.81198578 173.31002594 34.5743866 172.93244934 C36.13753425 172.16278497 37.70542526 171.40268954 39.27758789 170.65161133 C41.67784107 169.50461566 44.06315336 168.33051513 46.44726562 167.15039062 C47.97056171 166.40462913 49.49462649 165.66043534 51.01953125 164.91796875 C52.08697319 164.3961628 52.08697319 164.3961628 53.17597961 163.86381531 C56.71654157 162.17773138 59.97652892 160.84546633 63.875 160.3125 C64.28538173 154.64243743 64.69423995 148.97226757 65.10180664 143.30200195 C65.24008007 141.38107479 65.37873913 139.46017534 65.51782227 137.53930664 C66.30631108 126.64563622 67.05447601 115.7537312 67.65014648 104.84765625 C67.85446762 101.63531088 68.16751625 98.45090911 68.5 95.25 C68.46115814 92.03583621 68.18683616 90.71994631 66.21875 88.1484375 C63.87778448 86.01354289 61.43818948 84.17354921 58.875 82.3125 C57.1029849 80.81389626 55.33212748 79.31392242 53.5625 77.8125 C49.8206939 74.63053844 49.8206939 74.63053844 44.875 74.3125 Z M87.5 85.3125 C84.75863172 88.68649173 84.67446092 91.88845132 84.41015625 96.09057617 C84.29498657 97.87470161 84.29498657 97.87470161 84.17749023 99.69487 C84.09829346 100.98536758 84.01909668 102.27586517 83.9375 103.60546875 C83.85199204 104.95292843 83.76613001 106.30036568 83.67993164 107.64778137 C83.45318959 111.20721065 83.23128544 114.76692581 83.01037598 118.32672119 C82.78846381 121.88922185 82.5620346 125.4514348 82.3359375 129.01367188 C81.99225529 134.4338489 81.6528891 139.85427352 81.31640625 145.27490234 C81.0193216 150.05025429 80.70806995 154.82421658 80.3792572 159.59747314 C80.25761157 161.43575675 80.15466867 163.27525067 80.05297852 165.11474609 C79.93376072 167.25674149 79.77759887 169.39698145 79.58569336 171.53369141 C79.09063403 179.86993687 81.68881847 184.66333766 86.4375 191.375 C87.66796875 193.19921875 88.8984375 195.0234375 90.12890625 196.84765625 C90.7439502 197.73598145 91.35899414 198.62430664 91.99267578 199.53955078 C94.58107447 203.35265484 96.99800879 207.26660749 99.40991211 211.19311523 C100.70283928 213.42702049 100.70283928 213.42702049 102.875 214.3125 C109.85257374 195.59023152 111.03486393 178.55200523 111.04296875 158.6953125 C111.04618946 156.82494075 111.04955412 154.95456924 111.05305481 153.084198 C111.05900226 149.18958959 111.06089892 145.29500325 111.06030273 141.40039062 C111.06020058 136.42077991 111.07392689 131.44131007 111.09107494 126.46173286 C111.10220394 122.60978548 111.10422177 118.7578723 111.10369301 114.90591049 C111.1048689 113.06957381 111.10926863 111.23323612 111.11702538 109.39691544 C111.12685714 106.83238041 111.12393626 104.2681536 111.11791992 101.70361328 C111.12634918 100.57977989 111.12634918 100.57977989 111.13494873 99.4332428 C111.09748428 93.1270264 110.57376283 88.08847932 106.125 83.4375 C99.20500939 78.91289075 93.79447584 80.01188876 87.5 85.3125 Z M-118.25 99.125 C-121.1828959 102.54671188 -121.41328269 105.63203152 -121.33984375 110.0546875 C-120.96299826 114.01499105 -120.04889567 117.81928329 -118.125 121.3125 C-115.65 123.2925 -115.65 123.2925 -113.125 125.3125 C-113.125 116.0725 -113.125 106.8325 -113.125 97.3125 C-116.210081 96.9880267 -116.210081 96.9880267 -118.25 99.125 Z M54.62109375 181.5 C53.34008789 182.17675781 53.34008789 182.17675781 52.03320312 182.8671875 C50.68645508 183.58261719 50.68645508 183.58261719 49.3125 184.3125 C48.41080078 184.78945312 47.50910156 185.26640625 46.58007812 185.7578125 C44.34407677 186.940882 42.10910672 188.12585764 39.875 189.3125 C42.842924 194.74893771 46.20692609 199.70216198 49.875 204.6875 C51.03338443 206.27543481 52.19091555 207.86399241 53.34765625 209.453125 C54.22574951 210.6587207 54.22574951 210.6587207 55.12158203 211.88867188 C58.374534 216.38537296 61.55854544 220.93073663 64.74023438 225.47802734 C68.02689012 230.16046581 71.41868184 234.75393743 74.875 239.3125 C78.94971708 238.44758364 81.68200857 236.60770065 85.125 234.25 C86.20265625 233.51652344 87.2803125 232.78304687 88.390625 232.02734375 C89.21046875 231.46144531 90.0303125 230.89554688 90.875 230.3125 C89.53945339 226.71750673 87.93370421 223.5900018 85.890625 220.34765625 C85.29137207 219.39246094 84.69211914 218.43726563 84.07470703 217.453125 C83.43130371 216.43734375 82.78790039 215.4215625 82.125 214.375 C81.46483887 213.32699219 80.80467773 212.27898437 80.12451172 211.19921875 C78.74286574 209.00802741 77.35920372 206.81810611 75.97363281 204.62939453 C73.91134097 201.369937 71.85739942 198.10534055 69.8046875 194.83984375 C68.53692971 192.83043169 67.2687191 190.82130524 66 188.8125 C65.39961914 187.85738525 64.79923828 186.90227051 64.18066406 185.91821289 C63.62862305 185.04801514 63.07658203 184.17781738 62.5078125 183.28125 C62.02199707 182.51232422 61.53618164 181.74339844 61.03564453 180.95117188 C60.65263184 180.41041016 60.26961914 179.86964844 59.875 179.3125 C57.97275171 179.3125 56.26063804 180.63136727 54.62109375 181.5 Z M-113.5 211.5625 C-119.96463187 219.99223304 -121.28848398 228.87712822 -120.125 239.3125 C-118.22823886 247.4607165 -113.75395114 253.87360057 -107.05859375 258.84765625 C-79.45310466 275.78626584 -32.9795006 260.34514976 -4.19403076 254.6942749 C1.03646674 253.67449444 6.2720084 252.68227715 11.5079546 251.69094276 C17.76386263 250.50512492 24.01682043 249.30410555 30.26953125 248.1015625 C32.05132751 247.76076094 32.05132751 247.76076094 33.86911964 247.41307449 C37.20067167 246.77290973 40.52991929 246.1219787 43.85864258 245.46728516 C44.85003235 245.2781102 45.84142212 245.08893524 46.862854 244.89402771 C48.21335594 244.62485786 48.21335594 244.62485786 49.59114075 244.35025024 C50.3749603 244.19723261 51.15877985 244.04421497 51.96635151 243.88656044 C54.09153793 243.41161504 54.09153793 243.41161504 55.875 241.3125 C55.54927002 240.86148926 55.22354004 240.41047852 54.88793945 239.94580078 C53.89589391 238.57219927 52.90387151 237.19858104 51.91186523 235.82495117 C50.75138669 234.2182232 49.59073906 232.61161734 48.42993164 231.00512695 C45.36862766 226.7679524 42.31007469 222.52884975 39.2578125 218.28515625 C38.67990967 217.48255371 38.10200684 216.67995117 37.5065918 215.85302734 C36.40023855 214.31634589 35.29488747 212.77894229 34.19067383 211.24072266 C33.6830249 210.53608887 33.17537598 209.83145508 32.65234375 209.10546875 C32.21140381 208.4921167 31.77046387 207.87876465 31.31616211 207.24682617 C30.60278687 206.28933472 30.60278687 206.28933472 29.875 205.3125 C29.40877228 204.45996643 28.94254456 203.60743286 28.46218872 202.72906494 C24.41814415 198.95172305 20.38170372 199.63719339 15.03881836 199.71313477 C13.93424286 199.70919205 12.82966736 199.70524933 11.69161987 199.70118713 C8.03223615 199.69446356 4.37409451 199.72368284 0.71484375 199.75390625 C-1.83141335 199.7581571 -4.37767433 199.76048501 -6.92393494 199.76097107 C-12.26808434 199.7671439 -17.61180724 199.78923499 -22.95581055 199.82543945 C-29.10985345 199.8670244 -35.26357501 199.88474567 -41.41775042 199.8880592 C-47.35726554 199.89133009 -53.29669357 199.90650254 -59.23617363 199.9280529 C-61.75300894 199.93689953 -64.26985258 199.94364666 -66.7866993 199.94821358 C-70.31895956 199.95732461 -73.85088772 199.97977922 -77.38305664 200.00610352 C-78.92731071 200.00710052 -78.92731071 200.00710052 -80.50276184 200.00811768 C-93.20482626 200.13780941 -104.43403429 201.95121305 -113.5 211.5625 Z M116.875 223.3125 C116.215 224.405625 115.555 225.49875 114.875 226.625 C114.50375 227.23988281 114.1325 227.85476562 113.75 228.48828125 C112.65876001 230.42611926 112.65876001 230.42611926 112.875 233.3125 C116.27047447 235.2149672 119.66606927 237.11721947 123.06176758 239.01928711 C124.77366143 239.97824368 126.48546458 240.93736215 128.19726562 241.89648438 C134.41675406 245.38012746 140.6400039 248.85668055 146.875 252.3125 C148.37321059 248.94152617 148.875 247.10807881 148.875 243.3125 C146.73832283 241.51500835 144.7178394 240.04441538 142.3828125 238.546875 C141.7216745 238.10861389 141.0605365 237.67035278 140.37936401 237.21881104 C138.97967185 236.2946491 137.57556622 235.3771424 136.16748047 234.46582031 C134.00689636 233.066965 131.8600664 231.64883675 129.71484375 230.2265625 C128.3549261 229.33217753 126.99427289 228.43890979 125.6328125 227.546875 C124.66397629 226.90948395 124.66397629 226.90948395 123.67556763 226.25921631 C120.53188105 224.04104965 120.53188105 224.04104965 116.875 223.3125 Z " fill="#000000" transform="translate(313.125,15.6875)"/>
<path d="M0 0 C0.53414112 1.89212702 1.05178329 3.78891636 1.5625 5.6875 C1.85253906 6.74324219 2.14257812 7.79898438 2.44140625 8.88671875 C3.00124767 12.00695382 2.84690764 13.97693234 2 17 C-0.10320063 17.50404808 -2.20759791 18.00310508 -4.3125 18.5 C-5.48425781 18.7784375 -6.65601563 19.056875 -7.86328125 19.34375 C-11 20 -11 20 -14 20 C-14.50546036 17.91798472 -15.00416835 15.83432933 -15.5 13.75 C-15.7784375 12.58984375 -16.056875 11.4296875 -16.34375 10.234375 C-17 7 -17 7 -17 3 C-15.10614563 2.49255577 -13.20981334 1.99435426 -11.3125 1.5 C-9.72888672 1.08234375 -9.72888672 1.08234375 -8.11328125 0.65625 C-5.28857328 0.0608285 -2.87163292 -0.12786492 0 0 Z " fill="#000000" transform="translate(143,100)"/>
<path d="M0 0 C5.28 0 10.56 0 16 0 C16 5.28 16 10.56 16 16 C10.72 16 5.44 16 0 16 C0 10.72 0 5.44 0 0 Z " fill="#000000" transform="translate(464,152)"/>
</svg>
