<svg width="50" height="44" viewBox="0 0 50 44" fill="none" xmlns="http://www.w3.org/2000/svg">
<g clip-path="url(#clip0_88_718)">
<path d="M50 37.6343C49.801 38.0176 49.6472 38.4338 49.3945 38.7793C48.9221 39.4238 48.2434 39.7046 47.4438 39.6936C47.1069 39.6887 46.7688 39.6936 46.3818 39.6936C46.3818 40.1636 46.3843 40.5811 46.3818 40.9998C46.3708 42.3181 45.603 43.0933 44.2896 43.0969C42.4512 43.1018 40.6116 43.1018 38.7732 43.0969C37.4475 43.0933 36.6968 42.3462 36.6797 41.0083C36.6675 39.9683 36.6772 38.9294 36.6772 37.8894C36.6772 37.7148 36.6772 37.5403 36.6772 37.3108C35.6116 37.3999 34.6106 37.5 33.6072 37.5623C32.406 37.6367 31.2024 37.6868 30 37.7307C29.4653 37.7502 29.1284 37.467 29.1113 37.0374C29.0942 36.6077 29.4177 36.3086 29.9451 36.2744C31.9897 36.1426 34.0344 35.9949 36.0815 35.8936C36.5784 35.8691 36.7053 35.708 36.6895 35.2295C36.6528 34.1748 36.6663 33.1177 36.6846 32.0618C36.6907 31.7249 36.571 31.6248 36.2439 31.5906C31.9934 31.145 27.7356 31.0852 23.4717 31.311C22.3022 31.3733 21.1377 31.5076 19.9707 31.5955C19.6936 31.6162 19.5679 31.7017 19.5728 32.0044C19.5874 33.158 19.5874 34.3115 19.5728 35.4639C19.5691 35.7678 19.6948 35.8533 19.9719 35.8704C22.0178 35.9973 24.0625 36.1328 26.1072 36.2671C26.2842 36.2793 26.5173 36.2427 26.626 36.3403C26.8359 36.5283 27.0764 36.7761 27.1204 37.0312C27.1802 37.3791 26.9128 37.6343 26.554 37.71C26.3818 37.7466 26.1975 37.7368 26.0193 37.7246C24.1528 37.6074 22.2864 37.4853 20.4199 37.3657C20.1624 37.3486 19.9048 37.3352 19.5789 37.3157C19.5789 37.5317 19.5789 37.7051 19.5789 37.8784C19.5789 38.9502 19.5959 40.0232 19.5728 41.095C19.5459 42.3413 18.7793 43.0884 17.5378 43.0933C15.6665 43.1018 13.7952 43.1006 11.9238 43.0933C10.6665 43.0884 9.89014 42.3083 9.87305 41.0535C9.86694 40.6189 9.87305 40.1831 9.87305 39.6912C9.50928 39.6912 9.18823 39.6936 8.86719 39.6912C7.37061 39.6765 6.3147 38.6719 6.26343 37.1765C6.23413 36.3171 6.24878 35.4553 6.25854 34.5935C6.26221 34.3213 6.22559 34.1626 5.90088 34.0857C5.25757 33.9343 4.7876 33.5034 4.4043 32.9773C3.14209 31.2439 1.8689 29.5178 0.626221 27.7698C0.360107 27.395 0.20874 26.9397 0.00488281 26.521C0.00488281 26.228 0.00488281 25.9363 0.00488281 25.6433C0.246582 24.5898 1.05225 24.01 1.82373 23.5059C1.58325 22.8894 1.2854 22.3401 1.15967 21.7542C0.944824 20.7605 1.25854 19.8401 2.03979 19.2126C3.22876 18.2581 4.46655 17.3535 5.74585 16.5234C6.82007 15.8264 8.37036 16.0962 9.22363 17.0642C9.80102 17.7209 10.2893 18.4558 10.8179 19.1553C10.9351 19.3103 11.0498 19.4653 11.1975 19.6631C15.4553 15.8301 20.0464 12.4951 25.0183 9.63379C24.3005 8.64746 23.6023 7.69165 22.9077 6.73584C22.0398 5.54077 22.1997 4.51172 23.3948 3.64014C24.8267 2.59644 26.2598 1.55518 27.6965 0.517579C28.8428 -0.310057 29.884 -0.1416 30.7275 0.999757C30.9583 1.31226 31.1865 1.6272 31.4526 1.98975C31.7383 1.78345 32.0081 1.58447 32.2815 1.3916C33.4619 0.563966 34.8865 0.684816 35.7642 1.82495C37.2192 3.71704 38.6267 5.64941 39.9817 7.61353C40.7874 8.78174 40.47 10.1563 39.3384 11.0181C39.0674 11.2244 38.7903 11.4221 38.4888 11.6443C38.7671 12.0288 39.0369 12.3901 39.2957 12.76C39.9951 13.761 39.856 14.8254 38.8855 15.5469C37.3462 16.6907 35.7922 17.8174 34.2285 18.927C33.2507 19.6204 32.1777 19.4263 31.4478 18.4485C30.7092 17.4597 29.9915 16.4563 29.2725 15.4712C27.3376 17.0239 25.459 18.6194 23.4863 20.0903C21.5088 21.5662 19.4409 22.9187 17.3889 24.342C17.5098 24.3542 17.6404 24.3701 17.771 24.3799C18.7476 24.4482 19.5056 25.1428 19.5508 26.1169C19.6033 27.2522 19.5764 28.3899 19.5825 29.5264C19.5825 29.718 19.5825 29.9097 19.5825 30.166C25.2991 29.5715 30.9619 29.5703 36.6833 30.166C36.6833 29.834 36.6821 29.5618 36.6833 29.2896C36.6895 28.2336 36.6626 27.1765 36.7139 26.123C36.7615 25.1465 37.5195 24.4006 38.4863 24.3872C40.52 24.3591 42.5549 24.3567 44.5886 24.3884C45.603 24.4043 46.3428 25.2222 46.3831 26.2756C46.4014 26.7578 46.3867 27.2412 46.3867 27.7759C46.7603 27.7759 47.0813 27.7734 47.4023 27.7759C48.6475 27.7893 49.4873 28.3997 49.8889 29.5789C49.9194 29.6667 49.967 29.7485 50.0073 29.8328V31.9775C49.7925 32.345 49.5007 32.5952 49.0503 32.4499C48.5986 32.3047 48.5303 31.9214 48.54 31.5039C48.5486 31.1145 48.5571 30.7227 48.5327 30.3345C48.4985 29.7803 48.1995 29.3408 47.7515 29.2822C47.312 29.2249 46.8604 29.27 46.4258 29.27V38.2263C46.7212 38.2263 46.98 38.2263 47.24 38.2263C48.1433 38.2227 48.5303 37.8357 48.5413 36.9153C48.5486 36.3464 48.5242 35.7776 48.551 35.21C48.5779 34.6374 49.093 34.3042 49.5728 34.5386C49.7375 34.6191 49.8633 34.7778 50.0073 34.9023V37.6318L50 37.6343ZM29.0674 1.40015C28.8489 1.52588 28.689 1.60156 28.5474 1.7041C27.1118 2.7417 25.6787 3.78296 24.248 4.82666C23.717 5.21362 23.6987 5.34546 24.0967 5.89111C26.8982 9.73633 29.7021 13.5828 32.5049 17.4268C32.9016 17.9712 33.0261 17.9919 33.5669 17.6013C34.989 16.5723 36.4087 15.542 37.8284 14.5093C38.3582 14.1235 38.3765 13.9929 37.9773 13.4424C37.0325 12.1423 36.084 10.8435 35.1367 9.54468C33.2812 6.99829 31.4282 4.45068 29.5679 1.90796C29.4324 1.72363 29.2444 1.57715 29.0674 1.40137V1.40015ZM18.1091 33.7842C18.1091 31.3806 18.1104 28.9758 18.1091 26.5723C18.1091 25.9314 18.0103 25.8362 17.3718 25.8362C15.5981 25.835 13.8245 25.8337 12.0508 25.8362C11.4514 25.8362 11.3354 25.9509 11.3354 26.5466C11.3342 31.3379 11.3342 36.1304 11.3354 40.9216C11.3354 41.521 11.449 41.6309 12.0496 41.6321C13.8074 41.6345 15.564 41.6333 17.3218 41.6321C18.0261 41.6321 18.1091 41.5527 18.1091 40.8496C18.1116 38.4949 18.1091 36.1389 18.1091 33.7842ZM44.917 33.7341C44.917 31.3306 44.9182 28.927 44.9158 26.5234C44.9158 25.968 44.7827 25.8374 44.2236 25.8374C42.4341 25.835 40.6445 25.835 38.8538 25.8374C38.2483 25.8374 38.1421 25.9387 38.1421 26.5503C38.1396 31.3416 38.1396 36.1328 38.1421 40.9241C38.1421 41.5332 38.2483 41.6333 38.855 41.6345C40.6128 41.637 42.3694 41.6357 44.1272 41.6345C44.8218 41.6345 44.9158 41.5405 44.9158 40.8496C44.9158 38.4778 44.9158 36.1072 44.9158 33.7353L44.917 33.7341ZM25.8899 10.8411C22.1033 12.8198 13.3643 19.2029 12.0935 20.918C12.8894 22.0105 13.6902 23.1091 14.5178 24.2444C19.5081 21.3916 24.1028 18.0566 28.3447 14.2078C27.511 13.064 26.709 11.9641 25.8899 10.8411V10.8411ZM12.76 24.3823C12.6831 24.2456 12.6587 24.1882 12.6233 24.1394C11.1987 22.1826 9.78027 20.2209 8.34473 18.2715C7.79785 17.5281 6.96167 17.4036 6.19751 17.9407C5.25391 18.6047 4.32495 19.2908 3.39233 19.9707C2.40479 20.6921 2.28394 21.438 2.99683 22.4207C4.0271 23.8403 5.06226 25.2576 6.09619 26.6748C6.47827 27.1985 6.86035 27.7209 7.27661 28.2886C8.03711 27.5928 8.97705 27.8381 9.84009 27.7612C9.94751 26.8481 9.66309 25.9351 10.2417 25.1526C10.8655 24.3091 11.7725 24.3433 12.7588 24.3823H12.76ZM32.3071 3.17993C34.0833 5.61524 35.8459 8.03223 37.6147 10.4578C37.9028 10.2502 38.1421 10.083 38.3752 9.90723C38.9856 9.44824 39.1138 8.8916 38.6645 8.26172C37.3743 6.45142 36.0645 4.65454 34.7375 2.86987C34.2566 2.2229 33.7 2.17651 33.0469 2.6416C32.8101 2.81006 32.5757 2.98462 32.3071 3.17993V3.17993ZM9.84375 29.2395C9.58618 29.2395 9.37622 29.2395 9.16626 29.2395C8.04932 29.2395 7.71606 29.5703 7.71484 30.686C7.71362 32.0642 7.71484 33.4424 7.71484 34.8206C7.71484 35.5664 7.70142 36.3123 7.71973 37.0581C7.73682 37.7124 8.0835 38.1628 8.61694 38.2117C9.01489 38.2483 9.41894 38.219 9.84253 38.219V29.2407L9.84375 29.2395ZM2.78809 24.6167C2.54639 24.79 2.36206 24.9207 2.17896 25.0537C1.33789 25.6641 1.25244 26.1646 1.86646 27.0105C3.0957 28.7048 4.32739 30.3979 5.56885 32.0837C5.72998 32.3022 5.95703 32.4719 6.15356 32.6648C6.25854 31.7822 6.18652 30.9644 6.28418 30.1672C6.34888 29.6411 6.20728 29.2859 5.91431 28.894C4.86694 27.4915 3.84521 26.0681 2.78809 24.6167V24.6167Z" fill="#9D00DE"/>
</g>
<defs>
<clipPath id="clip0_88_718">
<rect width="50" height="43.0994" fill="white"/>
</clipPath>
</defs>
</svg>
