<?xml version="1.0" encoding="iso-8859-1"?>
<!-- Uploaded to: SVG Repo, www.svgrepo.com, Generator: SVG Repo Mixer Tools -->
<svg fill="#000000" height="800px" width="800px" version="1.1" id="Layer_1" xmlns="http://www.w3.org/2000/svg" xmlns:xlink="http://www.w3.org/1999/xlink" 
	 viewBox="0 0 511.996 511.996" xml:space="preserve">
<g>
	<g>
		<path d="M418.248,115.806c-10.496-13.295-20.634-26.394-29.423-40.448l-13.073-20.932c-7.398-11.844-17.715-21.769-29.85-28.698
			L330.082,16.7C310.976,5.769,289.233,0,267.208,0h-53.752c-18.611,0-36.753,6.562-51.072,18.483l-18.253,15.215
			c-9.617,8.021-17.314,18.347-22.238,29.85l-3.234,7.543c-6.366,14.857-14.933,29.798-27.776,48.427
			c-13.065,18.955-28.814,62.006,11.271,138.221l-0.048,16.293c0,58.283,5.717,117.649,47.249,157.073
			c6.688,6.349,13.887,12.03,21.247,17.364v54.995c0,4.719,3.814,8.533,8.533,8.533s8.533-3.814,8.533-8.533v-43.204
			c0.303,0.203,0.607,0.403,0.91,0.605c0.575,0.385,1.154,0.773,1.727,1.157l8.192,5.513c0.244,0.165,0.485,0.336,0.728,0.502
			c1.288,0.886,2.571,1.785,3.844,2.703c0.255,0.184,0.51,0.369,0.765,0.554c1.409,1.023,2.813,2.054,4.211,3.089
			c2.83,2.094,5.682,4.202,8.601,6.23c11.157,7.758,23.298,14.323,39.059,14.323c16.487,0,29.015-7.189,40.606-15.412
			c2.381-1.688,4.723-3.419,7.051-5.14c1.528-1.13,3.058-2.259,4.597-3.374c0.065-0.047,0.13-0.095,0.196-0.142
			c1.444-1.043,2.899-2.067,4.367-3.069c0.127-0.087,0.253-0.177,0.381-0.263l8.201-5.513c1.029-0.688,2.064-1.383,3.097-2.075
			v43.517c0,4.719,3.814,8.533,8.533,8.533c4.719,0,8.533-3.814,8.533-8.533v-55.329c7.197-5.237,14.232-10.814,20.779-17.029
			c41.737-39.62,47.488-99.362,47.488-158.037v-14.951C451.69,178.213,433.148,134.693,418.248,115.806z M104.938,129.203
			c13.508-19.61,22.579-35.456,29.406-51.388l3.234-7.544c3.874-9.045,9.924-17.161,17.493-23.467l18.236-15.206
			c11.264-9.378,25.523-14.532,40.149-14.532h53.752c19.063,0,37.871,4.992,54.409,14.447l15.821,9.028
			c9.694,5.538,17.929,13.466,23.842,22.929l13.082,20.932c9.242,14.788,19.695,28.297,30.481,41.967
			c10.214,12.936,22.186,40.352,4.695,89.834v-19.937c0-8.055-1.579-15.881-4.693-23.27c-0.033-0.079-0.072-0.154-0.105-0.232
			c-0.28-0.653-0.573-1.298-0.877-1.934c-0.125-0.261-0.255-0.518-0.384-0.776c-0.237-0.474-0.48-0.944-0.729-1.409
			c-0.138-0.256-0.275-0.511-0.416-0.764c-0.306-0.546-0.622-1.084-0.946-1.615c-0.087-0.142-0.168-0.288-0.256-0.429
			c-0.409-0.657-0.835-1.301-1.272-1.936c-0.136-0.197-0.277-0.39-0.415-0.586c-0.328-0.464-0.663-0.921-1.006-1.372
			c-0.151-0.199-0.303-0.398-0.457-0.595c-0.398-0.508-0.804-1.007-1.219-1.498c-0.089-0.105-0.174-0.213-0.264-0.317
			c-0.522-0.608-1.058-1.201-1.607-1.782c-0.087-0.092-0.176-0.18-0.263-0.271c-0.472-0.493-0.953-0.976-1.444-1.449
			c-0.123-0.118-0.246-0.236-0.37-0.353c-0.529-0.501-1.067-0.991-1.616-1.469c-0.047-0.041-0.092-0.083-0.139-0.123
			c-1.264-1.092-2.58-2.121-3.941-3.089c-0.055-0.039-0.109-0.077-0.164-0.116c-9.362-6.61-20.868-10.253-32.877-10.253
			c-0.526,0-1.055,0.02-1.583,0.034c-0.029,0.001-0.058,0.001-0.087,0.002c-0.872,0.024-1.746,0.068-2.622,0.131
			c-0.029,0.002-0.058,0.003-0.087,0.006c-0.877,0.064-1.756,0.148-2.636,0.252c-0.027,0.003-0.054,0.006-0.081,0.009
			c-0.886,0.106-1.773,0.231-2.661,0.377c-0.02,0.003-0.039,0.006-0.059,0.009c-0.903,0.15-1.807,0.319-2.71,0.511
			c-0.003,0.001-0.006,0.001-0.008,0.002c-2.73,0.581-5.457,1.35-8.159,2.329c-11.733,4.25-34.696,9.31-77.448,9.31
			c-42.751,0-65.714-5.06-77.448-9.31c-7.209-2.618-14.579-3.791-21.755-3.662c-21.535,0.378-41.296,12.469-49.714,32.377
			c-0.272,0.645-0.517,1.298-0.765,1.95c-1.717,4.497-2.867,9.151-3.451,13.91c-0.3,2.435-0.468,4.893-0.468,7.376l-0.06,19.669
			C85.858,169.028,96.029,142.14,104.938,129.203z M350.299,418.722c-6.943,6.594-14.691,12.545-22.657,18.182
			c-2.474,1.755-4.975,3.477-7.486,5.183c-0.548,0.372-1.096,0.743-1.644,1.113c-2.332,1.575-4.67,3.143-7.007,4.702l-3.296,2.213
			l-4.887,3.278c-0.093,0.063-0.182,0.131-0.275,0.194c-3.334,2.267-6.582,4.672-9.829,7.072c-3.57,2.641-7.082,5.232-10.63,7.575
			c-2.625,1.734-5.273,3.323-7.977,4.696c-5.889,2.989-12.055,4.932-18.906,4.932c-14.251,0-25.549-8.354-37.521-17.203
			c-3.212-2.381-6.443-4.766-9.748-7.016c-0.119-0.081-0.235-0.169-0.354-0.25l-3.055-2.049l-4.916-3.306
			c-5.385-3.601-10.769-7.202-16.06-10.931c-0.009-0.006-0.019-0.01-0.027-0.017c-8.059-5.691-15.899-11.702-22.918-18.368
			c-38.653-36.684-41.925-93.807-41.932-144.484l0.081-27.534l0.149-50.437c0-5.769,1.126-11.366,3.345-16.623
			c0.324-0.768,0.682-1.512,1.056-2.245c0.089-0.175,0.179-0.348,0.271-0.521c0.382-0.718,0.78-1.425,1.208-2.108
			c0.019-0.03,0.039-0.058,0.058-0.088c0.415-0.656,0.856-1.291,1.311-1.914c0.116-0.159,0.234-0.318,0.352-0.475
			c0.482-0.636,0.979-1.26,1.502-1.859c0.027-0.031,0.057-0.061,0.084-0.092c0.51-0.58,1.043-1.137,1.589-1.68
			c0.12-0.12,0.24-0.239,0.362-0.357c0.585-0.565,1.184-1.116,1.807-1.639c0.013-0.011,0.027-0.021,0.04-0.032
			c0.618-0.519,1.258-1.012,1.91-1.488c0.108-0.079,0.215-0.158,0.324-0.236c1.363-0.973,2.796-1.854,4.288-2.64
			c0.091-0.048,0.181-0.097,0.272-0.144c1.517-0.783,3.095-1.467,4.72-2.048c0.088-0.031,0.175-0.064,0.263-0.095
			c0.82-0.287,1.651-0.551,2.494-0.785c0.023-0.006,0.046-0.012,0.069-0.018c0.805-0.222,1.622-0.416,2.445-0.589
			c0.109-0.023,0.217-0.047,0.326-0.069c0.844-0.17,1.696-0.317,2.556-0.435c0.079-0.011,0.158-0.018,0.237-0.029
			c0.78-0.102,1.566-0.18,2.357-0.239c0.148-0.011,0.295-0.024,0.443-0.034c0.843-0.053,1.69-0.083,2.542-0.085
			c0.295-0.001,0.59,0.007,0.886,0.012c0.307,0.005,0.614,0.008,0.922,0.02c0.348,0.014,0.697,0.038,1.045,0.061
			c0.274,0.017,0.547,0.031,0.821,0.054c0.386,0.032,0.772,0.076,1.159,0.119c0.241,0.027,0.481,0.048,0.722,0.079
			c0.427,0.054,0.854,0.122,1.282,0.189c0.202,0.032,0.404,0.058,0.606,0.093c0.477,0.082,0.955,0.179,1.432,0.277
			c0.154,0.032,0.308,0.058,0.462,0.091c0.548,0.119,1.096,0.253,1.644,0.395c0.084,0.022,0.168,0.039,0.252,0.061
			c1.274,0.337,2.546,0.733,3.813,1.19c1.04,0.375,2.165,0.757,3.362,1.141c9.104,2.921,22.87,5.989,43.162,7.736
			c10.435,0.899,22.593,1.448,36.727,1.448c0,0,0.001,0,0.001,0s0.001,0,0.001,0c45.227,0,70.229-5.623,83.251-10.325
			c4.45-1.609,8.975-2.46,13.409-2.618c15.839-0.563,30.524,7.719,36.517,21.912c2.227,5.265,3.354,10.863,3.354,16.631v77.376
			C392.433,328.317,387.229,383.671,350.299,418.722z"/>
	</g>
</g>
</svg>