<svg width="50" height="56" viewBox="0 0 50 56" fill="none" xmlns="http://www.w3.org/2000/svg">
<g clip-path="url(#clip0_88_756)">
<path d="M2.14052 55.2632C2.045 55.2213 1.95093 55.1738 1.85397 55.1363C0.755528 54.7152 0.102831 53.9351 0.0362592 52.757C-0.0114991 51.9149 -0.0172879 51.0627 0.0550731 50.225C0.192559 48.62 1.04931 47.4795 2.52114 46.8248C2.86123 46.6734 2.95675 46.4932 2.95385 46.1413C2.93794 44.0375 2.94517 41.9322 2.94807 39.8284C2.94807 39.6323 2.94807 39.429 2.99293 39.2401C3.08845 38.8407 3.36487 38.6301 3.77877 38.6402C4.18978 38.6503 4.45896 38.8666 4.53711 39.2718C4.57474 39.4636 4.5704 39.6655 4.5704 39.863C4.57185 41.8414 4.5704 43.8198 4.5704 45.7981C4.5704 45.9928 4.5704 46.1889 4.5704 46.4283H18.7213C18.7314 46.225 18.7503 46.0173 18.7503 45.8111C18.7517 42.9878 18.7503 40.1644 18.7517 37.3396C18.7546 34.8883 20.1946 33.4607 22.6578 33.4593C24.2468 33.4593 25.8344 33.4593 27.4235 33.4593C29.7694 33.4607 31.2354 34.9156 31.2412 37.2646C31.2485 40.088 31.2427 42.9113 31.2427 45.7361V46.4239H45.424V45.7635C45.424 39.9726 45.424 34.1817 45.424 28.3908C45.424 28.1759 45.4167 27.9567 45.4544 27.7462C45.5267 27.3396 45.7988 27.1146 46.2055 27.1002C46.6121 27.0858 46.903 27.2934 46.9971 27.6943C47.0492 27.9178 47.0463 28.1572 47.0463 28.3908C47.0492 34.2725 47.0521 40.1529 47.0405 46.0346C47.0405 46.46 47.1447 46.6763 47.5702 46.8738C49.1375 47.602 49.9118 48.8883 49.9755 50.6013C49.9928 51.0498 49.9538 51.5025 49.9842 51.9495C50.097 53.5862 49.4545 54.7282 47.8524 55.2632H2.14052V55.2632ZM24.9762 53.6438C32.3382 53.6438 39.7017 53.6438 47.0637 53.6438C47.9798 53.6438 48.3445 53.2833 48.356 52.3735C48.3633 51.7981 48.3662 51.2228 48.3546 50.6474C48.3343 49.7001 47.9769 48.8911 47.1114 48.4672C46.6165 48.225 46.0101 48.1082 45.4544 48.1082C31.8114 48.0894 18.1699 48.0937 4.52698 48.0937C4.32871 48.0937 4.13044 48.0981 3.93218 48.1154C2.74835 48.2163 1.82502 49.0584 1.68898 50.2307C1.61518 50.871 1.64123 51.5227 1.63833 52.1687C1.63399 53.3425 1.93791 53.6438 3.10292 53.6438C10.394 53.6438 17.6837 53.6438 24.9748 53.6438H24.9762ZM29.5755 46.4412C29.5957 46.3201 29.6131 46.2668 29.6131 46.2134C29.6145 43.1579 29.6305 40.1024 29.6102 37.0469C29.603 35.8327 28.7969 35.0844 27.5783 35.08C25.9183 35.0743 24.2598 35.0786 22.5999 35.08C21.1092 35.08 20.3798 35.8053 20.3784 37.2978C20.3755 40.1557 20.3769 43.0137 20.3784 45.8702C20.3784 46.0591 20.3986 46.248 20.4088 46.4412H29.574H29.5755Z" fill="#9D00DE"/>
<path d="M24.985 14.7152C19.9299 14.7152 14.8747 14.7109 9.82105 14.7167C7.22329 14.7195 5.22468 16.2509 4.69789 18.6546C4.5908 19.1406 4.57633 19.6539 4.57633 20.1557C4.56764 25.354 4.57199 30.5523 4.57054 35.7505C4.57054 36.6099 4.29412 37.0224 3.73839 37.0036C3.19857 36.9863 2.94676 36.5926 2.94676 35.7592C2.94676 30.5076 2.95399 25.2545 2.94386 20.0029C2.93952 17.6251 3.84403 15.7174 5.76739 14.2884C5.92658 14.1702 6.02934 13.876 6.03078 13.664C6.04815 10.9474 6.04091 8.23216 6.04236 5.5155C6.04236 2.19755 8.24214 0 11.565 0C20.5189 0 29.4743 0 38.4282 0C41.7554 0 43.9523 2.19178 43.9552 5.50973C43.9566 8.22639 43.961 10.9416 43.9479 13.6583C43.9479 13.9769 44.0348 14.1716 44.2996 14.3677C45.9596 15.5934 46.9249 17.2343 47.0103 19.2992C47.0841 21.0584 47.0493 22.8234 47.0407 24.5869C47.0378 25.1334 46.6832 25.4751 46.2186 25.4665C45.757 25.4578 45.4545 25.1118 45.4284 24.5552C45.4212 24.411 45.4256 24.2668 45.4256 24.124C45.4256 22.7037 45.4415 21.2819 45.4212 19.8616C45.3865 17.3194 43.8683 15.3771 41.4935 14.8479C41.0231 14.7426 40.5267 14.721 40.0419 14.721C35.0229 14.7123 30.004 14.7152 24.985 14.7152V14.7152ZM42.3299 13.2199C42.3299 13.1637 42.3299 13.0036 42.3299 12.8435C42.3299 10.3619 42.3343 7.87888 42.3299 5.39726C42.3256 3.11608 40.8176 1.62076 38.5209 1.61932C29.5119 1.61788 20.503 1.61788 11.4955 1.61932C9.17125 1.61932 7.67048 3.11608 7.66759 5.43187C7.66469 7.89618 7.66759 10.3605 7.66759 12.8248C7.66759 12.9964 7.68206 13.1665 7.6864 13.2502C8.66328 13.1968 9.59673 13.1031 10.5287 13.1031C19.8083 13.0916 29.0879 13.0916 38.3675 13.1031C39.6772 13.1045 40.9855 13.1795 42.3328 13.2213L42.3299 13.2199Z" fill="#9D00DE"/>
<path d="M34.3644 24.4553C34.3644 23.7185 34.3514 22.9802 34.3673 22.2433C34.4035 20.5159 35.5323 19.3926 37.2704 19.3508C37.9738 19.3349 38.6785 19.3349 39.3819 19.3508C41.1403 19.3911 42.2821 20.5375 42.2995 22.2895C42.314 23.7646 42.3154 25.2383 42.2995 26.7134C42.2807 28.464 41.1229 29.6017 39.3631 29.619C38.6409 29.6262 37.9188 29.6319 37.1966 29.6175C35.5714 29.5829 34.444 28.4986 34.3745 26.8821C34.3398 26.0746 34.3687 25.2642 34.3687 24.4553C34.3673 24.4553 34.3658 24.4553 34.3644 24.4553V24.4553ZM35.9896 24.4668C35.9896 24.4668 35.9911 24.4668 35.9925 24.4668C35.9925 25.2397 35.9737 26.0141 35.9983 26.7855C36.0229 27.5671 36.444 27.9766 37.2226 27.9968C37.9434 28.0155 38.6655 28.0126 39.3877 27.9982C40.2227 27.9823 40.6627 27.5613 40.6728 26.7293C40.6902 25.2368 40.6902 23.7444 40.6728 22.2534C40.6627 21.4344 40.2141 20.9975 39.3848 20.973C38.7003 20.9528 38.0128 20.9571 37.3283 20.9715C36.431 20.9903 36.0084 21.4142 35.9925 22.3111C35.9795 23.0306 35.9896 23.7487 35.9896 24.4683V24.4668Z" fill="#9D00DE"/>
<path d="M15.6329 24.5191C15.6329 25.2559 15.6459 25.9942 15.63 26.7311C15.5924 28.4946 14.4549 29.6049 12.6806 29.6208C11.9584 29.6265 11.2363 29.6352 10.5141 29.6179C8.90333 29.5789 7.74411 28.4715 7.70504 26.8652C7.66596 25.2833 7.66741 23.7001 7.70504 22.1182C7.73977 20.62 8.76006 19.504 10.2464 19.39C11.2493 19.3136 12.271 19.3223 13.271 19.4218C14.5359 19.5472 15.4954 20.5638 15.588 21.8241C15.6546 22.7181 15.6011 23.6208 15.6011 24.5191C15.6112 24.5191 15.6213 24.5191 15.6329 24.5191V24.5191ZM9.31869 24.5018C9.31869 25.2213 9.31 25.9409 9.32158 26.659C9.33461 27.5616 9.7543 27.9856 10.6472 28C11.3332 28.0115 12.0192 28.0115 12.7037 28C13.5735 27.9841 13.9947 27.5732 14.0033 26.695C14.0193 25.2213 14.0193 23.7462 14.0033 22.2725C13.9932 21.4117 13.5561 20.9921 12.6849 20.9719C11.9989 20.956 11.313 20.9531 10.6284 20.9719C9.77456 20.9949 9.33895 21.4376 9.32303 22.2913C9.30855 23.0281 9.32013 23.765 9.32013 24.5032L9.31869 24.5018Z" fill="#9D00DE"/>
<path d="M28.9673 24.4845C28.9673 25.2213 28.9775 25.9596 28.9659 26.6965C28.9369 28.4831 27.7922 29.6063 25.9933 29.6208C25.2899 29.6265 24.5852 29.6323 23.8818 29.6193C22.2349 29.5876 21.08 28.4888 21.0395 26.8464C21.0004 25.2833 21.0033 23.7174 21.0395 22.1529C21.0771 20.5379 22.1886 19.4304 23.8152 19.3583C24.6083 19.3237 25.4043 19.3223 26.1974 19.3583C27.8211 19.4348 28.908 20.5407 28.9644 22.1629C28.9919 22.9358 28.9688 23.7087 28.9688 24.4831H28.9717L28.9673 24.4845ZM27.3421 24.4744H27.3392C27.3392 23.7188 27.358 22.9632 27.3334 22.2091C27.3088 21.4391 26.8833 21.0065 26.1134 20.9762C25.3753 20.9474 24.6329 20.9488 23.8948 20.9748C23.1206 21.0022 22.6719 21.429 22.6603 22.1903C22.6357 23.7174 22.6357 25.2473 22.6589 26.7743C22.6705 27.5732 23.1162 27.9798 23.931 27.9971C24.617 28.0115 25.303 28.0087 25.9875 27.9986C26.9166 27.9856 27.3262 27.5732 27.3392 26.6301C27.3493 25.9106 27.3407 25.1925 27.3407 24.473L27.3421 24.4744Z" fill="#9D00DE"/>
<path d="M34.363 38.5869C34.363 37.85 34.3529 37.1118 34.3644 36.3749C34.3948 34.5883 35.5497 33.4665 37.3472 33.4622C38.0331 33.4607 38.7191 33.4578 39.4051 33.4622C41.039 33.4737 42.2402 34.5753 42.288 36.199C42.3343 37.7981 42.3357 39.4016 42.288 41.0007C42.2388 42.6042 41.052 43.703 39.4485 43.7217C38.6728 43.7304 37.8957 43.7347 37.1199 43.7188C35.651 43.69 34.499 42.6402 34.3963 41.1766C34.3355 40.3172 34.3847 39.4506 34.3847 38.5883C34.3775 38.5883 34.3717 38.5883 34.3644 38.5883L34.363 38.5869ZM35.9882 38.5667C35.9882 39.2862 35.9882 40.0058 35.9882 40.7253C35.9882 40.7614 35.9882 40.7974 35.9882 40.8335C36.0258 41.6698 36.4455 42.0923 37.2733 42.1024C37.9955 42.111 38.7177 42.1139 39.4398 42.1009C40.1736 42.088 40.6497 41.6698 40.6627 40.9402C40.6917 39.3756 40.6917 37.8111 40.6627 36.2466C40.6497 35.5184 40.1707 35.0973 39.4384 35.0844C38.735 35.0714 38.0302 35.0771 37.3269 35.0815C36.434 35.0887 36.007 35.5069 35.9911 36.4095C35.9781 37.1291 35.9882 37.8486 35.9882 38.5681V38.5667Z" fill="#9D00DE"/>
<path d="M15.6328 38.6391C15.6328 39.3587 15.6429 40.0782 15.6313 40.7978C15.6009 42.5944 14.4634 43.7134 12.6631 43.7235C11.9597 43.7278 11.2549 43.7307 10.5516 43.7235C8.94805 43.7048 7.75699 42.6016 7.70923 41.004C7.66147 39.4048 7.66437 37.8014 7.70779 36.2022C7.75265 34.5829 8.95529 33.474 10.5892 33.4639C11.3475 33.4596 12.1059 33.4524 12.8642 33.4654C14.3303 33.4899 15.4953 34.5382 15.5995 35.9989C15.6632 36.8756 15.6111 37.7595 15.6111 38.6406C15.6183 38.6406 15.6255 38.6406 15.6342 38.6406L15.6328 38.6391ZM14.0075 38.5843H14.0046C14.0046 37.8288 14.0235 37.0732 14.0003 36.319C13.9757 35.5159 13.5357 35.0948 12.7398 35.0833C12.0176 35.0732 11.2954 35.0717 10.5733 35.0833C9.81349 35.0948 9.34025 35.5245 9.32867 36.283C9.30407 37.8288 9.30262 39.376 9.33012 40.9232C9.34314 41.6759 9.82073 42.0912 10.5921 42.1027C11.2781 42.1128 11.9641 42.1099 12.65 42.1027C13.5748 42.0955 13.9916 41.6802 14.0061 40.7415C14.0162 40.022 14.0075 39.3024 14.0075 38.5829V38.5843Z" fill="#9D00DE"/>
<path d="M20.6038 11.2514C18.4561 11.26 16.7035 9.53686 16.6905 7.40276C16.676 5.28019 18.4228 3.52965 20.5691 3.51667C22.7211 3.5037 24.4621 5.22396 24.4679 7.36815C24.4737 9.521 22.7616 11.2413 20.6038 11.2499V11.2514ZM22.8426 7.3768C22.8383 6.11653 21.8281 5.12302 20.5633 5.13744C19.3288 5.15042 18.3288 6.14393 18.3157 7.36959C18.3013 8.60824 19.3259 9.63203 20.5821 9.63347C21.8513 9.63347 22.847 8.6414 22.8426 7.37825V7.3768Z" fill="#9D00DE"/>
<path d="M11.4834 6.44388H14.1419C14.1419 5.79067 14.1376 5.15044 14.1419 4.51021C14.1477 3.86421 14.4328 3.52102 14.948 3.52247C15.4546 3.52535 15.7599 3.88296 15.7628 4.51742C15.7701 6.43955 15.7672 8.36169 15.7614 10.2838C15.7614 10.4583 15.7339 10.6501 15.6586 10.8058C15.4806 11.1793 15.1521 11.3119 14.7585 11.2254C14.3561 11.136 14.1506 10.8563 14.1463 10.4482C14.139 9.68108 14.1448 8.91396 14.1448 8.11944H11.4834C11.4834 8.87791 11.495 9.62629 11.4791 10.3747C11.466 10.9745 11.0941 11.3163 10.563 11.2384C10.0926 11.1692 9.8712 10.8491 9.8683 10.4107C9.85528 8.39918 9.85238 6.3862 9.8683 4.37466C9.87264 3.82672 10.2287 3.5066 10.7106 3.52391C11.1737 3.53977 11.466 3.85123 11.4776 4.38476C11.4921 5.06248 11.4805 5.7402 11.4805 6.44388H11.4834Z" fill="#9D00DE"/>
<path d="M32.5133 8.2163V9.63663C33.0879 9.63663 33.6421 9.61356 34.1921 9.6424C34.8911 9.67989 35.2992 10.3086 34.9461 10.8248C34.8072 11.0281 34.496 11.2156 34.2529 11.23C33.4077 11.279 32.5582 11.2617 31.7116 11.2459C31.1804 11.2358 30.8751 10.9387 30.8707 10.3951C30.8562 8.40087 30.8562 6.40663 30.8707 4.4124C30.8751 3.8832 31.1992 3.57895 31.7275 3.56886C32.5567 3.55155 33.386 3.55155 34.2152 3.56886C34.7203 3.57895 35.059 3.91925 35.0648 4.36482C35.0705 4.82913 34.716 5.16511 34.1791 5.17808C33.6407 5.19106 33.1009 5.18097 32.5249 5.18097V6.59842C32.9981 6.59842 33.4612 6.58976 33.9229 6.59986C34.5163 6.61284 34.8636 6.91997 34.8622 7.41312C34.8622 7.90916 34.5221 8.20476 33.9215 8.21485C33.4728 8.22206 33.0227 8.2163 32.5104 8.2163H32.5133Z" fill="#9D00DE"/>
<path d="M27.9589 5.16511C27.9589 6.19034 27.9589 7.1752 27.9589 8.15862C27.9589 8.87671 27.9661 9.59481 27.956 10.3129C27.9459 10.9286 27.6607 11.2473 27.1528 11.2459C26.652 11.2459 26.3452 10.9156 26.3394 10.31C26.3279 8.71233 26.3351 7.11464 26.3322 5.51694C26.3322 5.41312 26.3177 5.30786 26.3033 5.12617C26.0167 5.12617 25.7519 5.14348 25.4914 5.12185C24.9573 5.07859 24.6621 4.7801 24.6621 4.31435C24.6621 3.84427 24.9631 3.53136 25.4957 3.52271C26.613 3.50541 27.7302 3.50541 28.8475 3.52271C29.3482 3.53136 29.6449 3.83706 29.6623 4.28118C29.6811 4.74405 29.3829 5.06417 28.8634 5.11752C28.5826 5.14636 28.2975 5.14636 27.9603 5.16222L27.9589 5.16511Z" fill="#9D00DE"/>
<path d="M37.9779 9.63519C38.4454 9.63519 38.839 9.62221 39.2327 9.63807C39.7739 9.6597 40.1256 9.99568 40.1213 10.4557C40.1169 10.9214 39.7725 11.2372 39.2168 11.2473C38.5496 11.2588 37.881 11.2603 37.2153 11.2415C36.6349 11.2257 36.36 10.9488 36.3571 10.3648C36.3484 8.38789 36.3498 6.40952 36.3571 4.43259C36.3585 3.86157 36.6508 3.53713 37.1313 3.52271C37.6263 3.50829 37.9693 3.85292 37.9736 4.43403C37.9866 5.94377 37.9779 7.4535 37.9779 8.96467C37.9779 9.15934 37.9779 9.35545 37.9779 9.63519Z" fill="#9D00DE"/>
</g>
<defs>
<clipPath id="clip0_88_756">
<rect width="50" height="55.2632" fill="white"/>
</clipPath>
</defs>
</svg>
