<?xml version="1.0" encoding="iso-8859-1"?>
<!-- Uploaded to: SVG Repo, www.svgrepo.com, Generator: SVG Repo Mixer Tools -->
<svg fill="#000000" height="800px" width="800px" version="1.1" id="Layer_1" xmlns="http://www.w3.org/2000/svg" xmlns:xlink="http://www.w3.org/1999/xlink" 
	 viewBox="0 0 511.998 511.998" xml:space="preserve">
<g>
	<g>
		<path d="M384.992,199.315c12.075,12.203,28.16,18.965,45.333,18.987h0.192c17.088,0,33.131-6.635,45.227-18.731
			c24.811-24.811,24.939-65.301,0.256-90.24l-93.675-94.784c-2.155-5.141-6.315-9.344-11.691-11.499l-2.389-0.96
			c-7.957-3.797-17.771-2.411-24.363,4.181c-48.448,48.448-127.317,48.448-175.808-0.043c-6.421-6.421-15.957-7.872-23.765-4.373
			l-2.944,1.195c-5.376,2.155-9.536,6.357-11.691,11.499l-93.696,94.784c-24.661,24.939-24.533,65.429,0.277,90.24
			c12.096,12.096,28.139,18.731,45.227,18.731h0.192c15.765-0.021,30.656-5.739,42.496-16.299v93.184L78.368,432.574
			c-6.208,18.624-3.2,38.443,8.277,54.357c11.499,15.915,29.333,25.045,48.939,25.045h3.136c26.027,0,49.024-16.576,57.237-41.237
			l50.24-150.763h13.44l69.419,156.181c9.963,22.443,31.701,35.84,54.997,35.84c6.805,0,13.739-1.131,20.544-3.52
			c15.531-5.44,27.733-16.896,34.389-32.277c6.912-16.043,6.805-34.432-0.341-50.475l-58.475-131.605v-98.88L384.992,199.315z"/>
	</g>
</g>
</svg>