<?xml version="1.0" encoding="UTF-8"?>
<svg version="1.1" xmlns="http://www.w3.org/2000/svg" width="512" height="512">
<path d="M0 0 C1.21465942 0.07661865 1.21465942 0.07661865 2.45385742 0.15478516 C4.05865412 0.25865237 5.66324068 0.36582762 7.26757812 0.4765625 C9.06827917 0.59974277 10.86999089 0.70804295 12.671875 0.8125 C17.30874743 1.14972709 20.68884353 1.60188995 24.4375 4.625 C26.00685594 7.76371188 25.78951103 10.16355822 25.4375 13.625 C23.6875 16.5625 23.6875 16.5625 20.4375 18.625 C15.38376745 19.29934775 10.38482065 18.93429489 5.36328125 18.13671875 C-3.78844356 16.81620639 -9.94042109 19.27516112 -18.10546875 23.05859375 C-21.5625 24.625 -21.5625 24.625 -23.5625 24.625 C-23.5625 30.565 -23.5625 36.505 -23.5625 42.625 C-18.89352911 41.60478751 -18.89352911 41.60478751 -14.22998047 40.56030273 C-10.02991703 39.68144487 -6.68369779 39.36996101 -2.5625 40.625 C0.01992401 42.69800052 1.27650898 43.94133951 2.04345703 47.19824219 C2.09356934 48.17954102 2.14368164 49.16083984 2.1953125 50.171875 C2.29610107 51.87476685 2.29610107 51.87476685 2.39892578 53.61206055 C2.47989502 55.47471558 2.47989502 55.47471558 2.5625 57.375 C2.66860596 59.32756714 2.66860596 59.32756714 2.77685547 61.31958008 C2.93251632 64.19063666 3.07584016 67.06198588 3.2109375 69.93408203 C3.40517411 74.0335368 3.62640451 78.1311085 3.85476685 82.22879028 C4.09732971 86.58967208 4.32995247 90.95107468 4.5625 95.3125 C4.60715393 96.13528442 4.65180786 96.95806885 4.69781494 97.80578613 C5.18125942 106.84346822 5.5384865 115.87895474 5.63671875 124.9296875 C5.66084335 126.09627144 5.66084335 126.09627144 5.68545532 127.28642273 C5.7081022 133.14088185 4.33991839 137.58074362 1.75390625 142.86328125 C-1.94230889 150.61765545 -3.86449043 159.20880569 -1.5625 167.625 C1.36910805 174.97634201 8.62517845 178.43562831 15.4375 181.625 C24.41675173 185.28778914 33.74360396 187.85295119 43.1875 190 C43.92564941 190.16781982 44.66379883 190.33563965 45.42431641 190.50854492 C47.41818207 190.93350847 49.42791199 191.28199803 51.4375 191.625 C52.45714844 191.82867187 53.47679687 192.03234375 54.52734375 192.2421875 C59.42166344 191.20419755 61.44051434 187.29224351 64.25 183.375 C64.85730957 182.55902344 65.46461914 181.74304688 66.09033203 180.90234375 C67.31253256 179.25763417 68.52716139 177.60726901 69.73388672 175.95117188 C71.24516199 173.8876249 72.78371326 171.85185734 74.34765625 169.828125 C78.57033767 165.17903696 78.57033767 165.17903696 80.4375 159.625 C79.25671875 159.10550781 78.0759375 158.58601562 76.859375 158.05078125 C75.30177121 157.3470446 73.74449663 156.64257896 72.1875 155.9375 C71.41019531 155.59783203 70.63289062 155.25816406 69.83203125 154.90820312 C65.27826155 152.82592382 62.10867172 151.05800839 59.4375 146.625 C59.1875 143.3125 59.1875 143.3125 59.4375 140.625 C54.48080922 139.11456612 49.57912616 138.05646877 44.45703125 137.2578125 C42.94844809 137.00984123 41.43998783 136.76112126 39.93164062 136.51171875 C37.58253679 136.12705577 35.23303882 135.74735348 32.88110352 135.38037109 C30.59125487 135.02083367 28.30552233 134.64101395 26.01953125 134.2578125 C25.31842728 134.15348907 24.6173233 134.04916565 23.89497375 133.94168091 C19.53877128 133.19093233 17.13434812 132.16733971 14.4375 128.625 C13.28038192 124.99936334 13.1023291 123.36237598 14.6875 119.875 C16.4375 117.625 16.4375 117.625 19.4375 115.625 C29.13229531 115.27173591 39.19206532 117.8963955 48.6875 119.6875 C50.22255616 119.97254478 51.75771195 120.25705353 53.29296875 120.54101562 C57.00898743 121.2295172 60.72359156 121.92520869 64.4375 122.625 C64.49301025 122.02099365 64.54852051 121.4169873 64.60571289 120.79467773 C64.6855542 119.99489502 64.76539551 119.1951123 64.84765625 118.37109375 C64.9237915 117.5814624 64.99992676 116.79183105 65.07836914 115.97827148 C65.7484997 111.58711685 67.26049077 107.80200923 70.4375 104.625 C73.49852957 104.06361427 76.37004582 104.12463513 79.4375 104.625 C82.0625 106.4375 82.0625 106.4375 83.4375 109.625 C84.12730213 119.44560404 80.56174311 130.09060652 78.4375 139.625 C79.64792969 139.99367187 80.85835937 140.36234375 82.10546875 140.7421875 C88.5537362 142.89454693 94.6148341 145.84243757 100.75 148.75 C103.24623393 149.9295603 105.74371745 151.10643381 108.2421875 152.28125 C109.16664925 152.71650497 109.16664925 152.71650497 110.10978699 153.16055298 C113.79462632 154.88588003 117.50304467 156.52695542 121.2578125 158.09375 C131.27063101 162.2871128 138.97088145 166.82048493 146.89550781 174.23095703 C149.5382813 176.62016486 152.36539201 178.76615932 155.1875 180.9375 C161.20245148 185.61205356 167.09350521 190.42496142 172.96411133 195.27905273 C183.70686046 204.16142765 194.52973544 212.94598541 205.4375 221.625 C212.19364901 218.03551471 217.90691245 213.45187912 223.85351562 208.66992188 C232.34812029 201.93034137 238.43301237 199.40227915 249.4375 200.625 C254.85998209 202.31178265 258.27172995 206.10247136 261.4375 210.625 C263.99796832 216.35557196 264.1506658 221.27382088 262.33203125 227.26953125 C260.32563234 232.41918967 257.14462264 236.57113316 253.8125 240.9375 C253.18512939 241.77273193 252.55775879 242.60796387 251.91137695 243.46850586 C244.52597015 253.24959019 236.78951063 262.64770515 228.4375 271.625 C227.39916016 272.74455078 227.39916016 272.74455078 226.33984375 273.88671875 C221.39060592 279.04575087 217.08266296 282.61245473 210.0625 284.5625 C204.4416493 284.65941122 199.80666648 283.69091317 195.484375 279.921875 C193.16714544 277.36284757 191.03965101 274.87920945 189.53613281 271.74755859 C185.95599767 264.77235477 180.84071243 263.12567331 173.6875 260.625 C171.42439326 259.77582534 169.16267402 258.92294391 166.90234375 258.06640625 C165.79745605 257.65406738 164.69256836 257.24172852 163.55419922 256.81689453 C143.54138977 249.16355474 114.42067637 234.59135275 104.4375 214.625 C101.81983724 214.21877865 101.81983724 214.21877865 98.61328125 214.1328125 C96.75135132 214.0385498 96.75135132 214.0385498 94.85180664 213.94238281 C94.1844046 213.91164673 93.51700256 213.88091064 92.82937622 213.84924316 C65.36024334 212.53821362 37.20592597 209.79357091 11.4375 199.625 C12.07674549 203.77187742 12.72499258 207.91729697 13.375 212.0625 C13.55740234 213.24650391 13.73980469 214.43050781 13.92773438 215.65039062 C14.10498047 216.77509766 14.28222656 217.89980469 14.46484375 219.05859375 C14.62718506 220.10072021 14.78952637 221.14284668 14.95678711 222.21655273 C15.19419811 224.5667063 15.19419811 224.5667063 16.4375 225.625 C19.3122136 226.14202662 22.17827679 226.60570412 25.06640625 227.03515625 C25.93063705 227.16691757 26.79486786 227.29867889 27.68528748 227.43443298 C30.45628754 227.8559896 33.22811571 228.27180121 36 228.6875 C37.87440612 228.97162834 39.74875591 229.25612864 41.62304688 229.54101562 C46.22722095 230.24000112 50.83214585 230.9338341 55.4375 231.625 C55.49083496 231.00431641 55.54416992 230.38363281 55.59912109 229.74414062 C55.67727051 228.93138672 55.75541992 228.11863281 55.8359375 227.28125 C55.90989746 226.47494141 55.98385742 225.66863281 56.06005859 224.83789062 C56.4375 222.625 56.4375 222.625 58.0625 220.125 C61.30634407 218.07625637 63.6035719 217.625 67.4375 217.625 C70.23939446 219.39141172 71.95274911 220.65549822 73.4375 223.625 C73.26160737 233.02993788 71.73121474 242.39935141 70.328125 251.68359375 C70.2249572 252.3702669 70.1217894 253.05694004 70.0154953 253.76442146 C69.47087424 257.38380726 68.92004891 261.00218652 68.36425781 264.61987305 C67.79494143 268.33485687 67.24899358 272.05290097 66.70785904 275.77207851 C66.28352553 278.65758145 65.8415239 281.54018076 65.39476776 284.42228889 C65.18558233 285.79231789 64.98304469 287.16338032 64.78754425 288.535429 C63.45886968 297.8060575 62.20973939 302.65690173 54.95703125 308.6875 C54.06371094 309.326875 53.17039063 309.96625 52.25 310.625 C47.03397141 314.43646765 41.90405584 318.3361434 36.8125 322.3125 C35.66551636 323.20678711 35.66551636 323.20678711 34.49536133 324.11914062 C32.92470554 325.34390248 31.3543136 326.56900277 29.78417969 327.79443359 C26.00527655 330.74222966 22.22119793 333.68336276 18.4375 336.625 C16.93747369 337.79163284 15.43747373 338.95829955 13.9375 340.125 C10.9375 342.45833333 7.9375 344.79166667 4.9375 347.125 C4.1935498 347.70362793 3.44959961 348.28225586 2.68310547 348.87841797 C-0.2890625 351.19010417 -3.26123047 353.50179036 -6.23339844 355.81347656 C-7.00200195 356.4112793 -7.77060547 357.00908203 -8.5625 357.625 C-10.2734375 358.95572917 -11.984375 360.28645833 -13.6953125 361.6171875 C-14.530625 362.266875 -15.3659375 362.9165625 -16.2265625 363.5859375 C-18.5703125 365.40885417 -20.9140625 367.23177083 -23.2578125 369.0546875 C-23.89734863 369.55210449 -24.53688477 370.04952148 -25.19580078 370.56201172 C-25.64681152 370.91279785 -26.09782227 371.26358398 -26.5625 371.625 C-26.2015625 372.86894531 -25.840625 374.11289062 -25.46875 375.39453125 C-19.3193687 397.17021505 -19.3193687 397.17021505 -23.1875 406 C-25.97322909 410.82069431 -30.26076579 414.75379969 -35.5625 416.625 C-43.07597396 418.12769479 -48.19156532 417.25027208 -55.0625 413.9375 C-68.74259253 403.13579798 -76.80012724 374.03459181 -79.5625 357.625 C-80.42478842 349.64048417 -80.7500171 343.24553287 -75.5625 336.625 C-70.74269975 332.17595362 -66.68042121 330.48091069 -60.16015625 330.51171875 C-56.96590142 330.26065364 -55.1486558 330.08789392 -52.61669922 328.08837891 C-50.89240395 325.95366084 -49.43711993 323.7750099 -48 321.4375 C-47.45682129 320.62466553 -46.91364258 319.81183105 -46.35400391 318.97436523 C-45.25084968 317.32222574 -44.16144616 315.6608167 -43.08642578 313.99023438 C-30.59504841 294.6027842 -15.59373648 281.93176608 4.4375 270.625 C2.27923564 254.73382845 -0.27185718 238.9189716 -2.95141602 223.10791016 C-3.52074617 219.74806619 -4.0823041 216.3869695 -4.64215946 213.02553558 C-5.18481148 209.77659327 -5.73547734 206.52900964 -6.28515625 203.28125 C-6.48416031 202.08238159 -6.68316437 200.88351318 -6.88819885 199.64831543 C-7.07857224 198.53525024 -7.26894562 197.42218506 -7.46508789 196.27539062 C-7.62924698 195.30170532 -7.79340607 194.32802002 -7.96253967 193.3248291 C-8.95670504 188.85107231 -10.30043032 185.59348367 -13.5 182.3125 C-19.21700902 175.89829475 -20.92288565 167.61439766 -20.77734375 159.140625 C-19.9650338 149.62921393 -17.64270544 140.82932651 -13.55078125 132.2109375 C-10.25235833 120.24274684 -13.01560246 105.61638301 -13.70800781 93.28320312 C-14.35161891 81.71571667 -14.69796224 70.21078445 -14.5625 58.625 C-15.6863208 58.8422876 -16.8101416 59.0595752 -17.96801758 59.28344727 C-22.18285361 60.09424785 -26.40121466 60.88524642 -30.62084961 61.6706543 C-32.4382581 62.01171039 -34.2547011 62.35795753 -36.07006836 62.7097168 C-38.69661571 63.21768455 -41.32619906 63.70618094 -43.95703125 64.19140625 C-44.7533345 64.34968399 -45.54963776 64.50796173 -46.37007141 64.67103577 C-56.53436478 66.49832372 -66.45329461 64.44249601 -76.51171875 62.69921875 C-78.15790947 62.41592461 -78.15790947 62.41592461 -79.83735657 62.12690735 C-82.13948102 61.72845466 -84.44116964 61.32747623 -86.74243164 60.92407227 C-90.24881413 60.31270677 -93.75800486 59.71968868 -97.26757812 59.12695312 C-99.51582139 58.73550125 -101.76387535 58.34296025 -104.01171875 57.94921875 C-105.05148361 57.77613693 -106.09124847 57.60305511 -107.16252136 57.42472839 C-114.55222759 56.09933761 -122.06285737 54.32396751 -126.9375 48.125 C-127.39898437 47.5578125 -127.86046875 46.990625 -128.3359375 46.40625 C-132.59749746 40.21748776 -132.3606422 33.97284522 -131.5625 26.625 C-129.49218962 20.89388327 -125.44566264 17.08390687 -120.5625 13.625 C-111.59138108 9.45448291 -102.44572657 11.74277501 -93.18359375 13.7890625 C-62.61685169 20.28789701 -42.56392985 17.43238867 -15.07275391 2.50195312 C-9.72183485 -0.35921433 -5.90530598 -0.38965068 0 0 Z M-114.5625 30.625 C-114.72931109 33.70847826 -114.72931109 33.70847826 -114.5625 36.625 C-109.11830234 39.82054496 -103.58313482 40.85158828 -97.41796875 41.9921875 C-96.33477859 42.19482208 -95.25158844 42.39745667 -94.13557434 42.60623169 C-91.84274385 43.02992154 -89.54890145 43.44816675 -87.25415039 43.86132812 C-83.79445355 44.49189783 -80.34429073 45.16322768 -76.89257812 45.8359375 C-64.04000362 48.22512458 -53.22634801 49.2514505 -40.5625 45.625 C-40.5625 41.005 -40.5625 36.385 -40.5625 31.625 C-42.13 32.305625 -43.6975 32.98625 -45.3125 33.6875 C-57.32621383 38.903981 -75.17573921 33.0100156 -87.74926758 31.13354492 C-90.53666834 30.7189277 -93.32491081 30.31038072 -96.11328125 29.90234375 C-96.95820633 29.77423813 -97.80313141 29.64613251 -98.67366028 29.5141449 C-107.22916732 27.70851177 -107.22916732 27.70851177 -114.5625 30.625 Z M96.01464844 169.02685547 C95.5302832 169.67541504 95.04591797 170.32397461 94.546875 170.9921875 C94.00506592 171.70890625 93.46325684 172.425625 92.9050293 173.1640625 C92.33824463 173.93492187 91.77145996 174.70578125 91.1875 175.5 C90.60846924 176.2734375 90.02943848 177.046875 89.43286133 177.84375 C81.94807992 186.24987781 81.94807992 186.24987781 77.4375 195.625 C85.43775487 196.81383203 93.42392671 196.92386926 101.50195312 197.0546875 C102.57767578 197.085625 103.65339844 197.1165625 104.76171875 197.1484375 C106.2171106 197.1781665 106.2171106 197.1781665 107.7019043 197.20849609 C111.85346364 197.84058536 114.50543844 199.69293844 117.4375 202.625 C119.75784441 200.19486434 122.06735913 197.75469718 124.375 195.3125 C125.03435547 194.62220703 125.69371094 193.93191406 126.37304688 193.22070312 C127.00146484 192.55361328 127.62988281 191.88652344 128.27734375 191.19921875 C128.85863037 190.58651123 129.43991699 189.97380371 130.03881836 189.3425293 C131.65356771 187.56654561 131.65356771 187.56654561 132.4375 184.625 C126.20745355 179.39383959 119.52521309 176.04894418 112.125 172.75 C111.04154297 172.25242188 109.95808594 171.75484375 108.84179688 171.2421875 C102.33123314 167.50784501 102.33123314 167.50784501 96.01464844 169.02685547 Z M143.95703125 197.875 C138.45147657 203.51913844 133.11673764 209.26856574 128.4375 215.625 C144.58188877 229.82266413 163.58769642 238.76185265 183.375 246.8125 C184.12628174 247.12848145 184.87756348 247.44446289 185.65161133 247.77001953 C189.64371085 249.38030489 189.64371085 249.38030489 193.81640625 248.98828125 C196.48046731 246.74790219 197.39763083 244.80984796 198.125 241.4375 C197.04584344 235.45308634 193.1046216 233.22389758 188.4375 229.625 C187.40882813 228.81289063 186.38015625 228.00078125 185.3203125 227.1640625 C183.605656 225.81114256 181.88851552 224.46189571 180.16455078 223.12084961 C175.26858569 219.30991161 170.46837558 215.39153612 165.6875 211.4375 C164.2539142 210.25389662 162.82032067 209.07030261 161.38671875 207.88671875 C157.5713795 204.73571028 157.5713795 204.73571028 155.74462891 203.22509766 C154.33391163 202.06167029 152.91724142 200.905471 151.5 199.75 C150.74847656 199.13382813 149.99695313 198.51765625 149.22265625 197.8828125 C146.94337018 196.27683851 146.12451118 196.04493779 143.95703125 197.875 Z M237.171875 220.4765625 C236.36363281 221.08113281 235.55539062 221.68570313 234.72265625 222.30859375 C233.46775391 223.26958984 233.46775391 223.26958984 232.1875 224.25 C231.36636719 224.86746094 230.54523438 225.48492187 229.69921875 226.12109375 C228.06280427 227.352943 226.43282094 228.59338466 224.80957031 229.8425293 C223.26610006 231.002356 221.69284323 232.12388907 220.08886719 233.19848633 C215.67310462 236.14856019 215.67310462 236.14856019 213.359375 240.80859375 C213.30265625 241.88238281 213.2459375 242.95617187 213.1875 244.0625 C212.4315237 251.7804906 210.34415224 256.35120336 204.4375 261.625 C205.0975 263.275 205.7575 264.925 206.4375 266.625 C216.86797783 263.06337342 223.58465531 251.912068 230.05126953 243.43896484 C231.42070373 241.64697891 232.80039211 239.86340479 234.18359375 238.08203125 C235.88623495 235.88761987 237.57939453 233.6865872 239.26171875 231.4765625 C240.56199152 229.77243481 241.87336534 228.07656017 243.20703125 226.3984375 C244.77362196 224.43623867 244.77362196 224.43623867 246.4375 221.625 C246.11329103 219.47695286 246.11329103 219.47695286 245.4375 217.625 C241.0886081 217.625 240.46510499 217.98282381 237.171875 220.4765625 Z M18.4375 243.625 C19.7843018 254.93695332 19.7843018 254.93695332 21.5625 266.1875 C22.77096554 273.32228055 23.3012151 277.18547483 19.4375 283.625 C24.7175 288.905 29.9975 294.185 35.4375 299.625 C39.86923194 297.85230723 43.43484253 296.35030477 46.4375 292.625 C47.56744724 289.73311516 47.95652268 286.85208277 48.3359375 283.78125 C48.46062408 282.93453735 48.58531067 282.08782471 48.71377563 281.2154541 C49.10417422 278.52142765 49.45831943 275.82400047 49.8125 273.125 C50.07193899 271.31087043 50.33363515 269.49706213 50.59765625 267.68359375 C52.08213288 258.19598371 52.08213288 258.19598371 52.4375 248.625 C48.07804408 247.9098986 43.71809616 247.19790022 39.35766602 246.48876953 C37.87445396 246.24710896 36.39137956 246.00460189 34.90844727 245.76123047 C32.77656127 245.41150695 30.64419831 245.06483335 28.51171875 244.71875 C26.58718872 244.40454102 26.58718872 244.40454102 24.6237793 244.08398438 C21.47913625 243.55371071 21.47913625 243.55371071 18.4375 243.625 Z M-8.5625 299.625 C-9.32433594 300.19089844 -10.08617187 300.75679688 -10.87109375 301.33984375 C-18.06222939 307.15872598 -22.82601931 314.7347798 -27.95703125 322.31982422 C-29.58819604 324.66189508 -31.29263767 326.92819585 -33.03125 329.19140625 C-33.87079224 330.3062439 -33.87079224 330.3062439 -34.72729492 331.44360352 C-35.79757269 332.86054407 -36.88548495 334.26439607 -37.9934082 335.65209961 C-40.74976206 339.36754507 -41.92544226 341.74612182 -41.47265625 346.43359375 C-40.86537735 350.00645094 -39.93198157 352.79984889 -37.5625 355.625 C-33.46809767 355.625 -32.19507589 354.03810626 -29 351.5 C-27.82555213 350.57548108 -26.65107112 349.65100425 -25.4765625 348.7265625 C-24.52958496 347.97487793 -24.52958496 347.97487793 -23.56347656 347.20800781 C-20.76601444 344.99488624 -17.94698622 342.80998857 -15.12866211 340.62353516 C-9.64273555 336.36720258 -4.16769563 332.09684486 1.30859375 327.828125 C2.10499268 327.20776367 2.9013916 326.58740234 3.72192383 325.94824219 C5.23136145 324.77243327 6.74034749 323.5960443 8.2487793 322.41894531 C12.93841293 318.76655214 17.67014382 315.17532899 22.4375 311.625 C18.43129558 306.70309171 14.10133798 302.17849248 9.625 297.6875 C9.03759033 297.09557861 8.45018066 296.50365723 7.8449707 295.89379883 C1.01047626 289.08318382 -1.57061691 294.32811887 -8.5625 299.625 Z M-62.5625 347.625 C-63.17583172 365.00912101 -53.43332458 383.45885199 -45.5625 398.625 C-44.49604885 399.92133621 -44.49604885 399.92133621 -42 399.6875 C-41.195625 399.666875 -40.39125 399.64625 -39.5625 399.625 C-37.93159519 393.73616406 -39.36059272 389.010819 -41 383.3125 C-41.2686084 382.36842285 -41.5372168 381.4243457 -41.81396484 380.45166016 C-43.72553374 374.22525247 -45.90635127 370.08439442 -50.73046875 365.6015625 C-55.13629133 360.84815904 -56.41056589 353.84320741 -57.5625 347.625 C-59.2125 347.625 -60.8625 347.625 -62.5625 347.625 Z " fill="#000000" transform="translate(147.5625,79.375)"/>
<path d="M0 0 C7.80121076 1.48371376 15.31863684 3.16562818 20.5 9.5625 C21.70717435 11.34827643 22.87360692 13.16220077 24 15 C25.26931342 16.87602927 26.54021114 18.75098735 27.8125 20.625 C28.46605469 21.62402344 29.11960937 22.62304688 29.79296875 23.65234375 C32.33977873 27.54143915 34.98485737 31.3614514 37.625 35.1875 C38.09719971 35.87763184 38.56939941 36.56776367 39.0559082 37.27880859 C40.9761618 40.08411318 42.90215373 42.86828386 44.9296875 45.59765625 C50.72386827 53.53943139 52.93911152 62.56124815 51.640625 72.328125 C49.94041856 79.4192299 46.56849125 85.26678244 41 90 C40.21625 90.70125 39.4325 91.4025 38.625 92.125 C32.15064024 96.74954269 25.88287692 98.08759447 18 98 C8.98319122 96.42340253 0.34696956 93.1697635 -8.234375 90.0703125 C-9.56560996 89.59309794 -10.89693093 89.11612326 -12.22833252 88.63937378 C-14.99628971 87.64655538 -17.76257885 86.64924947 -20.52783203 85.64892578 C-24.04965788 84.37558829 -27.57631627 83.11626572 -31.10445786 81.86055183 C-33.84708134 80.88216721 -36.58651613 79.8950879 -39.32514191 78.9055748 C-40.62368386 78.43781098 -41.9232808 77.972964 -43.22399139 77.5112648 C-53.04317839 74.01948168 -61.90248681 70.78759254 -68 62 C-70.4434398 56.64770329 -70.94771311 51.34253306 -69.34765625 45.69921875 C-66.68302021 38.89467607 -62.66538667 34.71571291 -56.0625 31.625 C-46.74803534 29.72408884 -39.30444569 32.51849453 -30.5 35.5 C-29.18785905 35.9346791 -27.8753612 36.3682824 -26.5625 36.80078125 C-23.37133666 37.85668089 -20.18420222 38.92332731 -17 40 C-16.896875 39.401875 -16.79375 38.80375 -16.6875 38.1875 C-15.87530855 35.60325446 -15.13181523 34.65537897 -13 33 C-10.63989258 32.0168457 -10.63989258 32.0168457 -7.89453125 31.17578125 C-6.42016602 30.71655273 -6.42016602 30.71655273 -4.91601562 30.24804688 C-3.89185547 29.93931641 -2.86769531 29.63058594 -1.8125 29.3125 C-0.77673828 28.99216797 0.25902344 28.67183594 1.32617188 28.34179688 C3.88165767 27.55277592 6.43949825 26.77255698 9 26 C7.35101904 22.25856214 6.37705775 21.15668278 2.53125 19.55859375 C1.19273899 19.16654467 -0.15139396 18.79327512 -1.5 18.4375 C-8.43041069 16.56958931 -8.43041069 16.56958931 -10.9375 14.0625 C-12.59718934 10.84075011 -12.49951776 8.55906405 -12 5 C-8.42714655 -0.08860946 -5.98315311 -0.38620763 0 0 Z M9.6875 43.9375 C8.43324219 44.31777344 7.17898438 44.69804687 5.88671875 45.08984375 C4.93410156 45.39019531 3.98148438 45.69054687 3 46 C3.48533203 46.86431641 3.48533203 46.86431641 3.98046875 47.74609375 C5.61307406 51.35533997 5.31324621 54.05309774 5 58 C3.49151791 60.59794137 2.35597733 60.89280761 -0.50366211 61.75390625 C-5.41534577 62.09962073 -9.2185382 60.61778901 -13.81640625 59 C-14.75048813 58.68546875 -15.68457001 58.3709375 -16.6469574 58.046875 C-19.62331114 57.04398384 -22.59333605 56.02396579 -25.5625 55 C-28.53539039 53.97657353 -31.50933448 52.95739547 -34.48875427 51.953125 C-36.34016532 51.32906441 -38.18792641 50.69404293 -40.03138733 50.046875 C-45.93224385 47.98886683 -45.93224385 47.98886683 -52 49 C-52.33 50.65 -52.66 52.3 -53 54 C-49.61280229 56.14425652 -46.34069955 57.74950745 -42.57397461 59.11303711 C-41.51194321 59.50031479 -40.4499118 59.88759247 -39.35569763 60.28660583 C-37.64628746 60.9007711 -37.64628746 60.9007711 -35.90234375 61.52734375 C-34.7170961 61.95753311 -33.53184845 62.38772247 -32.3106842 62.83094788 C-29.80245143 63.74025373 -27.29361992 64.64760651 -24.78344727 65.55151367 C-21.60056474 66.69769482 -18.41981131 67.84964011 -15.23984432 69.00388241 C-12.16975831 70.11793644 -9.0985677 71.22893134 -6.02734375 72.33984375 C-4.90190659 72.74726303 -3.77646942 73.15468231 -2.6169281 73.57444763 C0.58484198 74.72754291 3.79137688 75.86613033 7 77 C8.09649872 77.39486603 9.19299744 77.78973206 10.32272339 78.19656372 C11.3833902 78.56812592 12.44405701 78.93968811 13.53686523 79.32250977 C14.48158188 79.65750992 15.42629852 79.99251007 16.39964294 80.33766174 C20.64865941 81.41993087 22.97428032 80.69503986 27 79 C31.65211398 76.20873161 33.54666952 73.21489171 35 68 C34.50723242 61.15282265 31.58422918 55.9854355 27.6875 50.5 C27.21376953 49.78585938 26.74003906 49.07171875 26.25195312 48.3359375 C23.54325114 44.41425166 23.54325114 44.41425166 19.6015625 41.91015625 C16.07297083 42.03201452 13.05824521 42.89792438 9.6875 43.9375 Z " fill="#000000" transform="translate(252,95)"/>
<path d="M0 0 C0.89976562 0.4021875 1.79953125 0.804375 2.7265625 1.21875 C14.73073334 7.17123141 23.12720371 16.86807365 27.875 29.375 C30.94312259 40.96772666 30.6408409 55.34701873 25 66 C24.55269531 66.86882812 24.10539062 67.73765625 23.64453125 68.6328125 C17.17872622 80.24699311 7.43689635 87.89037418 -5.3125 91.9375 C-18.94354072 95.07558132 -32.07210129 93.04881069 -44.25 86.3125 C-55.56891874 78.9194299 -63.00870799 68.4710806 -66.4375 55.375 C-68.97804984 40.10347266 -65.31142055 26.64426183 -56.62890625 14.00390625 C-43.93153571 -2.14657356 -18.80183715 -8.47045223 0 0 Z M-44.53515625 26.94921875 C-49.56978324 34.42042906 -51.15416823 42.52616548 -49.5703125 51.41015625 C-47.1681097 61.00413904 -41.57239727 67.74703634 -33.1796875 72.84765625 C-26.12908288 76.57512644 -18.02063707 77.35199106 -10.31640625 75.27734375 C-0.89503042 71.73536532 5.23765211 66.97916367 10 58 C13.10816687 50.23492331 13.43699183 41.59626062 10.9375 33.6015625 C7.01037377 25.12836081 1.77088024 19.52436692 -6.6875 15.5625 C-21.13057088 10.43753936 -35.22643933 15.12975375 -44.53515625 26.94921875 Z " fill="#000000" transform="translate(467,146)"/>
<path d="M0 0 C9.34161623 6.29200793 14.45897067 16.91952582 16.83203125 27.71484375 C18.37583372 45.7507154 15.39143726 61.11808952 4.24609375 75.8046875 C-1.31769163 82.00627267 -8.7092725 86.11331006 -16.9609375 87.2265625 C-27.72766821 87.53973721 -34.19035218 85.43448894 -42.35546875 78.58984375 C-52.01104707 69.39833199 -57.18295036 57.01259197 -58.16796875 43.71484375 C-58.26271484 42.57595703 -58.26271484 42.57595703 -58.359375 41.4140625 C-58.9441803 28.6803988 -55.47920867 15.51784468 -47.16796875 5.71484375 C-44.36934717 2.9827342 -41.47656817 0.79259901 -38.16796875 -1.28515625 C-37.51570313 -1.71828125 -36.8634375 -2.15140625 -36.19140625 -2.59765625 C-25.06503673 -8.78374587 -10.39542671 -6.16233403 0 0 Z M-34.85546875 18.52734375 C-40.89760409 26.85569247 -42.29312842 35.63968715 -40.70703125 45.61328125 C-38.8527374 54.09940253 -35.71253113 62.16009603 -28.85546875 67.83984375 C-24.76470363 70.368352 -20.8315056 70.70884805 -16.16796875 69.71484375 C-8.73023401 66.68521656 -5.516703 59.42997191 -2.12890625 52.62890625 C1.20854201 44.48802778 1.55955366 32.83025407 -1.79296875 24.65234375 C-5.02004483 18.69992781 -8.54329355 13.79604702 -15.16796875 11.71484375 C-23.91173471 10.62028207 -28.71076878 12.09684378 -34.85546875 18.52734375 Z " fill="#000000" transform="translate(231.16796875,21.28515625)"/>
</svg>
