<svg width="50" height="50" viewBox="0 0 50 50" fill="none" xmlns="http://www.w3.org/2000/svg">
<g clip-path="url(#clip0_88_710)">
<path d="M26.5654 49.9996H23.4399C23.3146 49.971 23.1907 49.9266 23.0642 49.9175C20.3666 49.7205 17.7524 49.1336 15.287 48.0275C7.12497 44.3663 2.1354 38.1459 0.392643 29.3574C0.210018 28.4365 0.127837 27.4961 0 26.5661C0 25.524 0 24.4831 0 23.441C0.0286981 23.2988 0.0613097 23.1579 0.0860945 23.0158C0.341769 21.5288 0.481346 20.0106 0.868771 18.5576C4.52779 4.83347 18.8077 -3.05378 32.3859 1.11615C34.7639 1.84657 36.9828 2.91742 39.0386 4.31826C39.5747 4.68348 39.6987 5.2352 39.3856 5.70867C39.0712 6.18475 38.5181 6.27997 37.9703 5.94867C37.845 5.87302 37.7355 5.75693 37.6024 5.71389C37.4146 5.65389 37.1941 5.58085 37.018 5.6265C35.0522 6.13649 33.0942 6.67518 31.1297 7.18908C30.8596 7.25952 30.7292 7.37691 30.6575 7.65342C30.0052 10.1356 29.3282 12.6112 28.6851 15.0959C28.6368 15.2798 28.7216 15.5811 28.8573 15.7181C30.6496 17.5389 32.4641 19.3376 34.2643 21.1506C34.473 21.3606 34.653 21.4154 34.9478 21.3345C37.3924 20.6641 39.8396 20.0054 42.2919 19.3676C42.6285 19.2802 42.7655 19.1224 42.8476 18.8028C43.3003 17.0576 43.7503 15.3111 44.2512 13.579C44.4247 12.9777 44.4352 12.4938 44.0386 11.9551C43.599 11.3577 43.9721 10.5647 44.6687 10.4616C45.1709 10.3873 45.4905 10.6534 45.754 11.0486C48.3642 14.9563 49.7952 19.2606 49.9791 23.9484C50.1957 29.4644 48.7856 34.5564 45.6327 39.1007C41.641 44.8554 36.1649 48.3679 29.2591 49.6188C28.3668 49.7805 27.4628 49.8731 26.5654 49.997V49.9996ZM33.1451 22.9219C33.0864 22.8306 33.0198 22.6714 32.9076 22.5579C31.0944 20.7371 29.2799 18.9176 27.4498 17.115C27.3193 16.9859 27.0389 16.8959 26.868 16.9402C24.3543 17.5937 21.8445 18.268 19.3412 18.958C19.1821 19.0024 18.9943 19.1967 18.9499 19.3571C18.2638 21.8445 17.592 24.3371 16.941 26.8348C16.8954 27.0109 16.9658 27.2979 17.0911 27.4257C18.9056 29.2687 20.7344 31.0961 22.5763 32.9104C22.7055 33.0369 22.9911 33.1139 23.1659 33.0682C25.664 32.4173 28.1568 31.7469 30.6444 31.0569C30.814 31.01 31.0136 30.7987 31.0631 30.6252C31.5093 29.047 31.9241 27.4609 32.3493 25.8775C32.6063 24.9214 32.8659 23.9653 33.149 22.9206L33.1451 22.9219ZM1.89669 23.7788C2.0167 23.9679 2.10671 24.1871 2.26194 24.3436C3.65771 25.7549 5.06783 27.1518 6.4623 28.5644C6.68145 28.7861 6.87451 28.8578 7.18758 28.7718C9.63084 28.1026 12.0793 27.4466 14.5291 26.8035C14.8356 26.7227 14.9804 26.5896 15.0613 26.2766C15.7018 23.8258 16.3553 21.3775 17.0258 18.9345C17.1119 18.6228 17.0584 18.4337 16.8328 18.2106C15.0404 16.4368 13.2572 14.6537 11.4832 12.8616C11.2484 12.6242 11.0423 12.5616 10.7148 12.6529C8.82077 13.1759 6.92147 13.682 5.01957 14.1764C4.69084 14.2624 4.50561 14.4307 4.3569 14.7333C2.96113 17.5715 2.17584 20.5675 1.89669 23.7788V23.7788ZM23.9343 1.98352C20.5466 2.17526 17.4707 2.98133 14.58 4.46174C14.4104 4.54913 14.2578 4.77608 14.2043 4.96782C13.6721 6.893 13.1672 8.82601 12.6402 10.7525C12.562 11.0368 12.5972 11.2286 12.8124 11.4425C14.6269 13.2398 16.4336 15.0463 18.2325 16.8594C18.4412 17.0693 18.6225 17.1189 18.9173 17.038C21.3762 16.3637 23.8403 15.7076 26.3058 15.0581C26.5706 14.9876 26.7088 14.8807 26.7832 14.5977C27.4354 12.1155 28.1138 9.64122 28.7595 7.15778C28.8077 6.97126 28.7295 6.66735 28.5951 6.5291C27.1732 5.07477 25.7318 3.64132 24.2878 2.20917C24.1625 2.08526 23.9838 2.01352 23.9343 1.98352V1.98352ZM48.0968 26.6992C47.9964 26.3666 47.9924 25.9388 47.7785 25.7157C46.371 24.2484 44.923 22.8201 43.4699 21.3971C43.342 21.2719 43.0577 21.1962 42.8842 21.2419C40.3848 21.8927 37.8907 22.5619 35.4018 23.2505C35.2309 23.2975 35.0248 23.5036 34.9778 23.6745C34.2969 26.1488 33.6447 28.6296 32.9703 31.1052C32.8972 31.3752 32.9285 31.55 33.1307 31.7508C34.9557 33.5612 36.7649 35.3873 38.5977 37.1886C38.7347 37.3229 39.0386 37.3999 39.2265 37.3516C41.1623 36.8599 43.0929 36.346 45.017 35.8073C45.2439 35.7434 45.4957 35.5308 45.6027 35.3182C46.9723 32.6182 47.7511 29.7513 48.0981 26.6979L48.0968 26.6992ZM26.0879 48.0236C29.1143 47.9166 32.8724 46.9188 35.3979 45.561C35.5805 45.4632 35.7488 45.2271 35.8049 45.0223C36.3397 43.0972 36.8419 41.1641 37.3702 39.2377C37.4498 38.9468 37.3898 38.7603 37.1798 38.5516C35.377 36.7647 33.5821 34.9712 31.7949 33.1673C31.5719 32.9417 31.3827 32.8882 31.071 32.973C28.6121 33.6473 26.1453 34.2943 23.6864 34.9712C23.5116 35.0195 23.2964 35.2151 23.2494 35.3834C22.5607 37.872 21.8902 40.3659 21.2392 42.8637C21.1936 43.0398 21.2627 43.3254 21.3879 43.4532C22.8216 44.918 24.2747 46.3645 25.7305 47.8071C25.8544 47.931 26.0397 47.9936 26.0879 48.021V48.0236ZM5.54135 37.2747C5.58049 37.3568 5.62223 37.4781 5.69006 37.5825C7.46152 40.2863 9.69867 42.5272 12.408 44.2919C12.562 44.3924 12.815 44.4328 12.9924 44.3871C14.9583 43.8771 16.9163 43.3398 18.8795 42.8233C19.1469 42.7528 19.2773 42.6276 19.3504 42.3524C20.0026 39.8703 20.6783 37.3946 21.3227 34.9112C21.371 34.726 21.2862 34.4247 21.1518 34.2877C19.3491 32.4552 17.5294 30.6382 15.6979 28.8357C15.5714 28.7105 15.2883 28.6387 15.1161 28.6831C12.6324 29.3274 10.1552 30.0017 7.67284 30.6513C7.37542 30.7295 7.2515 30.8678 7.17715 31.1548C6.74537 32.8217 6.29533 34.4834 5.85051 36.1464C5.75398 36.5077 5.65484 36.8677 5.54266 37.2773L5.54135 37.2747ZM26.9893 2.16091C28.025 3.19133 29.0569 4.22566 30.1057 5.24433C30.1944 5.33042 30.4018 5.34999 30.5361 5.32129C30.9966 5.22347 31.4493 5.09434 31.9045 4.97173C32.8503 4.71478 33.7947 4.45522 34.8435 4.16827C32.2919 2.9709 29.7235 2.29134 26.9893 2.16091V2.16091ZM45.8362 15.1559C45.4409 16.6376 45.0835 18.0163 44.6974 19.3871C44.6191 19.665 44.67 19.8332 44.867 20.0263C45.8075 20.9484 46.7336 21.8849 47.6676 22.8149C47.7394 22.8866 47.8294 22.9388 47.9637 23.0405C47.712 20.2767 47.0389 17.7046 45.8349 15.1559H45.8362ZM4.16515 34.8512C4.57735 33.3212 4.97 31.8982 5.33394 30.4687C5.36655 30.3409 5.2622 30.1296 5.15654 30.02C4.21211 29.0548 3.25333 28.1039 2.29716 27.1518C2.23846 27.0944 2.15888 27.0579 2.04279 26.9809C2.28933 29.7239 2.96504 32.2817 4.16645 34.8512H4.16515ZM15.1631 45.8375C17.7081 47.031 20.2779 47.7184 23.1203 47.961C21.971 46.8145 20.9288 45.771 19.8774 44.7367C19.8109 44.6715 19.6648 44.6284 19.5761 44.6506C18.1359 45.0302 16.6984 45.4215 15.1618 45.8375H15.1631ZM11.8367 6.22127C9.55518 7.70429 7.68719 9.56817 6.13227 11.7803C6.21054 11.8025 6.24446 11.8234 6.27185 11.8168C7.65328 11.4542 9.0347 11.0929 10.4109 10.716C10.527 10.6847 10.6718 10.5542 10.7031 10.4421C11.0918 9.03862 11.4623 7.62864 11.838 6.22127H11.8367ZM38.1711 43.7793C40.4487 42.3093 42.3141 40.4416 43.8795 38.219C43.7842 38.2059 43.7347 38.1838 43.6955 38.1942C42.3311 38.5542 40.9653 38.9129 39.6047 39.2885C39.4873 39.3211 39.3373 39.4464 39.3073 39.5559C38.9173 40.9607 38.5468 42.3693 38.1725 43.778L38.1711 43.7793Z" fill="#9D00DE"/>
<path d="M41.9764 8.99071C41.452 8.98289 41.0241 8.55246 41.0215 8.02943C41.0176 7.48683 41.4676 7.03683 42.0064 7.04596C42.5425 7.05379 42.9886 7.52596 42.9678 8.05943C42.9469 8.57333 42.4942 8.99984 41.9777 8.99202L41.9764 8.99071Z" fill="#9D00DE"/>
</g>
<defs>
<clipPath id="clip0_88_710">
<rect width="50" height="50" fill="white"/>
</clipPath>
</defs>
</svg>
