<?xml version="1.0" encoding="UTF-8"?>
<svg version="1.1" xmlns="http://www.w3.org/2000/svg" width="512" height="512">
<path d="M0 0 C8.7958625 6.12911022 14.03830597 15.03528935 16.2109375 25.453125 C17.54110278 36.59850988 15.21722337 46.60877621 8.83203125 55.8125 C2.95769304 62.98799236 -4.89371094 67.11315386 -13.04711914 71.24902344 C-14.05256051 71.76606716 -15.05800188 72.28311089 -16.09391117 72.8158226 C-19.19720405 74.40753124 -22.30635385 75.98712981 -25.41796875 77.5625 C-26.34593639 78.03307327 -27.27390404 78.50364655 -28.22999191 78.98847961 C-34.59184682 82.20916479 -40.97011238 85.39648948 -47.3515625 88.578125 C-49.33660098 89.56970765 -51.32154882 90.56147176 -53.30641174 91.55340576 C-58.44265883 94.11965204 -63.58010357 96.68349108 -68.71783447 99.24676514 C-73.99558312 101.88045483 -79.27215013 104.51650981 -84.54882812 107.15234375 C-94.83741094 112.29132911 -105.12726531 117.42776261 -115.41796875 122.5625 C-114.64006122 123.98554484 -113.85930844 125.40703452 -113.07739258 126.82788086 C-112.64292313 127.61964218 -112.20845367 128.4114035 -111.76081848 129.22715759 C-109.76647465 132.69550972 -107.46047343 135.8955803 -105.10546875 139.125 C-99.26481991 147.25686577 -93.70672395 155.56191421 -88.2019043 163.92407227 C-85.03890708 168.70969548 -81.82154766 173.4267677 -78.42578125 178.05078125 C-74.27468396 183.70402659 -70.39950674 189.51835554 -66.54296875 195.375 C-61.54002684 202.92999407 -56.45508207 210.37803276 -51.1328125 217.7109375 C-46.53405879 224.14883243 -42.22608297 230.79320753 -37.86132812 237.390625 C-37.20068359 238.38835937 -36.54003906 239.38609375 -35.859375 240.4140625 C-35.26842041 241.30947754 -34.67746582 242.20489258 -34.06860352 243.12744141 C-30.66125442 248.15404988 -29.33006568 249.93675662 -23.23046875 251.3125 C-14.64153541 253.56388191 -7.23297451 257.42693275 0.58203125 261.5625 C9.52232316 266.20046714 17.40890106 269.75935814 27.58203125 270.5625 C28.57976562 270.64371094 28.57976562 270.64371094 29.59765625 270.7265625 C43.98390442 271.31266891 55.71943729 265.3975598 68.01171875 258.69140625 C81.36502503 251.65139784 95.37952425 247.63835145 110.58203125 249.5625 C113.27606866 250.8948772 115.05461669 251.88439556 116.89453125 254.25 C117.93354051 257.74484933 118.27367268 260.99472588 117.58203125 264.5625 C115.83445695 267.58339981 113.74985359 269.97858883 110.58203125 271.5625 C107.22190546 271.93832802 103.86414246 272.27641199 100.49414062 272.54882812 C90.08883701 273.59771243 81.24150311 278.06257726 72.20703125 283.0625 C52.08455036 293.89658364 29.77498212 297.21568336 7.58203125 290.5625 C-1.40085171 287.35151333 -9.58434795 283.00235058 -17.734375 278.0703125 C-29.62054447 271.3919116 -44.94843547 270.67296732 -58.04296875 273.8125 C-65.65891139 276.21753452 -72.36908538 280.26562006 -79.28979492 284.19165039 C-98.30609311 294.83346658 -120.53263674 296.41797901 -141.41796875 290.5625 C-149.3874013 287.94704916 -156.45716663 283.90788354 -163.68481445 279.73779297 C-176.77545586 272.26692734 -191.83872811 270.41996841 -206.60546875 273.625 C-213.40610246 275.57983803 -219.29721099 279.08932583 -225.41796875 282.5625 C-246.05138441 293.78378044 -268.60193904 297.2213633 -291.41796875 290.5625 C-298.94755286 287.90060958 -305.86210406 284.40067628 -312.73046875 280.375 C-319.31027576 276.53499028 -324.90808843 273.87643525 -332.53515625 273.125 C-333.28498779 273.05007324 -334.03481934 272.97514648 -334.80737305 272.89794922 C-336.3042207 272.76087468 -337.80340193 272.64673233 -339.30395508 272.55908203 C-344.86991364 272.0975428 -347.47013192 270.52852963 -351.41796875 266.5625 C-353.01485916 263.36871918 -352.79145832 260.03728685 -352.41796875 256.5625 C-351.19810882 253.75682217 -350.28806272 252.15555934 -347.76171875 250.43359375 C-344.51504263 249.22691246 -341.62529291 249.46900805 -338.16796875 249.5 C-329.13180985 249.19159867 -323.12220046 245.75692532 -315.64501953 240.97070312 C-312.45212161 238.95177798 -309.19182167 237.05406739 -305.93212891 235.14550781 C-303.14658389 233.51334859 -300.36958684 231.86736022 -297.59375 230.21875 C-291.3377797 226.50939475 -285.06368716 222.831395 -278.78723145 219.15686035 C-265.07989465 211.13189631 -251.39776937 203.06498414 -237.73095703 194.97119141 C-223.32772651 186.44217898 -208.88581894 177.98143995 -194.41796875 169.5625 C-196.01682789 163.69680592 -198.99013671 158.8240171 -202.04296875 153.625 C-203.12783557 151.75088685 -204.21116071 149.87588045 -205.29296875 148 C-205.8240625 147.07960937 -206.35515625 146.15921875 -206.90234375 145.2109375 C-209.001362 141.5430654 -211.04286208 137.84760655 -213.04296875 134.125 C-213.95949219 132.42537109 -213.95949219 132.42537109 -214.89453125 130.69140625 C-220.77157346 118.62086571 -220.32112523 107.08654124 -216.41796875 94.5625 C-210.32175237 77.25909796 -193.34615301 70.33429069 -178.04296875 63 C-176.57592506 62.29273617 -175.10896678 61.58529516 -173.64208984 60.87768555 C-163.33837949 55.91761769 -152.98310653 51.07454615 -142.59814453 46.28686523 C-134.66524927 42.62487599 -126.78141931 38.87114518 -118.91796875 35.0625 C-108.68235435 30.10527478 -98.39149512 25.2818665 -88.06323242 20.52099609 C-80.66705498 17.10118603 -73.31994747 13.59414779 -65.99682617 10.02172852 C-61.18898566 7.67678326 -56.36589903 5.36419608 -51.5390625 3.05859375 C-49.61811299 2.13778816 -47.70061643 1.2096863 -45.7890625 0.26953125 C-30.70122965 -7.11066078 -14.99844725 -8.91668593 0 0 Z M-39.29296875 22.25 C-40.5298415 22.84402766 -41.76748835 23.4364459 -43.00585938 24.02734375 C-46.19835609 25.55549619 -49.38079786 27.10344276 -52.56091309 28.65716553 C-55.45866617 30.06985111 -58.36420692 31.46624758 -61.26953125 32.86328125 C-64.60573659 34.46782784 -67.94120264 36.07374504 -71.2734375 37.68652344 C-79.24295763 41.53968945 -87.2554329 45.29105887 -95.29296875 49 C-104.88203225 53.42572162 -114.41824971 57.94910229 -123.91796875 62.5625 C-133.54405625 67.23693172 -143.20570957 71.81944241 -152.91796875 76.3125 C-154.07192139 76.8489917 -155.22587402 77.3854834 -156.41479492 77.93823242 C-161.7916044 80.43574565 -167.17682881 82.90704214 -172.59375 85.31640625 C-174.47270892 86.16915479 -176.35161825 87.0220126 -178.23046875 87.875 C-179.06578125 88.2349707 -179.90109375 88.59494141 -180.76171875 88.96582031 C-187.59691219 92.10379548 -192.32655542 96.54861758 -195.8203125 103.25390625 C-198.56329211 113.8493373 -194.63874134 121.57488928 -189.41796875 130.5625 C-188.87640137 131.49481445 -188.33483398 132.42712891 -187.77685547 133.38769531 C-185.33124922 137.58376397 -182.88548051 141.77893073 -180.39404297 145.94799805 C-174.17458121 156.4170534 -169.24743771 164.71277983 -171.984375 177.1328125 C-175.09706587 185.44200402 -182.48210155 188.99210632 -189.80664062 193.09765625 C-192.67605055 194.70727289 -195.52418159 196.35092931 -198.37109375 198 C-201.65276315 199.89959668 -204.9359602 201.7961559 -208.2253418 203.68237305 C-215.84533457 208.05279951 -223.39914496 212.52050936 -230.91796875 217.0625 C-240.4251838 222.80302989 -250.01154747 228.38901995 -259.64575195 233.91333008 C-268.57670649 239.04692404 -277.41829852 244.31570132 -286.23632812 249.640625 C-291.26411944 252.67665028 -296.301273 255.67854421 -301.41796875 258.5625 C-301.41796875 259.2225 -301.41796875 259.8825 -301.41796875 260.5625 C-284.60811838 269.75334027 -269.52732533 274.02995769 -250.41796875 269.5625 C-245.91070356 268.11601951 -241.90213139 265.85869991 -237.83203125 263.4765625 C-217.49820771 251.60807554 -194.79602151 246.365492 -171.35546875 252.0625 C-163.95231867 254.41880736 -157.11861511 257.91678331 -150.28417969 261.56640625 C-147.49150129 263.05700383 -144.67688246 264.50216734 -141.85546875 265.9375 C-140.96730469 266.39898437 -140.07914063 266.86046875 -139.1640625 267.3359375 C-126.62470691 272.93673075 -111.25532117 272.90870939 -98.36328125 268.5234375 C-92.51327511 266.21618317 -87.24081558 263.35547111 -81.91015625 260.04296875 C-74.18591956 255.45443316 -66.1277359 252.63464963 -57.41796875 250.5625 C-59.01617462 245.72115121 -61.76737947 242.015705 -64.73046875 237.9375 C-65.82025087 236.41625245 -66.90874646 234.89408261 -67.99609375 233.37109375 C-68.84204102 232.18749268 -68.84204102 232.18749268 -69.70507812 230.97998047 C-72.51137894 227.01932045 -75.24705393 223.01116252 -77.98046875 219 C-78.52340576 218.20408447 -79.06634277 217.40816895 -79.62573242 216.58813477 C-80.70497003 215.00584489 -81.78399381 213.42340915 -82.86279297 211.84082031 C-85.2479682 208.34655732 -87.64474507 204.86031521 -90.04296875 201.375 C-90.48906494 200.726521 -90.93516113 200.07804199 -91.39477539 199.40991211 C-92.28818206 198.11128228 -93.18165503 196.81269806 -94.07519531 195.51416016 C-96.35705394 192.19758236 -98.6374263 188.8799829 -100.91796875 185.5625 C-101.83462851 184.22916192 -102.75129517 182.89582858 -103.66796875 181.5625 C-105.50130208 178.89583333 -107.33463542 176.22916667 -109.16796875 173.5625 C-109.84883545 172.5722583 -109.84883545 172.5722583 -110.54345703 171.56201172 C-111.4587725 170.23049596 -112.37381223 168.8987906 -113.28857422 167.56689453 C-115.59867396 164.20413274 -117.91368126 160.84494506 -120.23828125 157.4921875 C-124.75745031 150.96563018 -129.22798199 144.41384954 -133.54296875 137.75 C-133.92146973 137.16911621 -134.2999707 136.58823242 -134.68994141 135.98974609 C-138.79976804 129.58285753 -139.09227703 124.0463722 -138.41796875 116.5625 C-136.47349446 109.76239564 -132.07206174 105.65020146 -126.03129387 102.19891548 C-123.09551424 100.68033083 -120.13821845 99.21539665 -117.16772461 97.76586914 C-116.04346573 97.20906967 -114.91920685 96.6522702 -113.76087952 96.07859802 C-111.32679987 94.87416168 -108.89150056 93.67269146 -106.45368767 92.47587776 C-102.59492766 90.58087281 -98.74305631 88.67215178 -94.89222717 86.76109314 C-84.6364965 81.67401441 -74.37254725 76.60361468 -64.10319382 71.54409546 C-57.34764333 68.21573092 -50.59618852 64.87935348 -43.85221201 61.52759069 C-40.02908737 59.62829201 -36.19995368 57.7419069 -32.36576259 55.86505711 C-29.41783342 54.41752019 -26.47907136 52.9515757 -23.53881836 51.48852539 C-22.48153534 50.97560944 -21.42425232 50.46269348 -20.33493042 49.93423462 C-13.80410025 46.65594211 -8.83725798 43.82036769 -6.41796875 36.5625 C-5.78022963 31.16785437 -6.04092139 26.66610267 -9.09765625 22.0703125 C-12.60035017 18.0701946 -16.1108199 16.71307524 -21.3515625 16.109375 C-27.97672862 16.24480248 -33.45807193 19.3732299 -39.29296875 22.25 Z " fill="#000000" transform="translate(373.41796875,79.4375)"/>
<path d="M0 0 C13.93307873 8.02646798 27.81213902 10.71632275 43.71875 7.7421875 C51.05868849 5.66253826 57.425715 2.23180163 64 -1.5625 C74.48392647 -7.34871078 85.88662947 -12.03487588 98 -12.5625 C98.98871094 -12.6140625 99.97742188 -12.665625 100.99609375 -12.71875 C120.17632576 -13.24125348 135.94326977 -8.04331745 152.25 1.6875 C165.4780592 9.48053223 181.14592967 10.69847313 196 7.0625 C202.57473425 4.94186317 208.30241638 1.60826395 214.24682617 -1.83935547 C233.851601 -13.0689304 255.3007621 -14.78832998 277 -9.5625 C285.06364968 -7.22328087 292.21922077 -3.41403349 299.5625 0.5625 C314.01331136 8.32097377 328.65320224 11.00779946 344.8125 7.125 C351.95216454 4.84393071 358.24924534 1.14333163 364.74169922 -2.55175781 C376.89857706 -9.43406301 391.78584751 -14.42900487 406 -12.5625 C410.09211759 -11.04690089 413.05633267 -9.55781618 415 -5.5625 C415.40174202 -1.34420877 415.42580368 1.31037261 413.9375 5.25 C409.56775078 10.18358783 403.57808903 10.80127781 397.3125 11.3125 C385.67847552 12.54072154 376.5021077 17.67631093 366.37426758 23.19165039 C347.90854506 33.04128384 324.75544689 34.73890636 304.70703125 28.83984375 C297.85485416 26.24771353 291.4289635 22.93106994 285 19.4375 C270.20268361 11.49946232 254.42169626 8.32605056 237.9375 13.125 C232.38305339 15.12767108 227.19753335 17.65284679 222 20.4375 C219.38465441 21.83168641 216.75746399 23.20095586 214.125 24.5625 C213.18950317 25.06765137 213.18950317 25.06765137 212.23510742 25.58300781 C202.01978326 30.85022328 191.54467381 31.97383247 180.1875 31.875 C178.95499512 31.86670166 177.72249023 31.85840332 176.45263672 31.84985352 C160.16776415 31.54780406 146.43573909 26.89943403 132.9375 17.75 C120.58249459 9.94411792 105.51975078 9.89150348 91.46484375 11.95703125 C83.47476481 14.04991644 76.51511933 18.35906461 69.39599609 22.42456055 C62.76188251 26.16868444 56.47036755 28.77248494 49 30.4375 C48.24178955 30.60967041 47.4835791 30.78184082 46.70239258 30.95922852 C25.5724521 34.69882138 6.55056614 30.39753551 -12 20.4375 C-14.47065369 19.14959224 -16.95251969 17.88498532 -19.4375 16.625 C-20.52933594 16.06167969 -21.62117188 15.49835938 -22.74609375 14.91796875 C-29.46178256 11.86245127 -35.9633485 10.95806582 -43.21484375 10.40234375 C-47.95704709 9.9217763 -50.65838604 8.85477315 -54 5.4375 C-55.23917206 1.71998383 -55.54318961 -1.6998183 -55 -5.5625 C-53.2395325 -8.56181499 -51.77924074 -10.09495555 -48.8125 -11.875 C-32.52777543 -15.85571045 -13.75874076 -8.01383442 0 0 Z " fill="#000000" transform="translate(76,406.5625)"/>
<path d="M0 0 C15.96450705 12.73839567 27.42007878 30.48156405 30 51 C31.8538328 72.1080382 27.36442887 91.7888697 14.5625 108.9375 C13.40098182 110.31401703 12.2127018 111.66835517 11 113 C9.98486328 114.13501953 9.98486328 114.13501953 8.94921875 115.29296875 C-4.85257176 129.92825993 -23.72096039 137.75595026 -43.65551758 138.40283203 C-63.75292495 138.65903383 -82.91144795 132.70885955 -98 119 C-98.74507813 118.34644531 -99.49015625 117.69289063 -100.2578125 117.01953125 C-113.86537542 104.35757863 -122.33972278 85.58864361 -123.3203125 67.0703125 C-124.01999262 45.12011705 -117.98426267 25.42446788 -103 9 C-102.48308594 8.3915625 -101.96617187 7.783125 -101.43359375 7.15625 C-75.60885123 -21.3221628 -29.73865657 -21.70354232 0 0 Z M-89 27 C-97.20857162 37.43507961 -102.00418177 50.68448794 -101.37890625 64.09765625 C-99.21384204 80.68160166 -93.18422505 94.14461242 -80 105 C-66.83894429 114.10621348 -52.88767285 117.92256055 -36.91015625 115.5390625 C-21.71808671 112.14530189 -9.76575492 103.92886809 -0.53125 91.44921875 C7.39667368 78.76858571 9.98348897 64.53182446 6.87084961 49.9597168 C3.32882079 35.06784872 -5.3600713 23.02396689 -18.18359375 14.53515625 C-42.65129215 1.19839415 -70.61543604 6.12057867 -89 27 Z " fill="#000000" transform="translate(450,180)"/>
</svg>
