<?xml version="1.0" encoding="UTF-8"?>
<svg version="1.1" xmlns="http://www.w3.org/2000/svg" width="512" height="512">
<path d="M0 0 C4.18766375 3.58340354 8.29340647 7.23729622 12.328125 10.9921875 C13.04484375 11.64316406 13.7615625 12.29414062 14.5 12.96484375 C26.26414578 24.10643437 35.55283479 37.85190444 43.328125 51.9921875 C43.66650391 52.59256836 44.00488281 53.19294922 44.35351562 53.81152344 C56.56757942 75.68240441 64.29939078 102.11099639 64.56640625 127.2421875 C64.58116501 128.39297035 64.58116501 128.39297035 64.59622192 129.56700134 C65.15998344 184.98783201 47.07708684 232.30025039 8.265625 272.3046875 C-11.46812804 291.39010368 -35.95651382 305.63592885 -61.671875 314.9921875 C-57.10828545 320.47821793 -52.24613274 325.5215591 -47.15966797 330.52270508 C-45.43398082 332.22873474 -43.7083038 333.93477464 -41.9826355 335.64082336 C-40.62151957 336.98359565 -40.62151957 336.98359565 -39.23290634 338.35349464 C-36.37911826 341.17122142 -33.53046952 343.99403173 -30.68411255 346.81925964 C-30.20160597 347.29812884 -29.71909939 347.77699803 -29.22197139 348.27037841 C-28.23607205 349.24887341 -27.25018856 350.2273844 -26.26432061 351.20591104 C-19.6476285 357.77281703 -13.02670644 364.33529689 -6.38720703 370.87915039 C-1.89387043 375.30785906 2.58857128 379.74728456 7.05895889 384.19916075 C9.41874758 386.54832392 11.78503177 388.88988457 14.16174698 391.2219944 C16.81352751 393.82534661 19.44588657 396.44697907 22.07470703 399.07348633 C22.85506317 399.83069977 23.63541931 400.58791321 24.43942261 401.36807251 C30.6729803 407.66049078 34.33316809 414.14636219 34.765625 423.1171875 C34.10970078 436.65884891 24.20795713 445.50591519 15.17089844 454.57495117 C13.58268475 456.1750935 12.01414691 457.79299182 10.4453125 459.41210938 C3.86627526 466.10032163 -2.87924742 472.61463883 -12.6484375 473.62109375 C-13.85242188 473.59917969 -15.05640625 473.57726562 -16.296875 473.5546875 C-17.50601562 473.55597656 -18.71515625 473.55726563 -19.9609375 473.55859375 C-29.84953501 472.0492815 -35.68082881 465.56463427 -42.4465332 458.75097656 C-43.50605702 457.69852019 -44.56641881 456.64690686 -45.62754822 455.59606934 C-48.4920228 452.75400259 -51.34373772 449.89945467 -54.19257379 447.0417223 C-56.57696037 444.65220907 -58.96754584 442.26894628 -61.35813111 439.88563704 C-66.99886882 434.26187012 -72.62929821 428.62793045 -78.25317383 422.98730469 C-84.04615801 417.17738986 -89.85535128 411.38406008 -95.67292529 405.5987761 C-100.67754954 400.62087527 -105.67237435 395.63329184 -110.65941304 390.63777328 C-113.63357585 387.65869083 -116.6111626 384.68325861 -119.59804726 381.71692657 C-122.40587438 378.92750046 -125.20120254 376.12611527 -127.98754311 373.31523132 C-129.00913273 372.28864848 -130.03495778 371.2662596 -131.0653801 370.24854279 C-136.65207817 364.72528819 -140.34562181 360.5044708 -142.671875 352.9921875 C-144.98928493 351.07378465 -147.40190791 349.951627 -150.171875 348.8046875 C-150.914375 348.47718506 -151.656875 348.14968262 -152.421875 347.81225586 C-187.98615986 332.76041321 -223.7868272 339.7575427 -258.76953125 352.94921875 C-261.671875 353.9921875 -261.671875 353.9921875 -264.84107971 354.57669067 C-270.02701895 356.06442479 -273.20871998 359.90314345 -276.86694336 363.68310547 C-277.65490799 364.47676514 -278.44287262 365.2704248 -279.25471497 366.08813477 C-280.95994663 367.80901628 -282.65934994 369.53568851 -284.35352898 371.26745224 C-287.03743764 374.01066215 -289.7363474 376.73828234 -292.43959045 379.46243286 C-297.68988101 384.75873366 -302.92334088 390.07139849 -308.15349579 395.38757324 C-315.25839012 402.60829793 -322.37355114 409.81861138 -329.50650215 417.01163101 C-332.16065132 419.69537749 -334.80198927 422.3912955 -337.44285583 425.08810425 C-339.07714143 426.7401236 -340.71196528 428.3916107 -342.34741211 430.04248047 C-343.43791367 431.16633652 -343.43791367 431.16633652 -344.55044556 432.31289673 C-350.83898554 438.61715841 -357.55924595 443.05385663 -366.734375 443.3046875 C-367.61222656 443.34207031 -368.49007812 443.37945312 -369.39453125 443.41796875 C-378.05979337 442.29220764 -384.28539205 438.2943169 -390.2890625 432.171875 C-390.95350372 431.51317413 -391.61794495 430.85447327 -392.30252075 430.17581177 C-393.69278054 428.7896054 -395.07561151 427.39591126 -396.45117188 425.99511719 C-398.54203708 423.87209982 -400.6630308 421.78304617 -402.7890625 419.6953125 C-404.14515691 418.33525273 -405.49938862 416.97333262 -406.8515625 415.609375 C-407.47763397 414.99544891 -408.10370544 414.38152283 -408.74874878 413.74899292 C-414.33605658 407.98198953 -418.27477477 400.64880659 -418.171875 392.4296875 C-417.47521869 377.39879993 -404.57417494 367.73784408 -394.60546875 357.828125 C-393.68596939 356.91004059 -392.76647003 355.99195618 -391.81910706 355.04605103 C-389.40972933 352.64043713 -386.99736157 350.23784487 -384.58428955 347.8359375 C-382.10836355 345.37035987 -379.6353723 342.90184224 -377.16210938 340.43359375 C-372.33484856 335.61696161 -367.50441257 330.8035253 -362.671875 325.9921875 C-366.13138087 323.20784852 -369.64403893 320.54306138 -373.234375 317.9296875 C-379.22497177 313.44223925 -384.77042567 308.59052896 -390.17626953 303.42041016 C-391.16415842 302.47702948 -392.15725581 301.53906958 -393.15576172 300.60693359 C-423.69250559 272.06368636 -445.58823125 228.02378498 -447.7780304 185.95269775 C-447.8349802 183.82347388 -447.8621676 181.69634917 -447.875 179.56640625 C-447.88201431 178.7853653 -447.88902863 178.00432434 -447.89625549 177.19961548 C-447.91366725 174.69291355 -447.92010767 172.18644768 -447.921875 169.6796875 C-447.92254974 168.82426361 -447.92322449 167.96883972 -447.92391968 167.0874939 C-447.90849054 154.80027426 -447.55449858 142.98798718 -444.671875 130.9921875 C-444.42244141 129.86586914 -444.42244141 129.86586914 -444.16796875 128.71679688 C-437.26663842 97.76305232 -422.46544742 69.9616721 -400.671875 46.9921875 C-399.62105968 45.74986845 -398.5781441 44.50077936 -397.546875 43.2421875 C-370.76055033 11.68321006 -325.76939506 -5.37001085 -285.54150391 -8.80932617 C-267.34574672 -10.06788926 -248.63733666 -9.25269079 -230.88671875 -4.84375 C-225.47919704 -3.6296703 -222.18490931 -4.09033425 -217.3671875 -7.01171875 C-216.17214135 -7.85764465 -214.9822692 -8.71091358 -213.796875 -9.5703125 C-206.11553145 -14.90503097 -198.1450021 -19.08309653 -189.671875 -23.0078125 C-187.97998047 -23.80832031 -187.97998047 -23.80832031 -186.25390625 -24.625 C-125.93002325 -51.92279465 -51.03684918 -42.08005115 0 0 Z M-147.671875 -18.0078125 C-148.93902344 -17.71777344 -150.20617187 -17.42773438 -151.51171875 -17.12890625 C-169.41011466 -12.71433801 -185.77147378 -5.21653908 -201.671875 3.9921875 C-198.36944445 6.19380786 -194.91553277 7.87932906 -191.359375 9.6171875 C-172.37872657 19.05607364 -155.94644642 30.26548449 -140.671875 44.9921875 C-139.84558594 45.7553125 -139.01929688 46.5184375 -138.16796875 47.3046875 C-126.74301796 58.16114154 -117.43571275 71.32650307 -109.671875 84.9921875 C-109.01832031 86.11367187 -108.36476563 87.23515625 -107.69140625 88.390625 C-95.02305679 110.6812815 -88.28325368 135.61333965 -85.671875 160.9921875 C-85.53136719 162.29800781 -85.39085937 163.60382813 -85.24609375 164.94921875 C-84.72234837 174.42798315 -87.42603648 181.94841596 -90.72265625 190.65625 C-102.56248073 222.20958728 -105.23751975 255.17699872 -92.234375 286.66015625 C-89.0585696 293.85544517 -89.0585696 293.85544517 -83.359375 298.9921875 C-76.80872364 300.76863533 -70.92553727 298.64685639 -64.734375 296.4296875 C-63.99711182 296.16575195 -63.25984863 295.90181641 -62.50024414 295.62988281 C-43.16068292 288.49381778 -26.00485681 277.66640013 -10.671875 263.9921875 C-9.95902344 263.40050781 -9.24617187 262.80882812 -8.51171875 262.19921875 C17.17409471 240.83832665 33.62014719 209.89665638 42.203125 178.0546875 C42.39430908 177.34707275 42.58549316 176.63945801 42.7824707 175.91040039 C45.89341356 163.57253941 46.7368089 151.16125307 46.703125 138.4921875 C46.70291351 137.75228577 46.70270203 137.01238403 46.70248413 136.25006104 C46.66630585 123.50124776 45.55780147 111.37085776 42.328125 98.9921875 C42.14088867 98.2698291 41.95365234 97.5474707 41.76074219 96.80322266 C40.50105096 92.11582239 38.99908325 87.54789174 37.328125 82.9921875 C37.08223633 82.31381836 36.83634766 81.63544922 36.58300781 80.93652344 C24.35167532 47.80296402 0.81341913 20.97629374 -28.671875 1.9921875 C-29.66832031 1.34378906 -30.66476562 0.69539063 -31.69140625 0.02734375 C-55.78578505 -14.83366471 -84.27921502 -21.4587591 -112.359375 -21.3203125 C-113.10788727 -21.31882202 -113.85639954 -21.31733154 -114.62759399 -21.3157959 C-125.89928569 -21.27546407 -136.68915829 -20.67618893 -147.671875 -18.0078125 Z M-387.50390625 58.8828125 C-389.29017201 60.87405958 -390.98938711 62.91234609 -392.671875 64.9921875 C-393.44273437 65.93707031 -394.21359375 66.88195312 -395.0078125 67.85546875 C-423.25574594 103.12964955 -433.84879637 146.81607462 -429.2109375 191.48828125 C-428.62943429 195.72626193 -427.73073393 199.85018051 -426.671875 203.9921875 C-426.46788086 204.81928223 -426.26388672 205.64637695 -426.05371094 206.49853516 C-423.03205093 218.52139925 -419.1322279 229.86493665 -413.671875 240.9921875 C-413.37587402 241.60723145 -413.07987305 242.22227539 -412.77490234 242.85595703 C-405.11378512 258.61277673 -394.89705808 272.49033833 -382.671875 284.9921875 C-381.73976402 285.98462504 -380.80878918 286.97813078 -379.87890625 287.97265625 C-368.41584368 300.04911378 -355.15942332 309.34312786 -340.44726562 317.05322266 C-338.89737963 317.87292309 -337.36849564 318.73208932 -335.84375 319.59765625 C-320.44776195 327.99342166 -301.87623347 333.47654342 -284.47492313 335.5805912 C-281.671875 335.9921875 -281.671875 335.9921875 -278.69857693 336.79747581 C-273.98115545 337.74198191 -270.00923133 338.27697186 -265.72144818 335.92008829 C-260.26469938 331.9501317 -255.63463278 327.0290713 -250.92016602 322.22900391 C-249.29393746 320.62803093 -247.66456755 319.03024357 -246.03231812 317.43540955 C-241.61947812 313.10363528 -237.25545617 308.72561335 -232.90112805 304.33511782 C-229.25750535 300.67007599 -225.59063956 297.02875019 -221.92352813 293.38723409 C-212.77573312 284.30268924 -203.67404233 275.17362231 -194.59307425 266.02235131 C-187.20882027 258.5833694 -179.78199352 251.18920302 -172.32299805 243.82519531 C-163.64644463 235.25912977 -155.00155923 226.6630828 -146.39883941 218.02279985 C-141.85010803 213.45463293 -137.28967629 208.90005224 -132.69555855 204.377491 C-128.375365 200.12118797 -124.1015282 195.82312811 -119.85889816 191.48954964 C-118.29868923 189.91040149 -116.72311176 188.34626249 -115.13119698 186.7990818 C-106.02531824 178.48310102 -106.02531824 178.48310102 -101.96629143 167.33906174 C-102.02456213 163.08659423 -102.74799359 159.13636523 -103.671875 154.9921875 C-103.92443081 153.22801574 -104.16976272 151.46273839 -104.3984375 149.6953125 C-104.68171885 148.20776129 -104.98109546 146.72318048 -105.296875 145.2421875 C-105.46799805 144.42129639 -105.63912109 143.60040527 -105.81542969 142.75463867 C-111.73648506 115.84237193 -123.58606018 90.86321781 -141.671875 69.9921875 C-142.73148437 68.76822266 -142.73148437 68.76822266 -143.8125 67.51953125 C-146.06277654 64.97420097 -148.3523985 62.47457038 -150.671875 59.9921875 C-151.44273437 59.1671875 -152.21359375 58.3421875 -153.0078125 57.4921875 C-182.37340493 27.08121799 -225.37319931 9.52836262 -267.39624023 8.75976562 C-312.88848412 8.46502599 -355.73922751 26.10220587 -387.50390625 58.8828125 Z M-118.54406834 212.74133301 C-119.36907306 213.56725952 -120.19407778 214.39318604 -121.04408264 215.24414062 C-121.50229493 215.70149849 -121.96050722 216.15885635 -122.43260473 216.63007355 C-123.97967817 218.17548938 -125.52313179 219.72447175 -127.06665039 221.2734375 C-128.17001746 222.37708641 -129.27360431 223.48051563 -130.37739563 224.58374023 C-133.38361663 227.58967312 -136.38673424 230.59868963 -139.38932729 233.60824585 C-142.52392182 236.74907169 -145.66132928 239.88708501 -148.79844666 243.02539062 C-154.74321612 248.97327407 -160.68543087 254.92370309 -166.62674469 260.87503815 C-173.38888292 267.64833547 -180.15384492 274.41880945 -186.91905224 281.18904114 C-200.83981671 295.12027149 -214.75700964 309.05506514 -228.671875 322.9921875 C-225.22958389 324.13961787 -223.69419647 323.79384399 -220.171875 323.1171875 C-189.62096082 317.67611012 -162.94016559 323.42850279 -134.671875 335.9921875 C-124.441875 325.7621875 -114.211875 315.5321875 -103.671875 304.9921875 C-105.127061 300.6266295 -106.65644163 296.71266141 -108.546875 292.5546875 C-118.51487305 269.81937571 -120.59963346 242.98232191 -116.109375 218.62890625 C-115.67829735 216.03089363 -115.59528709 213.62011033 -115.671875 210.9921875 C-116.97711491 210.87840644 -116.97711491 210.87840644 -118.54406834 212.74133301 Z M-91.20315552 317.28295898 C-91.80272064 317.88696533 -92.40228577 318.49097168 -93.02001953 319.11328125 C-93.70057404 319.79398682 -94.38112854 320.47469238 -95.08230591 321.17602539 C-95.81569183 321.91973389 -96.54907776 322.66344238 -97.3046875 323.4296875 C-98.43244095 324.56168579 -98.43244095 324.56168579 -99.58297729 325.71655273 C-101.99232436 328.13712934 -104.39463984 330.56455468 -106.796875 332.9921875 C-108.42532411 334.63066281 -110.05422452 336.2686897 -111.68359375 337.90625 C-115.68494636 341.92969976 -119.68054147 345.95879978 -123.671875 349.9921875 C-119.55857629 354.89692651 -115.28645039 359.5141403 -110.7421875 364.01953125 C-110.10699188 364.65331192 -109.47179626 365.28709259 -108.81735229 365.94007874 C-106.81288784 367.93900156 -104.80495286 369.93439534 -102.796875 371.9296875 C-101.42685111 373.29468883 -100.05705726 374.6599211 -98.6875 376.02539062 C-95.35160957 379.35032961 -92.01260464 382.67211103 -88.671875 385.9921875 C-87.57140253 385.05984656 -86.47251325 384.12563678 -85.37426758 383.19067383 C-84.7621492 382.67064285 -84.15003082 382.15061188 -83.5193634 381.61482239 C-80.66137803 379.10467577 -78.01365097 376.40176107 -75.359375 373.6796875 C-68.91133262 367.07302169 -68.91133262 367.07302169 -64.796875 366.8046875 C-61.75698964 366.98708062 -60.17508791 367.3233789 -57.671875 368.9921875 C-56.0159389 372.3040597 -55.93338554 375.43860145 -56.671875 378.9921875 C-58.56997676 382.08842658 -61.08044918 384.46709511 -63.671875 386.9921875 C-64.64488851 387.97361808 -65.61613869 388.95679895 -66.5859375 389.94140625 C-69.26022141 392.64677142 -71.96004085 395.32448808 -74.671875 397.9921875 C-73.32614613 400.99162655 -71.83650399 403.07294929 -69.50732422 405.38378906 C-68.86681122 406.024151 -68.22629822 406.66451294 -67.56637573 407.32427979 C-66.87673737 408.00359558 -66.187099 408.68291138 -65.4765625 409.3828125 C-64.76911896 410.08742615 -64.06167542 410.79203979 -63.33279419 411.51800537 C-61.07547638 413.7641414 -58.81129867 416.00321759 -56.546875 418.2421875 C-55.01386547 419.76516467 -53.48130785 421.28859689 -51.94921875 422.8125 C-48.19532927 426.54435565 -44.43578586 430.27044101 -40.671875 433.9921875 C-39.56024025 433.04908925 -38.44999751 432.10435009 -37.34033203 431.15893555 C-36.72191437 430.63301315 -36.1034967 430.10709076 -35.46633911 429.56523132 C-32.15067183 426.65868675 -29.15541055 423.43752559 -26.1015625 420.26171875 C-22.83365389 417.20921891 -20.11173326 415.23216388 -15.671875 414.4921875 C-11.53947791 415.18092035 -10.13676005 416.65734302 -7.671875 419.9921875 C-7.18875444 423.66591679 -7.33877499 425.44828506 -9.2890625 428.6328125 C-10.03414063 429.49390625 -10.77921875 430.355 -11.546875 431.2421875 C-12.35769531 432.18191406 -13.16851562 433.12164062 -14.00390625 434.08984375 C-18.08930422 438.53413466 -22.32171269 442.80549685 -26.671875 446.9921875 C-25.69321162 448.13845072 -24.71392913 449.28418538 -23.734375 450.4296875 C-23.18910156 451.06777344 -22.64382813 451.70585937 -22.08203125 452.36328125 C-20.02491925 454.87825 -20.02491925 454.87825 -16.609375 455.4921875 C-12.51029559 454.97166948 -11.93067856 454.70662575 -9.078125 452.0859375 C-8.38259521 451.44978516 -7.68706543 450.81363281 -6.97045898 450.15820312 C-6.21192627 449.44341797 -5.45339355 448.72863281 -4.671875 447.9921875 C-3.8456665 447.22068359 -3.01945801 446.44917969 -2.16821289 445.65429688 C0.50426804 443.12764201 3.13737178 440.56476553 5.765625 437.9921875 C6.67505859 437.12851562 7.58449219 436.26484375 8.52148438 435.375 C12.10383244 431.85418592 14.89236475 429.02115828 16.86328125 424.3671875 C16.02794975 419.0991115 13.06089109 416.6408584 9.328125 412.9921875 C8.35116482 412.00183389 7.37619677 411.0095126 6.40283203 410.015625 C3.09154949 406.64799023 -0.25731389 403.31915195 -3.609375 399.9921875 C-4.78213509 398.82445376 -5.95466298 397.65648676 -7.12695312 396.48828125 C-9.97259189 393.65355516 -12.82134953 390.82199926 -15.671875 387.9921875 C-20.34733548 391.88651567 -24.73745038 395.9492846 -28.984375 400.3046875 C-35.42086853 406.89952035 -35.42086853 406.89952035 -40.046875 407.2421875 C-43.671875 406.9921875 -43.671875 406.9921875 -46.046875 405.8671875 C-48.33675811 403.22501468 -48.603611 401.47365143 -48.671875 397.9921875 C-46.43192051 391.90342233 -42.04724613 388.02464206 -37.484375 383.6171875 C-36.73478516 382.88113281 -35.98519531 382.14507812 -35.21289062 381.38671875 C-33.37252676 379.58152107 -31.52551577 377.78373242 -29.671875 375.9921875 C-31.01760387 372.99274845 -32.50724601 370.91142571 -34.83642578 368.60058594 C-35.47693878 367.960224 -36.11745178 367.31986206 -36.77737427 366.66009521 C-37.46701263 365.98077942 -38.156651 365.30146362 -38.8671875 364.6015625 C-39.57463104 363.89694885 -40.28207458 363.19233521 -41.01095581 362.46636963 C-43.26827362 360.2202336 -45.53245133 357.98115741 -47.796875 355.7421875 C-49.32988453 354.21921033 -50.86244215 352.69577811 -52.39453125 351.171875 C-56.14842073 347.44001935 -59.90796414 343.71393399 -63.671875 339.9921875 C-64.77834124 340.92985191 -65.88326243 341.86933968 -66.98754883 342.80957031 C-67.60302078 343.332547 -68.21849274 343.85552368 -68.85261536 344.39434814 C-72.48538539 347.58497733 -75.76386212 351.12561688 -79.12109375 354.6015625 C-82.33730191 357.61583416 -84.30985376 358.85031029 -88.671875 359.3046875 C-92.1190914 358.94560246 -93.3959667 358.6052674 -95.671875 355.9921875 C-96.71633156 352.23214388 -97.20949882 350.05002517 -95.4128418 346.51489258 C-93.72549814 344.06988879 -91.99324493 342.08441551 -89.87890625 340.00390625 C-89.16669922 339.29814453 -88.45449219 338.59238281 -87.72070312 337.86523438 C-86.98271484 337.14400391 -86.24472656 336.42277344 -85.484375 335.6796875 C-84.35999023 334.56883789 -84.35999023 334.56883789 -83.21289062 333.43554688 C-81.37034218 331.61647038 -79.52327838 329.80224361 -77.671875 327.9921875 C-79.26095776 324.63296497 -81.0231893 322.37139757 -83.671875 319.7421875 C-84.373125 319.03578125 -85.074375 318.329375 -85.796875 317.6015625 C-88.09634207 315.62785326 -88.84612801 315.29613563 -91.20315552 317.28295898 Z M-347.8359375 336.9609375 C-348.64804687 337.79625 -349.46015625 338.6315625 -350.296875 339.4921875 C-351.11414063 340.3275 -351.93140625 341.1628125 -352.7734375 342.0234375 C-353.39992188 342.673125 -354.02640625 343.3228125 -354.671875 343.9921875 C-350.3304193 349.29841113 -345.62152834 354.11654122 -340.72363281 358.90332031 C-335.74774936 363.79716637 -335.74774936 363.79716637 -335.421875 368.9296875 C-335.46800115 371.47585085 -335.50530122 372.70531043 -336.796875 374.9296875 C-339.51704929 376.4711196 -341.53899477 376.86932945 -344.671875 376.9921875 C-350.76075717 374.76107885 -354.64208276 370.36480244 -359.046875 365.8046875 C-360.15095703 364.68030273 -360.15095703 364.68030273 -361.27734375 363.53320312 C-363.08254143 361.69283926 -364.88033008 359.84582827 -366.671875 357.9921875 C-371.00289969 359.67673269 -373.90436166 362.86532041 -377.15234375 366.06640625 C-377.76580154 366.6684639 -378.37925934 367.27052155 -379.01130676 367.89082336 C-380.30420147 369.16485918 -381.59423709 370.44180207 -382.8815918 371.72143555 C-384.84917591 373.66958913 -386.83704171 375.59536836 -388.82617188 377.52148438 C-390.08204452 378.76429723 -391.33664527 380.00839693 -392.58984375 381.25390625 C-393.48197823 382.10900032 -393.48197823 382.10900032 -394.39213562 382.98136902 C-397.28206641 385.9029764 -398.56956597 387.63424811 -399.72558594 391.67871094 C-399.66643305 395.32790653 -399.42365145 396.23209427 -396.89453125 398.74609375 C-395.9202417 399.74793701 -395.9202417 399.74793701 -394.92626953 400.77001953 C-394.18231934 401.50333496 -393.43836914 402.23665039 -392.671875 402.9921875 C-390.98287107 404.77194388 -389.29408131 406.55190353 -387.60546875 408.33203125 C-385.77623527 410.20065956 -383.9441532 412.06650317 -382.109375 413.9296875 C-381.41775269 414.64958862 -381.41775269 414.64958862 -380.7121582 415.3840332 C-379.35563336 416.79536232 -377.98074016 418.18896338 -376.60546875 419.58203125 C-375.80165771 420.40566162 -374.99784668 421.22929199 -374.16967773 422.07788086 C-371.24671797 424.31802625 -369.32312541 424.80021357 -365.671875 424.9921875 C-361.97076226 423.31787459 -359.42359454 420.94773812 -356.671875 417.9921875 C-358.05784367 414.85813082 -359.66258656 412.77384568 -362.11328125 410.390625 C-362.77908203 409.73578125 -363.44488281 409.0809375 -364.13085938 408.40625 C-364.82501953 407.73335938 -365.51917969 407.06046875 -366.234375 406.3671875 C-367.61286037 405.02306881 -368.98926901 403.67681597 -370.36328125 402.328125 C-371.27895874 401.43939697 -371.27895874 401.43939697 -372.21313477 400.53271484 C-374.95791881 397.63403914 -375.07957793 394.91257819 -375.0078125 390.97265625 C-374.671875 388.9921875 -374.671875 388.9921875 -372.671875 386.4296875 C-369.49321775 384.9065809 -367.4240058 384.63642793 -363.9453125 385.15209961 C-359.01690194 386.97326163 -355.67629148 391.29057892 -352.171875 395.0546875 C-351.34945312 395.90869141 -350.52703125 396.76269531 -349.6796875 397.64257812 C-347.66030334 399.74414652 -345.65909315 401.86025356 -343.671875 403.9921875 C-337.46840113 398.86676772 -331.81502824 393.2644969 -326.14453125 387.5625 C-325.14584483 386.56194464 -324.14693453 385.56161269 -323.14781189 384.56149292 C-320.53995536 381.9498487 -317.93511805 379.33521383 -315.33093262 376.71990967 C-312.66452264 374.04320427 -309.99522036 371.36938648 -307.32617188 368.6953125 C-302.10526399 363.46373352 -296.88754749 358.22898654 -291.671875 352.9921875 C-294.46068703 351.55441928 -296.91268892 350.59294738 -299.98828125 349.94921875 C-300.82593018 349.76609131 -301.6635791 349.58296387 -302.52661133 349.39428711 C-303.42017334 349.19971924 -304.31373535 349.00515137 -305.234375 348.8046875 C-312.66615071 347.11226448 -319.83829424 345.08631614 -326.984375 342.4296875 C-327.74113525 342.14907471 -328.49789551 341.86846191 -329.27758789 341.5793457 C-333.68079043 339.89221048 -337.86679173 337.95747558 -342.03198242 335.74633789 C-344.92388211 334.41641707 -345.43665821 334.77819966 -347.8359375 336.9609375 Z " fill="#000000" transform="translate(447.671875,39.0078125)"/>
<path d="M0 0 C10.72970565 9.04661457 16.35954956 20.09462281 19.08984375 33.74609375 C20.3421384 50.02592414 16.06801766 64.12891219 5.56640625 76.67578125 C-2.92686346 85.52666232 -14.84981524 91.78652417 -27.171875 92.19921875 C-42.96361922 92.43984905 -56.77674337 90.13171937 -68.90625 78.9375 C-78.98750814 67.77851271 -85.1676741 54.74726654 -84.87109375 39.4140625 C-83.49434595 23.63245344 -77.52135028 10.58942457 -65.66015625 -0.00390625 C-45.48394199 -14.39294041 -20.07658743 -15.12377291 0 0 Z M-58.97265625 19.24609375 C-65.00707474 26.87292823 -67.43061161 36.32180025 -66.32421875 45.90625 C-64.48369917 55.16860501 -59.70929132 63.19572621 -52.16015625 68.99609375 C-43.28488186 74.43195223 -34.81517232 74.91365358 -24.66015625 73.99609375 C-21.26101584 73.14269254 -18.59812401 71.88604896 -15.66015625 69.99609375 C-14.96535156 69.57199219 -14.27054688 69.14789063 -13.5546875 68.7109375 C-5.26132798 63.12497865 -1.12641788 55.65125996 0.93359375 45.9765625 C2.18530259 36.79335245 -0.13808801 28.24949193 -5.28125 20.578125 C-11.17471627 13.2633654 -19.31616568 8.41465338 -28.66015625 6.99609375 C-40.52409892 6.19175865 -50.81864543 10.58117999 -58.97265625 19.24609375 Z " fill="#000000" transform="translate(288.66015625,420.00390625)"/>
<path d="M0 0 C2.5625 2.0625 2.5625 2.0625 4 5 C4.56975482 11.29986049 2.89034809 16.61885666 1.0625 22.5625 C0.50865922 24.39621412 -0.04220599 26.23083005 -0.58984375 28.06640625 C-0.83597412 28.87021729 -1.08210449 29.67402832 -1.33569336 30.50219727 C-2.70729039 35.65942226 -3.1277119 40.54705453 -3.1328125 45.875 C-3.13410156 47.19113281 -3.13539062 48.50726563 -3.13671875 49.86328125 C-3.13462402 50.54471191 -3.1325293 51.22614258 -3.13037109 51.92822266 C-3.12508672 53.96654966 -3.13029495 56.00464915 -3.13671875 58.04296875 C-3.14573831 70.17722284 -3.00006869 82.14261836 0.375 93.875 C0.58382812 94.65101563 0.79265625 95.42703125 1.0078125 96.2265625 C2.05284849 100.02437624 3.23648372 103.69849872 4.671875 107.3671875 C6.41389507 112.13212475 6.01696914 114.78659657 3.9375 119.3125 C1.52137947 121.41686304 -0.73621617 121.77896343 -3.8671875 122.21484375 C-6.97147767 121.90214053 -8.55100292 120.93403943 -11 119 C-20.75378849 101.30548018 -23.41959031 79.10895118 -23.3125 59.3125 C-23.31067719 58.61067596 -23.30885437 57.90885193 -23.30697632 57.1857605 C-23.22728215 38.92333531 -21.37779776 18.17191654 -12 2 C-7.99327669 -0.67114888 -4.7089486 -0.81599109 0 0 Z " fill="#000000" transform="translate(57,149)"/>
<path d="M0 0 C9.20683577 5.94578859 10.53312924 19.60178663 12.74438477 29.69384766 C18.55706886 57.28166926 17.38940457 93.96843163 3 119 C1.32398541 121.19599696 0.59088239 121.87921189 -2.12109375 122.43359375 C-8.31685858 122.44404192 -8.31685858 122.44404192 -11.5 120.375 C-13.68109662 116.92159702 -14.40995606 113.93239782 -13.54638672 109.86181641 C-12.82143703 107.4246534 -12.02376959 105.02620749 -11.1875 102.625 C-5.98973378 87.21515192 -4.7237899 72.80441741 -4.625 56.5625 C-4.62010559 55.81964752 -4.61521118 55.07679504 -4.61016846 54.31143188 C-4.57337266 40.75509399 -5.97910264 27.87952445 -11.13671875 15.20703125 C-12.48840088 11.75137332 -12.70483331 8.64163879 -12 5 C-8.62505893 0.09099481 -5.84787119 -0.93983644 0 0 Z " fill="#000000" transform="translate(463,118)"/>
<path d="M0 0 C11.8136534 3.29015768 22.3598145 22.2378251 28.2265625 32.234375 C28.84144531 33.33910156 29.45632813 34.44382813 30.08984375 35.58203125 C30.41936035 36.17000488 30.74887695 36.75797852 31.08837891 37.36376953 C40.15964942 53.77535077 51.33563191 78.43925789 48.08984375 97.58203125 C46.52734375 100.64453125 46.52734375 100.64453125 44.08984375 102.58203125 C40.14055096 103.73091643 38.06025516 104.01332521 34.27734375 102.33203125 C30.87679576 99.61159286 29.85156556 97.24095356 29.23046875 93.07421875 C29.08770508 92.17848145 28.94494141 91.28274414 28.79785156 90.35986328 C28.64670898 89.40192871 28.49556641 88.44399414 28.33984375 87.45703125 C23.96292699 61.90834286 12.58089442 39.99646005 -4.39453125 20.4921875 C-10.83658426 13.03981251 -10.83658426 13.03981251 -11.47265625 9.08203125 C-10.91015625 5.58203125 -10.91015625 5.58203125 -8.91015625 2.64453125 C-5.82766566 0.52531897 -3.77115935 -0.30197365 0 0 Z " fill="#000000" transform="translate(279.91015625,106.41796875)"/>
<path d="M0 0 C2.67881036 1.97386026 3.75391303 3.31447201 4.875 6.4375 C5.06918152 10.41822107 4.02052318 12.86172415 1.375 15.8125 C-2.09457551 17.54728775 -5.19775069 17.69486692 -9 17 C-12.03437855 14.97708097 -12.81161043 13.57772802 -13.9375 10.125 C-14.0154753 6.2262352 -13.13513938 4.23952181 -11 1 C-7.51811815 -1.86011723 -4.17847912 -1.04461978 0 0 Z " fill="#000000" transform="translate(252,444)"/>
</svg>
