<svg width="55" height="50" viewBox="0 0 55 50" fill="none" xmlns="http://www.w3.org/2000/svg">
<g clip-path="url(#clip0_88_785)">
<path d="M0 27.8732C0.237864 27.674 0.445818 27.4022 0.720715 27.2869C3.20191 26.2353 4.05224 24.1079 2.97117 21.6232C2.00404 19.399 2.0482 17.1648 3.03811 14.9691C3.90981 13.0352 5.47515 11.9949 7.5675 11.8256C10.1911 11.6136 12.3091 12.5072 13.6736 14.8624C13.8332 15.137 13.9514 15.4358 14.044 15.6308C18.8269 15.2551 23.5813 15.5369 28.3286 15.4415C28.9497 15.4287 29.2189 15.1541 29.3243 14.4895C29.7743 11.6719 30.5136 8.94393 31.8767 6.41661C33.2269 3.91348 35.033 1.86287 37.7407 0.779939C40.1763 -0.194845 42.6418 -0.275958 45.1216 0.661826C45.358 0.751478 45.6614 0.715902 45.9221 0.673211C47.2125 0.461178 48.493 0.175146 49.7906 0.0171884C50.6466 -0.0866937 51.0255 0.418486 50.9101 1.26235C50.7349 2.52886 50.2236 3.63883 49.3647 4.64919C49.4843 4.85126 49.6154 5.05476 49.7293 5.26964C50.8716 7.41131 52.0339 9.54303 53.142 11.7032C53.9097 13.2002 53.783 14.7684 53.283 16.3153C52.2176 19.6096 48.0429 19.7633 46.0844 17.8678C45.16 16.9727 44.7626 16.7522 43.9266 16.5302C43.9821 16.9471 44.0348 17.337 44.0847 17.7255C44.4464 20.5204 44.5846 23.311 43.9337 26.0859C43.8326 26.5157 43.6275 26.9283 43.5748 27.3624C43.5363 27.684 43.5477 28.1379 43.74 28.34C45.8964 30.6126 47.664 33.1442 48.8932 35.8537C49.7663 35.7313 50.5654 35.4865 51.3459 35.5377C52.8258 35.6345 53.8528 36.4954 54.3584 37.8786C54.8669 39.269 54.5692 40.554 53.5551 41.6227C51.9983 43.262 50.1267 44.4887 48.1383 45.5346C44.2641 47.5724 40.1136 48.7421 35.8036 49.391C31.9251 49.9745 28.0238 50.1268 24.1112 49.9162C17.9566 49.5846 12 48.4191 6.47646 45.5417C4.67468 44.6025 3.00393 43.4712 1.4984 42.0965C0.770567 41.4306 0.274897 40.6422 0.00427301 39.703C0.00427301 39.3131 0.00427301 38.9217 0.00427301 38.5318C0.0341841 38.4678 0.0740655 38.408 0.0925819 38.3411C0.895908 35.3784 4.17331 34.4904 6.33973 36.6477C6.54341 36.8498 6.76703 37.0334 7.01344 37.2553C8.04466 34.9358 9.36502 32.8895 10.9674 31.0196C11.2209 30.7236 11.2736 30.3735 11.0671 30.0306C10.8606 29.6862 10.6213 29.3603 10.4005 29.0344C9.90627 29.3987 9.45902 29.7773 8.96763 30.0832C7.57035 30.9555 6.01925 31.0167 4.44108 30.8588C2.64642 30.6795 1.05971 30.0989 0.00284867 28.5193C0.00284867 28.3058 0.00284867 28.0938 0.00284867 27.8804L0 27.8732ZM46.0075 15.4458C46.1428 15.3192 46.2739 15.2025 46.3978 15.0787C47.7181 13.7624 49.0285 12.4361 50.3631 11.134C50.6395 10.865 50.695 10.6658 50.4942 10.3214C49.5385 8.68351 48.6141 7.02567 47.6626 5.3849C47.1741 4.54246 47.1997 4.39162 47.8022 3.65021C48.2224 3.13365 48.5599 2.5502 48.9345 1.99664C48.8847 1.94541 48.8348 1.89418 48.785 1.84437C48.1141 1.99949 47.4433 2.15033 46.7752 2.30971C46.3337 2.41501 45.9961 2.64982 45.687 3.00558C44.4009 4.48127 42.8327 5.43613 40.8044 5.46886C40.1022 5.48025 39.4613 5.72216 38.9741 6.21738C38.4941 6.70549 37.9629 7.21351 37.6837 7.81688C37.1225 9.03216 36.6667 10.3029 36.2622 11.5808C35.8392 12.9156 35.513 14.2803 34.7624 15.4871C34.0203 16.6824 32.9877 17.3413 31.5405 17.2701C31.052 17.246 30.562 17.2659 30.0307 17.2659C30.0307 18.4684 30.0379 19.584 30.0293 20.7011C30.0108 22.904 29.1035 24.633 27.1436 25.6789C26.3816 26.0859 25.4842 26.2424 24.5898 26.5313V31.6301C25.6979 31.4508 26.7633 31.28 27.8273 31.1078C29.9965 30.7563 32.1587 30.3465 34.3379 30.0761C35.7067 29.9068 37.104 29.985 38.4827 29.8797C39.4969 29.8015 40.3173 30.079 41.0295 30.8047C43.0549 32.8667 44.6544 35.2104 45.7996 37.863C45.8665 38.0167 45.9477 38.1633 46.0431 38.3568C46.563 37.9896 47.0373 37.6538 47.5244 37.3094C47.4518 37.1301 47.3991 36.9821 47.335 36.8384C46.1514 34.1873 44.5319 31.8293 42.5222 29.7374C41.6775 28.858 41.4553 27.8476 41.8584 26.6992C42.3085 25.4142 42.4923 24.0837 42.5393 22.7318C42.619 20.4506 42.3797 18.198 41.9311 15.9638C41.7245 14.9364 42.065 14.5322 43.119 14.5507C44.1573 14.5692 45.1002 14.9051 46.0061 15.4458H46.0075ZM44.3724 39.2248C43.5691 36.8797 41.3556 33.4871 39.5952 31.9744C39.373 31.7838 38.9855 31.7197 38.6722 31.7154C37.9828 31.7069 37.292 31.7681 36.6012 31.8108C35.1669 31.9004 33.7212 31.9061 32.304 32.1111C29.639 32.4981 27.0012 33.0873 24.3305 33.4331C21.8664 33.7518 19.3738 33.7917 16.8969 33.4288C16.4981 33.3704 16.1605 33.4501 15.8885 33.7618C15.3045 34.4292 14.6806 35.0639 14.1394 35.764C13.1495 37.0419 12.3561 38.4379 11.7793 39.952C20.1643 43.807 36.3334 43.6875 44.3724 39.2248V39.2248ZM27.3188 48.1744C27.3231 48.2242 27.3259 48.274 27.3302 48.3238C30.1219 48.0733 32.9278 47.9225 35.7039 47.5482C39.8985 46.9833 43.9209 45.7908 47.6583 43.7473C49.3333 42.8323 50.9058 41.7707 52.2276 40.3804C52.974 39.5963 52.9497 38.5133 52.2162 37.8046C51.5012 37.113 50.3973 37.0903 49.6709 37.8089C47.6854 39.7741 45.2797 41.0421 42.7102 42.0268C38.2819 43.7231 33.6599 44.3805 28.944 44.5072C24.1796 44.6338 19.4636 44.2852 14.8573 42.9888C11.1497 41.9457 7.65866 40.47 4.82993 37.7292C4.14767 37.0675 3.09366 37.1202 2.40855 37.7563C1.71633 38.3995 1.60523 39.407 2.1949 40.1655C2.49829 40.554 2.86862 40.8969 3.24322 41.2199C5.75717 43.3844 8.68276 44.8089 11.7964 45.8676C16.8271 47.5781 22.0317 48.1615 27.3188 48.1758V48.1744ZM22.7082 26.3919C22.4362 26.3549 22.2254 26.3264 22.0146 26.2965C19.7399 25.9792 17.9495 24.3754 17.4424 22.1241C17.3043 21.5094 17.3029 20.8576 17.2872 20.223C17.263 19.2539 17.2815 18.2848 17.2815 17.3271C14.6935 16.9457 12.3903 18.1951 11.4474 20.5204C10.2866 23.3821 10.6056 26.1087 12.349 28.6588C13.2691 30.0064 13.2349 31.1434 12.1852 32.3871C10.8862 33.9283 9.78947 35.5989 8.9249 37.419C8.78389 37.715 8.65427 38.0153 8.50899 38.334C9.06306 38.6442 9.55445 38.9203 10.0359 39.1907C10.0914 39.138 10.1256 39.1195 10.1413 39.0897C10.1983 38.9801 10.2552 38.8691 10.3037 38.7552C11.3192 36.3958 12.7549 34.3282 14.5653 32.5081C15.3316 31.7368 16.2104 31.4778 17.2786 31.6543C19.0747 31.9517 20.8808 31.798 22.7096 31.7154V26.3919H22.7082ZM2.53959 28.4524C3.92975 29.1668 5.36263 29.2052 6.81973 28.9448C7.85949 28.7584 8.72407 28.2589 9.28241 27.3382C9.3935 27.156 9.41629 26.88 9.38353 26.6608C9.27956 25.9607 9.05024 25.2719 9.01036 24.5718C8.84229 21.5777 9.54306 18.8896 12.0015 16.9243C12.3775 16.6227 12.4131 16.4021 12.2322 16.0036C11.436 14.259 9.60003 13.3383 7.48774 13.6599C6.09047 13.8719 5.10055 14.619 4.58637 15.9425C3.93544 17.6188 3.92832 19.2781 4.65901 20.9558C5.73581 23.4291 5.44667 26.5882 2.65639 28.3158C2.6279 28.3329 2.61081 28.367 2.53959 28.4538V28.4524ZM19.116 17.2915C19.116 18.6391 19.0405 19.9384 19.1345 21.2248C19.2642 22.9908 20.5446 24.2729 22.3065 24.4964C22.9717 24.5803 23.6525 24.5504 24.3263 24.5476C26.6408 24.5405 28.1705 23.0377 28.2033 20.7338C28.2175 19.7235 28.2076 18.7117 28.2033 17.6999C28.2033 17.5661 28.1705 17.4324 28.1535 17.2915H19.116V17.2915ZM43.9365 2.20725C43.7115 2.13183 43.5648 2.06921 43.4138 2.03648C43.1375 1.97529 42.8597 1.90841 42.5777 1.88422C39.4755 1.60673 36.9359 2.7167 34.9689 5.09033C32.5034 8.06591 31.6103 11.6634 31.0164 15.3675C32.1103 15.618 32.7412 15.4045 33.2383 14.4838C33.5973 13.8193 33.8764 13.1021 34.1143 12.382C34.5202 11.1568 34.7866 9.88029 35.2509 8.67924C36.3491 5.83885 38.0141 3.65591 41.4454 3.5506C42.3954 3.52072 43.2158 2.97569 43.938 2.20867L43.9365 2.20725ZM47.5643 16.6682C48.4702 17.522 50.309 17.4836 51.1166 16.5416C51.8658 15.6678 52.0766 13.657 51.5539 12.6638C50.2307 13.9915 48.8975 15.3305 47.5643 16.6682Z" fill="#9D00DE"/>
<path d="M46.3948 8.18068C46.8848 8.17783 47.3149 8.60901 47.3106 9.09569C47.3064 9.59091 46.8819 9.99506 46.3791 9.98509C45.8849 9.97513 45.516 9.60372 45.506 9.10708C45.4974 8.59621 45.8934 8.18352 46.3948 8.18068Z" fill="#9D00DE"/>
</g>
<defs>
<clipPath id="clip0_88_785">
<rect width="54.5977" height="50" fill="white"/>
</clipPath>
</defs>
</svg>
