<?xml version="1.0" encoding="UTF-8"?>
<svg version="1.1" xmlns="http://www.w3.org/2000/svg" width="512" height="512">
<path d="M0 0 C1.47683969 1.12187997 2.93575209 2.26778397 4.375 3.4375 C5.20257813 4.05238281 6.03015625 4.66726562 6.8828125 5.30078125 C9.6317656 7.65764229 11.53876651 10.10832968 13.625 13.0625 C14.31078125 14.02414063 14.9965625 14.98578125 15.703125 15.9765625 C17.375 18.4375 17.375 18.4375 18.375 20.4375 C18.94420166 20.32156494 19.51340332 20.20562988 20.09985352 20.08618164 C22.71198427 19.5553729 25.32473262 19.02766581 27.9375 18.5 C28.83275391 18.31759766 29.72800781 18.13519531 30.65039062 17.94726562 C31.53017578 17.77001953 32.40996094 17.59277344 33.31640625 17.41015625 C34.11763916 17.24781494 34.91887207 17.08547363 35.74438477 16.91821289 C41.67153403 15.83509856 47.47040241 15.25433124 53.4921875 15.1640625 C54.25900848 15.15176102 55.02582947 15.13945953 55.81588745 15.12678528 C58.29396129 15.09472601 60.77175703 15.07586278 63.25 15.0625 C64.09260376 15.05727325 64.93520752 15.05204651 65.80334473 15.04666138 C97.41231808 14.95615904 97.41231808 14.95615904 110.375 21.4375 C110.63539063 20.71046875 110.89578125 19.9834375 111.1640625 19.234375 C115.72710712 8.69521388 125.68049636 0.55070424 135.89453125 -4.19921875 C149.76304692 -9.63144318 166.63107766 -11.60574318 180.76953125 -5.83203125 C181.62933594 -5.41308594 182.48914063 -4.99414062 183.375 -4.5625 C184.34824219 -4.09199219 185.32148438 -3.62148438 186.32421875 -3.13671875 C200.30945357 4.0892971 208.87218644 14.75164724 214.375 29.4375 C219.16388994 45.36219909 217.03747518 61.65409431 209.5 76.3125 C204.3444251 85.15245598 198.08106164 90.9606475 189.375 96.4375 C188.715 96.4375 188.055 96.4375 187.375 96.4375 C187.79072266 98.04818359 187.79072266 98.04818359 188.21484375 99.69140625 C188.58092096 101.12755529 188.94679558 102.56375599 189.3125 104 C189.49490234 104.70447266 189.67730469 105.40894531 189.86523438 106.13476562 C190.04248047 106.83408203 190.21972656 107.53339844 190.40234375 108.25390625 C190.64585571 109.20438843 190.64585571 109.20438843 190.89428711 110.17407227 C197.33320864 140.49161491 191.54947264 174.14137192 175.375 200.4375 C173.27287166 203.44476269 171.12021993 206.3881922 168.87890625 209.29296875 C167.18361241 211.27386322 167.18361241 211.27386322 167.375 213.4375 C169.58047241 214.8254529 171.78818827 216.10910431 174.0625 217.375 C186.68415014 224.67484617 198.68111476 234.67581471 207.375 246.4375 C207.35866013 245.84075974 207.34232025 245.24401947 207.32548523 244.62919617 C207.16596003 238.31609582 207.10161826 232.00671148 207.08813477 225.69165039 C207.07128735 223.34761338 207.03160267 221.00360869 206.96704102 218.66040039 C206.5228652 201.77810836 208.8468366 191.32124569 219.82272339 178.29867554 C221.78751453 175.94289617 223.50618743 173.45593783 225.21484375 170.91015625 C226.24633044 169.43935642 227.27885359 167.96928283 228.3125 166.5 C229.48831017 164.82423904 230.66409054 163.14845717 231.83984375 161.47265625 C232.42362793 160.64137207 233.00741211 159.81008789 233.60888672 158.95361328 C235.95221507 155.61516402 238.29115714 152.27365691 240.62939453 148.93164062 C241.78713745 147.27744459 242.94565818 145.62379266 244.10498047 143.97070312 C247.14956799 139.62790279 250.18003618 135.27606889 253.19140625 130.91015625 C253.81853516 130.00458984 254.44566406 129.09902344 255.09179688 128.16601562 C256.28870665 126.43714595 257.48166501 124.70553136 258.66992188 122.97070312 C266.18209565 112.14354875 266.18209565 112.14354875 270.4375 110.7734375 C271.076875 110.78632813 271.71625 110.79921875 272.375 110.8125 C273.3340625 110.79316406 273.3340625 110.79316406 274.3125 110.7734375 C280.49458846 112.76388265 284.34509231 120.43766295 287.8125 125.5 C289.0610625 127.30347917 290.3097643 129.10686192 291.55859375 130.91015625 C292.19265137 131.82941895 292.82670898 132.74868164 293.47998047 133.69580078 C296.42519733 137.95691717 299.40081495 142.19657906 302.375 146.4375 C303.54049548 148.10277298 304.70585967 149.76813785 305.87109375 151.43359375 C308.21470039 154.78188356 310.56132997 158.12802617 312.91015625 161.47265625 C313.50119141 162.31505859 314.09222656 163.15746094 314.70117188 164.02539062 C315.7888171 165.57549917 316.87723606 167.12506543 317.96679688 168.67382812 C319.03979899 170.20382491 320.09576507 171.74587283 321.1368103 173.29779053 C322.86828173 175.72668083 324.63590478 177.96017558 326.54910278 180.23773193 C337.20019334 193.48245901 338.14613138 204.3327873 337.64453125 220.91796875 C337.62022033 223.31214858 337.6017458 225.70639403 337.58879089 228.10066223 C337.53965521 234.3379345 337.41241715 240.57113658 337.26763916 246.80682373 C337.1335476 253.19552572 337.07504648 259.58489941 337.00976562 265.97460938 C336.87123337 278.46400724 336.64999653 290.95041246 336.375 303.4375 C337.01757751 303.42861755 337.66015503 303.41973511 338.32220459 303.4105835 C345.00540275 303.32214352 351.6884349 303.26177946 358.37207031 303.21777344 C360.86693065 303.19764836 363.36174378 303.17034548 365.85644531 303.13574219 C369.44087368 303.08726543 373.02467885 303.0645398 376.609375 303.046875 C377.72616638 303.02622986 378.84295776 303.00558472 379.99359131 302.98431396 C381.03436829 302.98401184 382.07514526 302.98370972 383.14746094 302.98339844 C384.06235291 302.97451599 384.97724487 302.96563354 385.91986084 302.95648193 C389.21986117 303.60302768 390.38007331 304.76430306 392.375 307.4375 C392.87836456 309.79260254 392.87836456 309.79260254 392.88293457 312.44726562 C392.89421387 313.45668213 392.90549316 314.46609863 392.91711426 315.50610352 C392.90901733 316.60752686 392.90092041 317.7089502 392.89257812 318.84375 C392.90309204 320.5906311 392.90309204 320.5906311 392.91381836 322.37280273 C392.93144432 326.22794333 392.91975841 330.08235174 392.90625 333.9375 C392.90894357 336.61263953 392.91281853 339.28775669 392.91784668 341.96289062 C392.92512197 347.5716955 392.91553871 353.18028963 392.89648438 358.7890625 C392.87471557 365.27167907 392.88176705 371.75379242 392.90379 378.23639679 C392.92194759 383.80426589 392.92450066 389.37198359 392.91403532 394.93987274 C392.90780222 398.2644567 392.90853198 401.58875252 392.92018127 404.91333008 C392.93031748 408.61965157 392.91488485 412.32500107 392.89257812 416.03125 C392.90067505 417.13267334 392.90877197 418.23409668 392.91711426 419.36889648 C392.90583496 420.37831299 392.89455566 421.38772949 392.88293457 422.42773438 C392.88067242 423.7417926 392.88067242 423.7417926 392.87836456 425.08239746 C392.17265226 428.38422872 391.13043674 429.49562366 388.375 431.4375 C385.72300132 431.83393778 383.48336457 431.98537009 380.83270264 431.95648193 C379.68826498 431.96773381 379.68826498 431.96773381 378.52070737 431.979213 C375.96242253 431.99952398 373.40502111 431.99138113 370.84667969 431.98339844 C369.01359173 431.99213162 367.1805114 432.00261651 365.34744263 432.01472473 C360.36843903 432.04263657 355.38968354 432.04598827 350.41061306 432.04500484 C345.20819449 432.04812949 340.0058884 432.07373834 334.80352783 432.09698486 C324.95094045 432.13758277 315.09841932 432.15789449 305.24576116 432.17095876 C294.02937729 432.18681596 282.81310636 432.22522619 271.59678793 432.26555204 C248.5228965 432.34800287 225.44900813 432.4020626 202.375 432.4375 C201.96743469 433.19444656 201.55986938 433.95139313 201.13995361 434.73127747 C200.60295837 435.72334702 200.06596313 436.71541656 199.51269531 437.73754883 C198.98138 438.72137039 198.4500647 439.70519196 197.90264893 440.71882629 C189.63599522 455.43054029 175.57484808 465.63692427 159.61328125 470.609375 C142.83886778 474.45653275 125.75137754 471.35440349 111.25 462.4453125 C99.92406054 454.53562109 99.92406054 454.53562109 97.375 449.4375 C93.68757807 450.07879077 90.36858903 451.10287048 86.875 452.4375 C72.07978691 458.08960388 52.97406344 457.4257386 38.375 451.4375 C37.65828125 451.06367188 36.9415625 450.68984375 36.203125 450.3046875 C34.26047861 449.2232079 34.26047861 449.2232079 31.375 449.4375 C30.59125 450.406875 29.8075 451.37625 29 452.375 C20.7358228 462.43485027 7.92990557 468.7160192 -4.625 471.4375 C-24.73590522 473.00748022 -41.07328392 469.54995797 -56.8125 456.3125 C-65.25650738 448.33006215 -71.61862155 438.32247674 -75.625 427.4375 C-76.016875 426.41269531 -76.40875 425.38789063 -76.8125 424.33203125 C-83.24154848 404.57610103 -80.84527885 383.16277703 -72.625 364.4375 C-73.34945312 364.33695312 -74.07390625 364.23640625 -74.8203125 364.1328125 C-85.39388417 361.51150922 -93.82467738 351.23521753 -99.265625 342.35546875 C-102.7406912 334.89605941 -104.16078261 327.76005631 -104.0625 319.5625 C-104.05565186 318.66192871 -104.04880371 317.76135742 -104.04174805 316.83349609 C-103.32802226 286.15130664 -90.43768237 258.50707616 -69.625 236.4375 C-69.01269531 235.76074219 -68.40039062 235.08398438 -67.76953125 234.38671875 C-59.61952701 225.71539228 -49.22575553 218.76592209 -38.625 213.4375 C-40.02852335 210.38539368 -41.77365794 207.65614523 -43.64550781 204.87158203 C-63.08514926 175.77718979 -68.49596697 141.29531229 -61.82421875 107.09765625 C-61.13193534 103.8659067 -60.41053738 100.64772943 -59.625 97.4375 C-60.3984375 96.90382813 -61.171875 96.37015625 -61.96875 95.8203125 C-75.83436811 85.90159063 -84.94313847 73.63905767 -87.91943359 56.50805664 C-90.28113981 40.32478262 -86.24473655 25.53103031 -76.625 12.4375 C-76.12484375 11.72980469 -75.6246875 11.02210937 -75.109375 10.29296875 C-57.79796318 -11.87088426 -22.67776376 -15.4288598 0 0 Z M-57.94921875 17.1875 C-65.8380779 24.40017122 -70.82187345 34.77934145 -71.625 45.4375 C-71.91694002 57.79021211 -67.21705853 67.46819781 -58.90625 76.37890625 C-56.61369766 78.44769921 -54.32380896 79.95030422 -51.625 81.4375 C-51.23570313 80.64988281 -50.84640625 79.86226563 -50.4453125 79.05078125 C-38.81099541 56.39871226 -20.89328834 38.92101453 2.375 28.4375 C-1.65875677 20.01922501 -8.35792716 13.60574794 -17.1171875 10.1875 C-32.13163731 5.69719725 -45.30641636 7.6682135 -57.94921875 17.1875 Z M131.75 19.5 C129.05527812 22.27999789 127.65427536 24.78333227 126.375 28.4375 C127.75558594 29.11232422 127.75558594 29.11232422 129.1640625 29.80078125 C152.03182755 41.29556328 168.89769509 58.57620161 180.375 81.4375 C190.00148601 75.06151576 196.96323787 66.95402093 199.375 55.4375 C200.52856528 43.65210626 199.28178065 33.50400462 192.1875 23.6875 C184.58274727 14.66190175 175.58273203 9.40228646 163.875 7.5625 C151.93211256 6.73519519 140.36004404 11.26362876 131.75 19.5 Z M-19.625 63.4375 C-32.4740146 76.42176739 -39.7318179 92.08325268 -44.625 109.4375 C-44.88023438 110.3140625 -45.13546875 111.190625 -45.3984375 112.09375 C-51.54075333 137.37516586 -46.51114116 166.89721741 -33.58886719 189.22802734 C-18.31163252 213.90825292 4.67539555 229.17778579 32.54003906 235.96484375 C64.08171635 242.98377332 99.4456259 240.00197304 127.64453125 223.52734375 C130.64007441 221.59312269 133.51601253 219.56780404 136.375 217.4375 C137.32117188 216.73753906 138.26734375 216.03757813 139.2421875 215.31640625 C159.99327527 199.19263861 171.57431594 174.99873086 175.375 149.4375 C177.20060186 118.84796697 171.74631381 91.29503865 151.375 67.4375 C150.41787109 66.19226563 150.41787109 66.19226563 149.44140625 64.921875 C132.53554899 44.59649652 104.56136789 34.84524894 79.08837891 32.45629883 C42.70717071 29.35264857 7.07433627 37.33953724 -19.625 63.4375 Z M271.375 135.4375 C269.53736432 137.8177932 267.82024231 140.2078268 266.125 142.6875 C265.59777344 143.44675781 265.07054687 144.20601562 264.52734375 144.98828125 C263.3926338 146.62258246 262.26056986 148.2587233 261.13085938 149.89648438 C258.81329772 153.25037504 256.47443078 156.58909561 254.13427734 159.92724609 C252.96124224 161.60101058 251.78969231 163.27581692 250.61962891 164.95166016 C247.70765848 169.12123832 244.78069788 173.27868724 241.8203125 177.4140625 C241.26085937 178.1978125 240.70140625 178.9815625 240.125 179.7890625 C239.06384269 181.27366239 237.99889894 182.75556515 236.9296875 184.234375 C234.29702944 187.5108864 234.29702944 187.5108864 233.375 191.4375 C259.115 191.4375 284.855 191.4375 311.375 191.4375 C309.9024915 187.75622874 308.96082596 185.59328086 306.72265625 182.57421875 C306.19921631 181.86064209 305.67577637 181.14706543 305.13647461 180.41186523 C304.57581299 179.65719971 304.01515137 178.90253418 303.4375 178.125 C302.25111136 176.50630139 301.06624141 174.88648872 299.8828125 173.265625 C299.29016602 172.45416016 298.69751953 171.64269531 298.08691406 170.80664062 C295.60306949 167.3692151 293.20122953 163.87890989 290.8125 160.375 C289.92730954 159.08187637 289.04189081 157.78890898 288.15625 156.49609375 C287.71023438 155.84495605 287.26421875 155.19381836 286.8046875 154.52294922 C284.15179542 150.65324222 281.49121615 146.78938827 278.8125 142.9375 C278.29937256 142.18847412 277.78624512 141.43944824 277.25756836 140.66772461 C276.01404639 138.88782248 274.70079778 137.15699375 273.375 135.4375 C272.715 135.4375 272.055 135.4375 271.375 135.4375 Z M224.375 207.4375 C224.2925 219.049375 224.21 230.66125 224.125 242.625 C224.08858398 246.2655542 224.05216797 249.9061084 224.01464844 253.65698242 C224.00125503 256.97518935 224.00125503 256.97518935 223.9932251 260.29341125 C223.98715935 261.74955666 223.97325393 263.20568445 223.95269775 264.66169739 C223.83474424 273.47160255 224.38038111 281.22261146 227.39776611 289.63056946 C228.65339157 293.23713027 229.33246614 296.85459351 229.98046875 300.609375 C230.20431594 302.44749126 230.20431594 302.44749126 231.375 303.4375 C234.14442593 303.53267928 236.88873766 303.56302958 239.65844727 303.55102539 C240.54075233 303.55114593 241.42305738 303.55126646 242.33209896 303.55139065 C245.20189328 303.55064137 248.07162348 303.54301245 250.94140625 303.53515625 C252.70764128 303.53368688 254.47387675 303.53266614 256.2401123 303.53210449 C262.80591482 303.52685106 269.37170803 303.51288998 275.9375 303.5 C297.9340625 303.4690625 297.9340625 303.4690625 320.375 303.4375 C320.375 271.7575 320.375 240.0775 320.375 207.4375 C288.695 207.4375 257.015 207.4375 224.375 207.4375 Z M-33.125 229.875 C-33.74648926 230.23263428 -34.36797852 230.59026855 -35.00830078 230.95874023 C-41.05492931 234.53512813 -46.33657162 238.82383123 -51.625 243.4375 C-52.31980469 243.98792969 -53.01460937 244.53835938 -53.73046875 245.10546875 C-71.76519591 259.68443981 -83.57387247 284.66406013 -86.40234375 307.421875 C-86.47582031 308.41703125 -86.54929687 309.4121875 -86.625 310.4375 C-86.70451904 311.40333008 -86.70451904 311.40333008 -86.78564453 312.38867188 C-87.61767189 323.75014894 -86.48037823 332.55617943 -78.796875 341.5859375 C-74.09549366 346.11531708 -68.76749564 348.41097992 -62.625 350.4375 C-61.5421875 348.9834375 -61.5421875 348.9834375 -60.4375 347.5 C-50.76083949 336.3014234 -37.48874554 331.31170458 -23.625 327.4375 C-23.56554199 326.82044189 -23.50608398 326.20338379 -23.44482422 325.56762695 C-21.51496351 306.33832425 -17.92934242 288.02015092 -9.625 270.4375 C-8.96757812 268.98730469 -8.96757812 268.98730469 -8.296875 267.5078125 C-4.53492028 259.54983136 0.22298892 252.53582637 5.375 245.4375 C2.93587933 242.63944518 0.42230218 241.3980497 -2.9375 239.875 C-8.7907794 237.05543248 -13.84270543 233.60878088 -18.99145508 229.68920898 C-24.74913355 225.37032996 -27.26500585 226.48672335 -33.125 229.875 Z M147.25 229.8125 C140.03276534 235.87758576 131.67376644 240.04259917 123.375 244.4375 C125.69434852 248.55573321 128.0719999 252.56114424 130.6875 256.5 C144.55057468 278.25938702 150.09485236 302.05585655 152.375 327.4375 C154.13263672 327.96537109 154.13263672 327.96537109 155.92578125 328.50390625 C168.78996658 332.49458567 182.57478756 337.73718134 190.375 349.4375 C197.75052722 349.12364778 203.11252077 345.8698263 208.17578125 340.54296875 C215.35085149 331.51626748 216.45863478 322.83944004 215.375 311.4375 C212.54022376 289.45790791 204.39099507 268.9809437 189.375 252.4375 C188.93559082 251.94894531 188.49618164 251.46039063 188.04345703 250.95703125 C180.4324832 242.59651217 172.02769319 236.27957016 162.375 230.4375 C161.75963379 230.05207031 161.14426758 229.66664063 160.51025391 229.26953125 C154.94825184 225.89413473 152.09843823 225.41588756 147.25 229.8125 Z M21.453125 251.78125 C7.27865813 268.49985194 -1.4275557 288.70161959 -5.375 310.1875 C-5.50285889 310.87239502 -5.63071777 311.55729004 -5.76245117 312.26293945 C-6.63322372 317.36808099 -6.72651413 322.26027914 -6.625 327.4375 C-4.97564453 327.96537109 -4.97564453 327.96537109 -3.29296875 328.50390625 C5.73308086 331.48190947 13.6798379 334.70565836 21.375 340.4375 C22.0040625 340.88480469 22.633125 341.33210938 23.28125 341.79296875 C32.87415113 349.22746712 39.11860468 360.28548552 43.375 371.4375 C43.78878906 372.50742187 44.20257813 373.57734375 44.62890625 374.6796875 C50.05290747 391.34856929 49.32362453 411.02450678 43.375 427.4375 C42.70695132 429.4370388 42.03986945 431.43690183 41.375 433.4375 C52.74526018 439.78512493 65.89045584 440.72723496 78.375 437.4375 C81.48994934 436.29376339 84.44657069 434.99630217 87.375 433.4375 C87.02566406 432.34050781 86.67632812 431.24351562 86.31640625 430.11328125 C85.85663336 428.65889762 85.39700559 427.20446811 84.9375 425.75 C84.70740234 425.02876953 84.47730469 424.30753906 84.24023438 423.56445312 C84.01787109 422.85869141 83.79550781 422.15292969 83.56640625 421.42578125 C83.26005249 420.45958862 83.26005249 420.45958862 82.94750977 419.47387695 C77.29663464 399.37411175 81.32396582 377.23302904 91.12109375 359.234375 C99.94699528 343.90578695 112.73587991 334.88183758 129.375 329.4375 C131.04755859 328.87869141 131.04755859 328.87869141 132.75390625 328.30859375 C133.61886719 328.02113281 134.48382813 327.73367188 135.375 327.4375 C136.05728403 300.30988687 124.99415136 272.79809274 107.375 252.4375 C104.53985631 250.06813383 104.53985631 250.06813383 101.30078125 250.86328125 C100.10839844 251.15589844 98.91601562 251.44851563 97.6875 251.75 C89.77642114 253.66076331 82.20629991 254.59240857 74.09765625 254.640625 C73.32804062 254.64632507 72.55842499 254.65202515 71.76548767 254.65789795 C70.1427444 254.66728632 68.51998259 254.67385718 66.8972168 254.67773438 C64.4747363 254.68735216 62.05313841 254.71839754 59.63085938 254.75 C47.91553422 254.82821661 36.92017037 253.47390781 25.51879883 250.75683594 C23.28447732 250.17291919 23.28447732 250.17291919 21.453125 251.78125 Z M232.375 319.4375 C231.715 324.7175 231.055 329.9975 230.375 335.4375 C233.7471875 335.5921875 233.7471875 335.5921875 237.1875 335.75 C243.8341786 336.05489351 243.8341786 336.05489351 246.06045532 337.62988281 C247.86870121 340.11638358 247.75572434 341.8111003 247.76318359 344.87109375 C247.77264008 345.98234619 247.78209656 347.09359863 247.7918396 348.23852539 C247.78576691 349.43856201 247.77969421 350.63859863 247.7734375 351.875 C247.77630768 353.10661865 247.77917786 354.3382373 247.78213501 355.60717773 C247.78470158 358.88097957 247.7726161 362.15435537 247.75585938 365.42810059 C247.75000553 367.43560385 247.75583795 369.44271369 247.76611328 371.45019531 C247.7846098 375.30031695 247.78240992 379.14985434 247.7734375 383 C247.78254654 384.80005493 247.78254654 384.80005493 247.7918396 386.63647461 C247.78238312 387.74772705 247.77292664 388.85897949 247.76318359 390.00390625 C247.76079681 390.98302979 247.75841003 391.96215332 247.75595093 392.97094727 C247.375 395.4375 247.375 395.4375 246.0785675 397.25007629 C243.13664642 399.30065946 239.67313848 398.92052839 236.20703125 398.94921875 C235.41221848 398.96716995 234.6174057 398.98512115 233.79850769 399.00361633 C231.26155899 399.0577697 228.72479893 399.09163028 226.1875 399.125 C224.46677059 399.15816874 222.7460661 399.19265799 221.02539062 399.22851562 C216.80856588 399.31598473 212.59260387 399.37600653 208.375 399.4375 C208.045 404.7175 207.715 409.9975 207.375 415.4375 C226.185 415.4375 244.995 415.4375 264.375 415.4375 C264.375 383.7575 264.375 352.0775 264.375 319.4375 C253.815 319.4375 243.255 319.4375 232.375 319.4375 Z M280.375 319.4375 C280.375 351.1175 280.375 382.7975 280.375 415.4375 C312.055 415.4375 343.735 415.4375 376.375 415.4375 C376.375 383.7575 376.375 352.0775 376.375 319.4375 C344.695 319.4375 313.015 319.4375 280.375 319.4375 Z M-51.515625 362.66796875 C-55.01571183 367.26345312 -57.43480764 372.10943589 -59.625 377.4375 C-59.9653125 378.24058594 -60.305625 379.04367187 -60.65625 379.87109375 C-65.29422654 393.29116477 -64.19218003 410.51500596 -58.625 423.4375 C-58.29757813 424.28957031 -57.97015625 425.14164062 -57.6328125 426.01953125 C-52.16785652 438.68466647 -41.40147693 447.85433058 -28.87109375 453.05859375 C-24.51109138 454.64780111 -20.48982515 454.97646475 -15.875 454.9375 C-15.0907666 454.93250488 -14.3065332 454.92750977 -13.49853516 454.92236328 C-0.43364998 454.53392606 9.19627161 447.96779159 18 438.8125 C22.62385537 433.49506632 25.7036058 427.93618013 28.375 421.4375 C28.7153125 420.63441406 29.055625 419.83132813 29.40625 419.00390625 C34.04422654 405.58383523 32.94218003 388.35999404 27.375 375.4375 C26.88386719 374.15939453 26.88386719 374.15939453 26.3828125 372.85546875 C20.91785652 360.19033353 10.15147693 351.02066942 -2.37890625 345.81640625 C-6.73890862 344.22719889 -10.76017485 343.89853525 -15.375 343.9375 C-16.1592334 343.94249512 -16.9434668 343.94749023 -17.75146484 343.95263672 C-32.02167445 344.37690992 -42.45094297 352.24358442 -51.515625 362.66796875 Z M108.484375 362.66796875 C104.98428817 367.26345312 102.56519236 372.10943589 100.375 377.4375 C100.0346875 378.24058594 99.694375 379.04367187 99.34375 379.87109375 C94.70577346 393.29116477 95.80781997 410.51500596 101.375 423.4375 C101.70242187 424.28957031 102.02984375 425.14164062 102.3671875 426.01953125 C107.83214348 438.68466647 118.59852307 447.85433058 131.12890625 453.05859375 C135.48890862 454.64780111 139.51017485 454.97646475 144.125 454.9375 C144.9092334 454.93250488 145.6934668 454.92750977 146.50146484 454.92236328 C159.56635002 454.53392606 169.19627161 447.96779159 178 438.8125 C182.62385537 433.49506632 185.7036058 427.93618013 188.375 421.4375 C188.7153125 420.63441406 189.055625 419.83132813 189.40625 419.00390625 C194.04422654 405.58383523 192.94218003 388.35999404 187.375 375.4375 C186.88386719 374.15939453 186.88386719 374.15939453 186.3828125 372.85546875 C180.91785652 360.19033353 170.15147693 351.02066942 157.62109375 345.81640625 C153.26109138 344.22719889 149.23982515 343.89853525 144.625 343.9375 C143.8407666 343.94249512 143.0565332 343.94749023 142.24853516 343.95263672 C127.97832555 344.37690992 117.54905703 352.24358442 108.484375 362.66796875 Z M215.75 355.125 C215.04746094 355.85074219 214.34492188 356.57648438 213.62109375 357.32421875 C210.05545487 360.67901985 205.82795173 362.50385917 201.375 364.4375 C201.81057916 365.91723345 202.24860096 367.39624785 202.6875 368.875 C202.93113281 369.69871094 203.17476563 370.52242188 203.42578125 371.37109375 C204.67725026 375.41390515 206.03669889 379.42259666 207.375 383.4375 C215.625 383.4375 223.875 383.4375 232.375 383.4375 C232.375 372.8775 232.375 362.3175 232.375 351.4375 C220.95294898 350.19068873 220.95294898 350.19068873 215.75 355.125 Z " fill="#000000" transform="translate(111.625,24.5625)"/>
<path d="M0 0 C0.87078186 -0.00807175 1.74156372 -0.01614349 2.63873291 -0.02445984 C4.48472094 -0.03830382 6.3307346 -0.04902457 8.17675781 -0.05688477 C10.99073335 -0.07406676 13.80352452 -0.11794543 16.6171875 -0.16210938 C18.4114497 -0.17223915 20.20572189 -0.18075436 22 -0.1875 C23.25656403 -0.21376213 23.25656403 -0.21376213 24.53851318 -0.24055481 C30.75908239 -0.21763227 34.36094394 1.41639395 38.91015625 5.8359375 C42.45862597 10.28635939 43.4412954 13.30136461 43.578125 18.92578125 C43.63419922 20.41658203 43.63419922 20.41658203 43.69140625 21.9375 C42.83815539 28.55215115 40.26786752 32.76673029 35.0078125 36.86328125 C33.39773065 38.00583526 31.7749387 39.1306658 30.140625 40.23828125 C29.31691406 40.82222656 28.49320312 41.40617187 27.64453125 42.0078125 C21.59109704 46.23828125 21.59109704 46.23828125 19.265625 46.23828125 C19.265625 54.48828125 19.265625 62.73828125 19.265625 71.23828125 C32.74277457 67.35503476 45.73114146 63.38758547 53.734375 50.95703125 C56.17590124 46.47143653 57.54731272 42.41163654 58.328125 37.36328125 C58.83335716 34.14527101 59.185884 32.3701606 60.890625 29.55078125 C64.25475808 27.69165507 67.5228287 27.24410098 71.265625 28.23828125 C74.12223265 30.36564927 75.1382901 31.55572873 75.796875 35.0859375 C75.66526324 48.6254968 71.09805188 59.446031 62.15234375 69.6484375 C47.33837613 84.16363602 27.96160762 88.55078125 7.93603516 88.55078125 C-10.59325482 88.31504646 -26.99130091 81.84912099 -40.359375 68.87890625 C-48.92413059 59.35625036 -54.11505054 48.2012852 -53.734375 35.23828125 C-51.74490132 29.74354441 -51.74490132 29.74354441 -48.734375 28.23828125 C-41.52348388 27.65675777 -41.52348388 27.65675777 -38.56640625 29.8359375 C-36.25145402 32.87153583 -35.89144955 35.23221032 -35.296875 38.98828125 C-33.25758202 49.60362797 -28.39472321 56.03223208 -19.609375 62.30078125 C-14.61805632 65.54222193 -9.37335033 67.42722348 -3.734375 69.23828125 C-1.73414063 69.90424439 0.26591798 70.5707363 2.265625 71.23828125 C3.92334077 57.00800721 3.92334077 57.00800721 -0.36962891 44.00537109 C-3.79319008 40.95537869 -7.51181504 38.8676304 -11.5625 36.765625 C-16.21091889 34.29342635 -18.63094096 31.02155999 -20.734375 26.23828125 C-22.42390934 19.88635252 -22.03197948 14.01434006 -18.734375 8.23828125 C-12.78715206 1.75702196 -8.68585491 0.07585877 0 0 Z M-3.60375977 17.75878906 C-3.97686279 18.24702148 -4.34996582 18.73525391 -4.734375 19.23828125 C-1.74595862 22.41949868 1.4109708 25.31866948 4.765625 28.11328125 C5.4978125 28.72945312 6.23 29.345625 6.984375 29.98046875 C9.17988295 31.43676373 9.17988295 31.43676373 11.65234375 31.203125 C15.08321581 29.93642037 17.64879938 28.11115116 20.578125 25.92578125 C21.12791016 25.53455078 21.67769531 25.14332031 22.24414062 24.74023438 C24.02931169 23.45049318 24.02931169 23.45049318 26.265625 21.23828125 C26.265625 19.91828125 26.265625 18.59828125 26.265625 17.23828125 C21.9226889 15.0668132 16.0983894 16.00861269 11.328125 15.98828125 C10.12220703 15.96765625 8.91628906 15.94703125 7.67382812 15.92578125 C5.94229492 15.91804687 5.94229492 15.91804687 4.17578125 15.91015625 C2.58455444 15.8961377 2.58455444 15.8961377 0.96118164 15.88183594 C-1.78096046 16.00497922 -1.78096046 16.00497922 -3.60375977 17.75878906 Z " fill="#000000" transform="translate(164.734375,151.76171875)"/>
<path d="M0 0 C8.34468007 4.97590182 13.53387008 11.86345977 16.109375 21.2578125 C17.10789012 32.35758522 16.45884702 41.9922991 9.359375 51.0703125 C3.70168013 57.1280464 -3.34488592 60.84888618 -11.625 61.59375 C-22.35447774 61.83515993 -31.19802606 60.58332943 -39.359375 52.9609375 C-46.75303791 44.73737365 -48.47252567 36.02335615 -48.203125 25.24609375 C-47.72879865 16.86039919 -44.11592977 9.8548755 -37.890625 4.2578125 C-27.15195714 -3.81766573 -12.32399863 -5.91386512 0 0 Z M-29.265625 20.8828125 C-31.46970393 25.46051489 -31.6877889 29.26333661 -30.890625 34.2578125 C-28.56093569 39.09639798 -25.72921048 41.92812319 -20.890625 44.2578125 C-15.89614911 45.0549764 -12.09332739 44.83689143 -7.515625 42.6328125 C-3.93154787 39.39007605 -1.29527259 36.79305354 -0.5078125 31.859375 C-0.25178581 26.17558256 -0.95435568 22.60842595 -4.890625 18.2578125 C-9.24123845 14.32154318 -12.80839506 13.61897331 -18.4921875 13.875 C-23.42586604 14.66246009 -26.02288855 17.29873537 -29.265625 20.8828125 Z " fill="#000000" transform="translate(399.890625,250.7421875)"/>
<path d="M0 0 C2.9276725 0.6630813 4.04580232 2.24897603 6.03515625 4.4609375 C7.42730713 6.71038818 7.42730713 6.71038818 8.69238281 9.19433594 C9.4126767 10.59664459 9.4126767 10.59664459 10.14752197 12.02728271 C10.65184753 13.03148254 11.1561731 14.03568237 11.67578125 15.0703125 C12.46634918 16.63147797 12.46634918 16.63147797 13.27288818 18.22418213 C14.383084 20.42434944 15.4889641 22.62669903 16.59082031 24.83105469 C18.27631843 28.1933077 19.98696591 31.541935 21.69921875 34.890625 C22.77630817 37.0330663 23.85187975 39.17627148 24.92578125 41.3203125 C25.43820374 42.31641541 25.95062622 43.31251831 26.47857666 44.33880615 C29.25948818 49.97382053 31.04518815 54.15646739 30.03515625 60.4609375 C27.97872783 63.12567122 26.79152817 64.31203215 23.45507812 64.96887207 C22.48119141 64.97205444 21.50730469 64.97523682 20.50390625 64.97851562 C19.39595703 64.99112427 18.28800781 65.00373291 17.14648438 65.01672363 C15.95474609 65.00862671 14.76300781 65.00052979 13.53515625 64.9921875 C11.6934082 64.99792786 11.6934082 64.99792786 9.81445312 65.00378418 C7.21874166 65.00650592 4.62300289 64.99912661 2.02734375 64.98242188 C-1.94983974 64.96101825 -5.92521657 64.98221713 -9.90234375 65.0078125 C-12.42318108 65.00516927 -14.94401728 65.00004441 -17.46484375 64.9921875 C-19.25245117 65.00433289 -19.25245117 65.00433289 -21.07617188 65.01672363 C-22.18412109 65.00411499 -23.29207031 64.99150635 -24.43359375 64.97851562 C-25.40748047 64.97533325 -26.38136719 64.97215088 -27.38476562 64.96887207 C-30.72043248 64.31218633 -31.90714908 63.12333403 -33.96484375 60.4609375 C-35.22057306 52.9035111 -31.99873399 47.42516141 -28.6015625 40.8125 C-28.0537764 39.71876068 -27.5059903 38.62502136 -26.94160461 37.49813843 C-25.78480872 35.1965952 -24.62026634 32.89893112 -23.44848633 30.60498047 C-21.65214956 27.08555703 -19.88193288 23.55391017 -18.11523438 20.01953125 C-16.98718748 17.78309169 -15.85768037 15.54738793 -14.7265625 13.3125 C-14.19520187 12.25423004 -13.66384125 11.19596008 -13.11637878 10.10562134 C-12.61608658 9.13055634 -12.11579437 8.15549133 -11.6003418 7.15087891 C-11.16288132 6.29120514 -10.72542084 5.43153137 -10.27470398 4.54580688 C-7.62711442 0.33170962 -4.68088643 0.19841908 0 0 Z M-2.96484375 28.4609375 C-4.47131973 31.41601656 -5.9689074 34.37551091 -7.46484375 37.3359375 C-7.89410156 38.17769531 -8.32335937 39.01945312 -8.765625 39.88671875 C-9.37470703 41.09521484 -9.37470703 41.09521484 -9.99609375 42.328125 C-10.37314453 43.07175293 -10.75019531 43.81538086 -11.13867188 44.58154297 C-12.09898633 46.4239265 -12.09898633 46.4239265 -11.96484375 48.4609375 C-5.36484375 48.4609375 1.23515625 48.4609375 8.03515625 48.4609375 C6.39941197 43.47255969 6.39941197 43.47255969 4.30859375 38.8125 C3.99921875 38.20019531 3.68984375 37.58789062 3.37109375 36.95703125 C3.05398438 36.33957031 2.736875 35.72210938 2.41015625 35.0859375 C2.0853125 34.44527344 1.76046875 33.80460937 1.42578125 33.14453125 C0.63258218 31.58146249 -0.16561406 30.02093128 -0.96484375 28.4609375 C-1.62484375 28.4609375 -2.28484375 28.4609375 -2.96484375 28.4609375 Z " fill="#000000" transform="translate(441.96484375,359.5390625)"/>
<path d="M0 0 C2.5 1.5 2.5 1.5 4 4 C4.791013 8.02098277 4.62153384 10.96411027 2.5 14.5 C-1.02214801 16.6132888 -3.99247759 16.81467088 -8 16 C-10.75171298 14.09496794 -11.71801879 12.7143524 -12.9375 9.625 C-13.0221688 6.06891031 -11.83947665 3.99766565 -10 1 C-6.79158965 -0.60420518 -3.4806013 -0.47462745 0 0 Z " fill="#000000" transform="translate(228,136)"/>
<path d="M0 0 C2.5 1.5 2.5 1.5 4 4 C4.791013 8.02098277 4.62153384 10.96411027 2.5 14.5 C-1.02214801 16.6132888 -3.99247759 16.81467088 -8 16 C-10.75171298 14.09496794 -11.71801879 12.7143524 -12.9375 9.625 C-13.0221688 6.06891031 -11.83947665 3.99766565 -10 1 C-6.79158965 -0.60420518 -3.4806013 -0.47462745 0 0 Z " fill="#000000" transform="translate(132,136)"/>
</svg>
